ISO-10303-21;
HEADER;
/* Generated by software containing ST-Developer
 * from STEP Tools, Inc. (www.steptools.com) 
 */

FILE_DESCRIPTION(
/* description */ (''),
/* implementation_level */ '2;1');

FILE_NAME(
/* name */ 'Case.step',
/* time_stamp */ '2026-09-23T19:54:49+01:00',
/* author */ (''),
/* organization */ (''),
/* preprocessor_version */ 'ST-DEVELOPER v20.2',
/* originating_system */ 'Autodesk Translation Framework v15.15.0.0',
/* authorisation */ '');

FILE_SCHEMA (('AUTOMOTIVE_DESIGN { 1 0 10303 214 3 1 1 }'));
ENDSEC;

DATA;
#10=MECHANICAL_DESIGN_GEOMETRIC_PRESENTATION_REPRESENTATION('',(#13),#1834);
#11=SHAPE_REPRESENTATION_RELATIONSHIP('SRR','None',#1841,#12);
#12=ADVANCED_BREP_SHAPE_REPRESENTATION('',(#14),#1833);
#13=STYLED_ITEM('',(#1851),#14);
#14=MANIFOLD_SOLID_BREP('Body1',#1097);
#15=CONICAL_SURFACE('',#1155,3.5,0.785398163397449);
#16=CYLINDRICAL_SURFACE('',#1125,4.);
#17=CYLINDRICAL_SURFACE('',#1138,1.00000000000001);
#18=CYLINDRICAL_SURFACE('',#1149,3.);
#19=CYLINDRICAL_SURFACE('',#1157,3.);
#20=CYLINDRICAL_SURFACE('',#1179,1.5);
#21=CYLINDRICAL_SURFACE('',#1182,3.);
#22=CYLINDRICAL_SURFACE('',#1186,4.);
#23=CYLINDRICAL_SURFACE('',#1190,1.5);
#24=CYLINDRICAL_SURFACE('',#1192,3.);
#25=CYLINDRICAL_SURFACE('',#1195,4.);
#26=CYLINDRICAL_SURFACE('',#1196,3.);
#27=CYLINDRICAL_SURFACE('',#1197,1.00000000000001);
#28=CYLINDRICAL_SURFACE('',#1199,0.999999999999998);
#29=CYLINDRICAL_SURFACE('',#1201,0.999903594161033);
#30=CYLINDRICAL_SURFACE('',#1203,0.999999999999996);
#31=CYLINDRICAL_SURFACE('',#1205,2.99999999999998);
#32=CYLINDRICAL_SURFACE('',#1207,3.00000000000001);
#33=CYLINDRICAL_SURFACE('',#1210,3.);
#34=FACE_BOUND('',#156,.T.);
#35=FACE_BOUND('',#157,.T.);
#36=FACE_BOUND('',#158,.T.);
#37=FACE_BOUND('',#182,.T.);
#38=FACE_BOUND('',#183,.T.);
#39=FACE_BOUND('',#184,.T.);
#40=FACE_BOUND('',#185,.T.);
#41=FACE_BOUND('',#192,.T.);
#42=FACE_BOUND('',#194,.T.);
#43=FACE_BOUND('',#198,.T.);
#44=FACE_BOUND('',#200,.T.);
#45=FACE_BOUND('',#203,.T.);
#46=FACE_BOUND('',#207,.T.);
#47=CIRCLE('',#1120,3.);
#48=CIRCLE('',#1121,2.99999999999998);
#49=CIRCLE('',#1122,3.00000000000001);
#50=CIRCLE('',#1123,3.);
#51=CIRCLE('',#1124,4.);
#52=CIRCLE('',#1126,4.);
#53=CIRCLE('',#1130,0.999999999999996);
#54=CIRCLE('',#1131,2.99999999999998);
#55=CIRCLE('',#1135,0.999999999999998);
#56=CIRCLE('',#1136,3.);
#57=CIRCLE('',#1139,1.00000000000001);
#58=CIRCLE('',#1140,1.00000000000001);
#59=CIRCLE('',#1143,3.00000000000001);
#60=CIRCLE('',#1147,3.);
#61=CIRCLE('',#1148,1.00000000000001);
#62=CIRCLE('',#1153,0.999903594161033);
#63=CIRCLE('',#1156,3.);
#64=CIRCLE('',#1158,3.);
#65=CIRCLE('',#1161,0.999999999999998);
#66=CIRCLE('',#1162,1.00000000000001);
#67=CIRCLE('',#1163,0.999903594161033);
#68=CIRCLE('',#1164,0.999999999999996);
#69=CIRCLE('',#1165,4.);
#70=CIRCLE('',#1166,4.);
#71=CIRCLE('',#1172,3.);
#72=CIRCLE('',#1174,4.);
#73=CIRCLE('',#1175,3.);
#74=CIRCLE('',#1177,4.);
#75=CIRCLE('',#1178,3.);
#76=CIRCLE('',#1180,1.5);
#77=CIRCLE('',#1181,1.5);
#78=CIRCLE('',#1183,3.);
#79=CIRCLE('',#1188,3.);
#80=CIRCLE('',#1189,1.5);
#81=CIRCLE('',#1191,1.5);
#82=CIRCLE('',#1193,3.);
#83=FACE_OUTER_BOUND('',#147,.T.);
#84=FACE_OUTER_BOUND('',#148,.T.);
#85=FACE_OUTER_BOUND('',#149,.T.);
#86=FACE_OUTER_BOUND('',#150,.T.);
#87=FACE_OUTER_BOUND('',#151,.T.);
#88=FACE_OUTER_BOUND('',#152,.T.);
#89=FACE_OUTER_BOUND('',#153,.T.);
#90=FACE_OUTER_BOUND('',#154,.T.);
#91=FACE_OUTER_BOUND('',#155,.T.);
#92=FACE_OUTER_BOUND('',#159,.T.);
#93=FACE_OUTER_BOUND('',#160,.T.);
#94=FACE_OUTER_BOUND('',#161,.T.);
#95=FACE_OUTER_BOUND('',#162,.T.);
#96=FACE_OUTER_BOUND('',#163,.T.);
#97=FACE_OUTER_BOUND('',#164,.T.);
#98=FACE_OUTER_BOUND('',#165,.T.);
#99=FACE_OUTER_BOUND('',#166,.T.);
#100=FACE_OUTER_BOUND('',#167,.T.);
#101=FACE_OUTER_BOUND('',#168,.T.);
#102=FACE_OUTER_BOUND('',#169,.T.);
#103=FACE_OUTER_BOUND('',#170,.T.);
#104=FACE_OUTER_BOUND('',#171,.T.);
#105=FACE_OUTER_BOUND('',#172,.T.);
#106=FACE_OUTER_BOUND('',#173,.T.);
#107=FACE_OUTER_BOUND('',#174,.T.);
#108=FACE_OUTER_BOUND('',#175,.T.);
#109=FACE_OUTER_BOUND('',#176,.T.);
#110=FACE_OUTER_BOUND('',#177,.T.);
#111=FACE_OUTER_BOUND('',#178,.T.);
#112=FACE_OUTER_BOUND('',#179,.T.);
#113=FACE_OUTER_BOUND('',#180,.T.);
#114=FACE_OUTER_BOUND('',#181,.T.);
#115=FACE_OUTER_BOUND('',#186,.T.);
#116=FACE_OUTER_BOUND('',#187,.T.);
#117=FACE_OUTER_BOUND('',#188,.T.);
#118=FACE_OUTER_BOUND('',#189,.T.);
#119=FACE_OUTER_BOUND('',#190,.T.);
#120=FACE_OUTER_BOUND('',#191,.T.);
#121=FACE_OUTER_BOUND('',#193,.T.);
#122=FACE_OUTER_BOUND('',#195,.T.);
#123=FACE_OUTER_BOUND('',#196,.T.);
#124=FACE_OUTER_BOUND('',#197,.T.);
#125=FACE_OUTER_BOUND('',#199,.T.);
#126=FACE_OUTER_BOUND('',#201,.T.);
#127=FACE_OUTER_BOUND('',#202,.T.);
#128=FACE_OUTER_BOUND('',#204,.T.);
#129=FACE_OUTER_BOUND('',#205,.T.);
#130=FACE_OUTER_BOUND('',#206,.T.);
#131=FACE_OUTER_BOUND('',#208,.T.);
#132=FACE_OUTER_BOUND('',#209,.T.);
#133=FACE_OUTER_BOUND('',#210,.T.);
#134=FACE_OUTER_BOUND('',#211,.T.);
#135=FACE_OUTER_BOUND('',#212,.T.);
#136=FACE_OUTER_BOUND('',#213,.T.);
#137=FACE_OUTER_BOUND('',#214,.T.);
#138=FACE_OUTER_BOUND('',#215,.T.);
#139=FACE_OUTER_BOUND('',#216,.T.);
#140=FACE_OUTER_BOUND('',#217,.T.);
#141=FACE_OUTER_BOUND('',#218,.T.);
#142=FACE_OUTER_BOUND('',#219,.T.);
#143=FACE_OUTER_BOUND('',#220,.T.);
#144=FACE_OUTER_BOUND('',#221,.T.);
#145=FACE_OUTER_BOUND('',#222,.T.);
#146=FACE_OUTER_BOUND('',#223,.T.);
#147=EDGE_LOOP('',(#690,#691,#692,#693));
#148=EDGE_LOOP('',(#694,#695,#696,#697));
#149=EDGE_LOOP('',(#698,#699,#700,#701));
#150=EDGE_LOOP('',(#702,#703,#704,#705));
#151=EDGE_LOOP('',(#706,#707,#708,#709));
#152=EDGE_LOOP('',(#710,#711,#712,#713));
#153=EDGE_LOOP('',(#714,#715,#716,#717));
#154=EDGE_LOOP('',(#718,#719,#720,#721));
#155=EDGE_LOOP('',(#722,#723,#724,#725,#726,#727,#728,#729,#730,#731));
#156=EDGE_LOOP('',(#732));
#157=EDGE_LOOP('',(#733,#734,#735,#736));
#158=EDGE_LOOP('',(#737,#738,#739,#740));
#159=EDGE_LOOP('',(#741,#742,#743,#744));
#160=EDGE_LOOP('',(#745,#746,#747,#748));
#161=EDGE_LOOP('',(#749,#750,#751,#752));
#162=EDGE_LOOP('',(#753,#754,#755,#756));
#163=EDGE_LOOP('',(#757,#758,#759,#760));
#164=EDGE_LOOP('',(#761,#762,#763,#764));
#165=EDGE_LOOP('',(#765,#766,#767,#768));
#166=EDGE_LOOP('',(#769,#770,#771,#772));
#167=EDGE_LOOP('',(#773,#774,#775,#776));
#168=EDGE_LOOP('',(#777,#778,#779,#780));
#169=EDGE_LOOP('',(#781,#782,#783,#784));
#170=EDGE_LOOP('',(#785,#786,#787,#788));
#171=EDGE_LOOP('',(#789,#790,#791,#792));
#172=EDGE_LOOP('',(#793,#794,#795,#796));
#173=EDGE_LOOP('',(#797,#798,#799,#800));
#174=EDGE_LOOP('',(#801,#802,#803,#804));
#175=EDGE_LOOP('',(#805,#806,#807,#808));
#176=EDGE_LOOP('',(#809,#810,#811,#812,#813,#814));
#177=EDGE_LOOP('',(#815,#816,#817,#818));
#178=EDGE_LOOP('',(#819,#820,#821,#822));
#179=EDGE_LOOP('',(#823,#824,#825,#826));
#180=EDGE_LOOP('',(#827,#828,#829,#830));
#181=EDGE_LOOP('',(#831,#832,#833,#834,#835,#836,#837,#838,#839,#840));
#182=EDGE_LOOP('',(#841,#842,#843,#844));
#183=EDGE_LOOP('',(#845,#846,#847,#848));
#184=EDGE_LOOP('',(#849));
#185=EDGE_LOOP('',(#850));
#186=EDGE_LOOP('',(#851,#852,#853,#854));
#187=EDGE_LOOP('',(#855,#856,#857,#858));
#188=EDGE_LOOP('',(#859,#860,#861,#862));
#189=EDGE_LOOP('',(#863,#864,#865,#866,#867,#868,#869,#870,#871,#872));
#190=EDGE_LOOP('',(#873));
#191=EDGE_LOOP('',(#874));
#192=EDGE_LOOP('',(#875));
#193=EDGE_LOOP('',(#876));
#194=EDGE_LOOP('',(#877));
#195=EDGE_LOOP('',(#878,#879,#880,#881));
#196=EDGE_LOOP('',(#882,#883,#884,#885));
#197=EDGE_LOOP('',(#886));
#198=EDGE_LOOP('',(#887));
#199=EDGE_LOOP('',(#888));
#200=EDGE_LOOP('',(#889));
#201=EDGE_LOOP('',(#890,#891,#892,#893));
#202=EDGE_LOOP('',(#894));
#203=EDGE_LOOP('',(#895));
#204=EDGE_LOOP('',(#896,#897,#898,#899));
#205=EDGE_LOOP('',(#900,#901,#902,#903));
#206=EDGE_LOOP('',(#904));
#207=EDGE_LOOP('',(#905));
#208=EDGE_LOOP('',(#906,#907,#908,#909));
#209=EDGE_LOOP('',(#910,#911,#912,#913));
#210=EDGE_LOOP('',(#914,#915,#916,#917));
#211=EDGE_LOOP('',(#918,#919,#920,#921,#922,#923));
#212=EDGE_LOOP('',(#924,#925,#926,#927));
#213=EDGE_LOOP('',(#928,#929,#930,#931,#932,#933));
#214=EDGE_LOOP('',(#934,#935,#936,#937,#938));
#215=EDGE_LOOP('',(#939,#940,#941,#942,#943));
#216=EDGE_LOOP('',(#944,#945,#946,#947));
#217=EDGE_LOOP('',(#948,#949,#950,#951,#952,#953,#954,#955,#956,#957));
#218=EDGE_LOOP('',(#958,#959,#960,#961));
#219=EDGE_LOOP('',(#962,#963,#964,#965,#966,#967));
#220=EDGE_LOOP('',(#968,#969,#970,#971));
#221=EDGE_LOOP('',(#972,#973,#974,#975,#976,#977));
#222=EDGE_LOOP('',(#978,#979,#980,#981,#982,#983));
#223=EDGE_LOOP('',(#984,#985,#986,#987));
#224=LINE('',#1530,#337);
#225=LINE('',#1532,#338);
#226=LINE('',#1534,#339);
#227=LINE('',#1535,#340);
#228=LINE('',#1538,#341);
#229=LINE('',#1540,#342);
#230=LINE('',#1541,#343);
#231=LINE('',#1544,#344);
#232=LINE('',#1546,#345);
#233=LINE('',#1547,#346);
#234=LINE('',#1549,#347);
#235=LINE('',#1550,#348);
#236=LINE('',#1554,#349);
#237=LINE('',#1556,#350);
#238=LINE('',#1558,#351);
#239=LINE('',#1559,#352);
#240=LINE('',#1562,#353);
#241=LINE('',#1564,#354);
#242=LINE('',#1565,#355);
#243=LINE('',#1568,#356);
#244=LINE('',#1570,#357);
#245=LINE('',#1571,#358);
#246=LINE('',#1573,#359);
#247=LINE('',#1574,#360);
#248=LINE('',#1580,#361);
#249=LINE('',#1582,#362);
#250=LINE('',#1584,#363);
#251=LINE('',#1588,#364);
#252=LINE('',#1592,#365);
#253=LINE('',#1595,#366);
#254=LINE('',#1600,#367);
#255=LINE('',#1605,#368);
#256=LINE('',#1607,#369);
#257=LINE('',#1609,#370);
#258=LINE('',#1610,#371);
#259=LINE('',#1614,#372);
#260=LINE('',#1616,#373);
#261=LINE('',#1618,#374);
#262=LINE('',#1619,#375);
#263=LINE('',#1626,#376);
#264=LINE('',#1628,#377);
#265=LINE('',#1630,#378);
#266=LINE('',#1631,#379);
#267=LINE('',#1635,#380);
#268=LINE('',#1637,#381);
#269=LINE('',#1639,#382);
#270=LINE('',#1640,#383);
#271=LINE('',#1647,#384);
#272=LINE('',#1649,#385);
#273=LINE('',#1651,#386);
#274=LINE('',#1652,#387);
#275=LINE('',#1657,#388);
#276=LINE('',#1659,#389);
#277=LINE('',#1662,#390);
#278=LINE('',#1664,#391);
#279=LINE('',#1665,#392);
#280=LINE('',#1671,#393);
#281=LINE('',#1673,#394);
#282=LINE('',#1675,#395);
#283=LINE('',#1676,#396);
#284=LINE('',#1680,#397);
#285=LINE('',#1682,#398);
#286=LINE('',#1684,#399);
#287=LINE('',#1685,#400);
#288=LINE('',#1690,#401);
#289=LINE('',#1691,#402);
#290=LINE('',#1693,#403);
#291=LINE('',#1694,#404);
#292=LINE('',#1696,#405);
#293=LINE('',#1697,#406);
#294=LINE('',#1700,#407);
#295=LINE('',#1702,#408);
#296=LINE('',#1704,#409);
#297=LINE('',#1705,#410);
#298=LINE('',#1709,#411);
#299=LINE('',#1713,#412);
#300=LINE('',#1716,#413);
#301=LINE('',#1718,#414);
#302=LINE('',#1719,#415);
#303=LINE('',#1722,#416);
#304=LINE('',#1726,#417);
#305=LINE('',#1730,#418);
#306=LINE('',#1734,#419);
#307=LINE('',#1737,#420);
#308=LINE('',#1744,#421);
#309=LINE('',#1746,#422);
#310=LINE('',#1747,#423);
#311=LINE('',#1750,#424);
#312=LINE('',#1752,#425);
#313=LINE('',#1753,#426);
#314=LINE('',#1755,#427);
#315=LINE('',#1756,#428);
#316=LINE('',#1758,#429);
#317=LINE('',#1759,#430);
#318=LINE('',#1777,#431);
#319=LINE('',#1782,#432);
#320=LINE('',#1786,#433);
#321=LINE('',#1795,#434);
#322=LINE('',#1799,#435);
#323=LINE('',#1802,#436);
#324=LINE('',#1804,#437);
#325=LINE('',#1806,#438);
#326=LINE('',#1807,#439);
#327=LINE('',#1809,#440);
#328=LINE('',#1812,#441);
#329=LINE('',#1814,#442);
#330=LINE('',#1816,#443);
#331=LINE('',#1819,#444);
#332=LINE('',#1820,#445);
#333=LINE('',#1822,#446);
#334=LINE('',#1824,#447);
#335=LINE('',#1826,#448);
#336=LINE('',#1829,#449);
#337=VECTOR('',#1215,10.);
#338=VECTOR('',#1216,10.);
#339=VECTOR('',#1217,10.);
#340=VECTOR('',#1218,10.);
#341=VECTOR('',#1221,10.);
#342=VECTOR('',#1222,10.);
#343=VECTOR('',#1223,10.);
#344=VECTOR('',#1226,10.);
#345=VECTOR('',#1227,10.);
#346=VECTOR('',#1228,10.);
#347=VECTOR('',#1231,10.);
#348=VECTOR('',#1232,10.);
#349=VECTOR('',#1235,10.);
#350=VECTOR('',#1236,10.);
#351=VECTOR('',#1237,10.);
#352=VECTOR('',#1238,10.);
#353=VECTOR('',#1241,10.);
#354=VECTOR('',#1242,10.);
#355=VECTOR('',#1243,10.);
#356=VECTOR('',#1246,10.);
#357=VECTOR('',#1247,10.);
#358=VECTOR('',#1248,10.);
#359=VECTOR('',#1251,10.);
#360=VECTOR('',#1252,10.);
#361=VECTOR('',#1257,10.);
#362=VECTOR('',#1258,10.);
#363=VECTOR('',#1259,10.);
#364=VECTOR('',#1262,10.);
#365=VECTOR('',#1265,10.);
#366=VECTOR('',#1268,10.);
#367=VECTOR('',#1273,4.);
#368=VECTOR('',#1278,10.);
#369=VECTOR('',#1279,10.);
#370=VECTOR('',#1280,10.);
#371=VECTOR('',#1281,10.);
#372=VECTOR('',#1284,10.);
#373=VECTOR('',#1285,10.);
#374=VECTOR('',#1286,10.);
#375=VECTOR('',#1287,10.);
#376=VECTOR('',#1296,10.);
#377=VECTOR('',#1297,10.);
#378=VECTOR('',#1298,10.);
#379=VECTOR('',#1299,10.);
#380=VECTOR('',#1302,10.);
#381=VECTOR('',#1303,10.);
#382=VECTOR('',#1304,10.);
#383=VECTOR('',#1305,10.);
#384=VECTOR('',#1314,10.);
#385=VECTOR('',#1315,10.);
#386=VECTOR('',#1316,10.);
#387=VECTOR('',#1317,10.);
#388=VECTOR('',#1322,10.);
#389=VECTOR('',#1325,10.);
#390=VECTOR('',#1328,10.);
#391=VECTOR('',#1329,10.);
#392=VECTOR('',#1330,10.);
#393=VECTOR('',#1337,10.);
#394=VECTOR('',#1338,10.);
#395=VECTOR('',#1339,10.);
#396=VECTOR('',#1340,10.);
#397=VECTOR('',#1343,10.);
#398=VECTOR('',#1344,10.);
#399=VECTOR('',#1345,10.);
#400=VECTOR('',#1346,10.);
#401=VECTOR('',#1355,10.);
#402=VECTOR('',#1356,10.);
#403=VECTOR('',#1359,10.);
#404=VECTOR('',#1360,10.);
#405=VECTOR('',#1363,10.);
#406=VECTOR('',#1364,10.);
#407=VECTOR('',#1367,10.);
#408=VECTOR('',#1370,10.);
#409=VECTOR('',#1373,10.);
#410=VECTOR('',#1374,10.);
#411=VECTOR('',#1379,3.5);
#412=VECTOR('',#1384,3.);
#413=VECTOR('',#1387,10.);
#414=VECTOR('',#1388,10.);
#415=VECTOR('',#1389,10.);
#416=VECTOR('',#1392,10.);
#417=VECTOR('',#1395,10.);
#418=VECTOR('',#1398,10.);
#419=VECTOR('',#1401,10.);
#420=VECTOR('',#1404,10.);
#421=VECTOR('',#1411,10.);
#422=VECTOR('',#1412,10.);
#423=VECTOR('',#1413,10.);
#424=VECTOR('',#1416,10.);
#425=VECTOR('',#1417,10.);
#426=VECTOR('',#1418,10.);
#427=VECTOR('',#1421,10.);
#428=VECTOR('',#1422,10.);
#429=VECTOR('',#1425,10.);
#430=VECTOR('',#1426,10.);
#431=VECTOR('',#1447,1.5);
#432=VECTOR('',#1454,3.);
#433=VECTOR('',#1461,4.);
#434=VECTOR('',#1472,1.5);
#435=VECTOR('',#1477,3.);
#436=VECTOR('',#1482,4.);
#437=VECTOR('',#1485,3.);
#438=VECTOR('',#1488,10.);
#439=VECTOR('',#1489,10.);
#440=VECTOR('',#1492,10.);
#441=VECTOR('',#1497,10.);
#442=VECTOR('',#1500,10.);
#443=VECTOR('',#1503,10.);
#444=VECTOR('',#1508,10.);
#445=VECTOR('',#1509,10.);
#446=VECTOR('',#1512,10.);
#447=VECTOR('',#1515,10.);
#448=VECTOR('',#1518,10.);
#449=VECTOR('',#1523,10.);
#450=VERTEX_POINT('',#1528);
#451=VERTEX_POINT('',#1529);
#452=VERTEX_POINT('',#1531);
#453=VERTEX_POINT('',#1533);
#454=VERTEX_POINT('',#1537);
#455=VERTEX_POINT('',#1539);
#456=VERTEX_POINT('',#1543);
#457=VERTEX_POINT('',#1545);
#458=VERTEX_POINT('',#1552);
#459=VERTEX_POINT('',#1553);
#460=VERTEX_POINT('',#1555);
#461=VERTEX_POINT('',#1557);
#462=VERTEX_POINT('',#1561);
#463=VERTEX_POINT('',#1563);
#464=VERTEX_POINT('',#1567);
#465=VERTEX_POINT('',#1569);
#466=VERTEX_POINT('',#1576);
#467=VERTEX_POINT('',#1577);
#468=VERTEX_POINT('',#1579);
#469=VERTEX_POINT('',#1581);
#470=VERTEX_POINT('',#1583);
#471=VERTEX_POINT('',#1585);
#472=VERTEX_POINT('',#1587);
#473=VERTEX_POINT('',#1589);
#474=VERTEX_POINT('',#1591);
#475=VERTEX_POINT('',#1593);
#476=VERTEX_POINT('',#1596);
#477=VERTEX_POINT('',#1599);
#478=VERTEX_POINT('',#1603);
#479=VERTEX_POINT('',#1604);
#480=VERTEX_POINT('',#1606);
#481=VERTEX_POINT('',#1608);
#482=VERTEX_POINT('',#1612);
#483=VERTEX_POINT('',#1613);
#484=VERTEX_POINT('',#1615);
#485=VERTEX_POINT('',#1617);
#486=VERTEX_POINT('',#1624);
#487=VERTEX_POINT('',#1625);
#488=VERTEX_POINT('',#1627);
#489=VERTEX_POINT('',#1629);
#490=VERTEX_POINT('',#1633);
#491=VERTEX_POINT('',#1634);
#492=VERTEX_POINT('',#1636);
#493=VERTEX_POINT('',#1638);
#494=VERTEX_POINT('',#1645);
#495=VERTEX_POINT('',#1646);
#496=VERTEX_POINT('',#1648);
#497=VERTEX_POINT('',#1650);
#498=VERTEX_POINT('',#1654);
#499=VERTEX_POINT('',#1656);
#500=VERTEX_POINT('',#1661);
#501=VERTEX_POINT('',#1663);
#502=VERTEX_POINT('',#1669);
#503=VERTEX_POINT('',#1670);
#504=VERTEX_POINT('',#1672);
#505=VERTEX_POINT('',#1674);
#506=VERTEX_POINT('',#1678);
#507=VERTEX_POINT('',#1679);
#508=VERTEX_POINT('',#1681);
#509=VERTEX_POINT('',#1683);
#510=VERTEX_POINT('',#1699);
#511=VERTEX_POINT('',#1707);
#512=VERTEX_POINT('',#1711);
#513=VERTEX_POINT('',#1715);
#514=VERTEX_POINT('',#1717);
#515=VERTEX_POINT('',#1721);
#516=VERTEX_POINT('',#1723);
#517=VERTEX_POINT('',#1725);
#518=VERTEX_POINT('',#1727);
#519=VERTEX_POINT('',#1729);
#520=VERTEX_POINT('',#1731);
#521=VERTEX_POINT('',#1733);
#522=VERTEX_POINT('',#1735);
#523=VERTEX_POINT('',#1738);
#524=VERTEX_POINT('',#1740);
#525=VERTEX_POINT('',#1743);
#526=VERTEX_POINT('',#1745);
#527=VERTEX_POINT('',#1749);
#528=VERTEX_POINT('',#1751);
#529=VERTEX_POINT('',#1761);
#530=VERTEX_POINT('',#1764);
#531=VERTEX_POINT('',#1766);
#532=VERTEX_POINT('',#1769);
#533=VERTEX_POINT('',#1771);
#534=VERTEX_POINT('',#1774);
#535=VERTEX_POINT('',#1776);
#536=VERTEX_POINT('',#1780);
#537=VERTEX_POINT('',#1788);
#538=VERTEX_POINT('',#1790);
#539=VERTEX_POINT('',#1793);
#540=VERTEX_POINT('',#1797);
#541=EDGE_CURVE('',#450,#451,#224,.T.);
#542=EDGE_CURVE('',#450,#452,#225,.T.);
#543=EDGE_CURVE('',#453,#452,#226,.T.);
#544=EDGE_CURVE('',#451,#453,#227,.T.);
#545=EDGE_CURVE('',#454,#450,#228,.T.);
#546=EDGE_CURVE('',#454,#455,#229,.T.);
#547=EDGE_CURVE('',#452,#455,#230,.T.);
#548=EDGE_CURVE('',#456,#454,#231,.T.);
#549=EDGE_CURVE('',#456,#457,#232,.T.);
#550=EDGE_CURVE('',#455,#457,#233,.T.);
#551=EDGE_CURVE('',#451,#456,#234,.T.);
#552=EDGE_CURVE('',#457,#453,#235,.T.);
#553=EDGE_CURVE('',#458,#459,#236,.T.);
#554=EDGE_CURVE('',#458,#460,#237,.T.);
#555=EDGE_CURVE('',#461,#460,#238,.T.);
#556=EDGE_CURVE('',#459,#461,#239,.T.);
#557=EDGE_CURVE('',#462,#458,#240,.T.);
#558=EDGE_CURVE('',#462,#463,#241,.T.);
#559=EDGE_CURVE('',#460,#463,#242,.T.);
#560=EDGE_CURVE('',#464,#462,#243,.T.);
#561=EDGE_CURVE('',#464,#465,#244,.T.);
#562=EDGE_CURVE('',#463,#465,#245,.T.);
#563=EDGE_CURVE('',#459,#464,#246,.T.);
#564=EDGE_CURVE('',#465,#461,#247,.T.);
#565=EDGE_CURVE('',#466,#467,#47,.T.);
#566=EDGE_CURVE('',#466,#468,#248,.T.);
#567=EDGE_CURVE('',#468,#469,#249,.T.);
#568=EDGE_CURVE('',#469,#470,#250,.T.);
#569=EDGE_CURVE('',#471,#470,#48,.T.);
#570=EDGE_CURVE('',#471,#472,#251,.T.);
#571=EDGE_CURVE('',#473,#472,#49,.T.);
#572=EDGE_CURVE('',#473,#474,#252,.T.);
#573=EDGE_CURVE('',#475,#474,#50,.T.);
#574=EDGE_CURVE('',#475,#467,#253,.T.);
#575=EDGE_CURVE('',#476,#476,#51,.T.);
#576=EDGE_CURVE('',#476,#477,#254,.T.);
#577=EDGE_CURVE('',#477,#477,#52,.T.);
#578=EDGE_CURVE('',#478,#479,#255,.T.);
#579=EDGE_CURVE('',#479,#480,#256,.T.);
#580=EDGE_CURVE('',#481,#480,#257,.T.);
#581=EDGE_CURVE('',#478,#481,#258,.T.);
#582=EDGE_CURVE('',#482,#483,#259,.T.);
#583=EDGE_CURVE('',#482,#484,#260,.T.);
#584=EDGE_CURVE('',#485,#484,#261,.T.);
#585=EDGE_CURVE('',#483,#485,#262,.T.);
#586=EDGE_CURVE('',#479,#483,#53,.T.);
#587=EDGE_CURVE('',#482,#478,#54,.T.);
#588=EDGE_CURVE('',#486,#487,#263,.T.);
#589=EDGE_CURVE('',#487,#488,#264,.T.);
#590=EDGE_CURVE('',#489,#488,#265,.T.);
#591=EDGE_CURVE('',#486,#489,#266,.T.);
#592=EDGE_CURVE('',#490,#491,#267,.T.);
#593=EDGE_CURVE('',#490,#492,#268,.T.);
#594=EDGE_CURVE('',#493,#492,#269,.T.);
#595=EDGE_CURVE('',#491,#493,#270,.T.);
#596=EDGE_CURVE('',#487,#491,#55,.T.);
#597=EDGE_CURVE('',#490,#486,#56,.T.);
#598=EDGE_CURVE('',#494,#495,#271,.T.);
#599=EDGE_CURVE('',#495,#496,#272,.T.);
#600=EDGE_CURVE('',#497,#496,#273,.T.);
#601=EDGE_CURVE('',#494,#497,#274,.T.);
#602=EDGE_CURVE('',#495,#498,#57,.T.);
#603=EDGE_CURVE('',#498,#499,#275,.T.);
#604=EDGE_CURVE('',#496,#499,#58,.T.);
#605=EDGE_CURVE('',#495,#496,#276,.T.);
#606=EDGE_CURVE('',#500,#498,#277,.T.);
#607=EDGE_CURVE('',#500,#501,#278,.T.);
#608=EDGE_CURVE('',#499,#501,#279,.T.);
#609=EDGE_CURVE('',#500,#494,#59,.T.);
#610=EDGE_CURVE('',#502,#503,#280,.T.);
#611=EDGE_CURVE('',#503,#504,#281,.T.);
#612=EDGE_CURVE('',#505,#504,#282,.T.);
#613=EDGE_CURVE('',#502,#505,#283,.T.);
#614=EDGE_CURVE('',#506,#507,#284,.T.);
#615=EDGE_CURVE('',#506,#508,#285,.T.);
#616=EDGE_CURVE('',#509,#508,#286,.T.);
#617=EDGE_CURVE('',#507,#509,#287,.T.);
#618=EDGE_CURVE('',#506,#502,#60,.T.);
#619=EDGE_CURVE('',#503,#507,#61,.T.);
#620=EDGE_CURVE('',#475,#502,#288,.T.);
#621=EDGE_CURVE('',#474,#506,#289,.T.);
#622=EDGE_CURVE('',#496,#509,#290,.T.);
#623=EDGE_CURVE('',#508,#497,#291,.T.);
#624=EDGE_CURVE('',#492,#505,#292,.T.);
#625=EDGE_CURVE('',#504,#493,#293,.T.);
#626=EDGE_CURVE('',#480,#510,#294,.T.);
#627=EDGE_CURVE('',#510,#496,#62,.T.);
#628=EDGE_CURVE('',#501,#481,#295,.T.);
#629=EDGE_CURVE('',#484,#489,#296,.T.);
#630=EDGE_CURVE('',#488,#485,#297,.T.);
#631=EDGE_CURVE('',#511,#511,#63,.T.);
#632=EDGE_CURVE('',#511,#477,#298,.T.);
#633=EDGE_CURVE('',#512,#512,#64,.T.);
#634=EDGE_CURVE('',#512,#511,#299,.T.);
#635=EDGE_CURVE('',#468,#513,#300,.F.);
#636=EDGE_CURVE('',#513,#514,#301,.T.);
#637=EDGE_CURVE('',#514,#469,#302,.F.);
#638=EDGE_CURVE('',#513,#515,#303,.T.);
#639=EDGE_CURVE('',#515,#516,#65,.T.);
#640=EDGE_CURVE('',#516,#517,#304,.T.);
#641=EDGE_CURVE('',#517,#518,#66,.T.);
#642=EDGE_CURVE('',#518,#519,#305,.T.);
#643=EDGE_CURVE('',#519,#520,#67,.T.);
#644=EDGE_CURVE('',#520,#521,#306,.T.);
#645=EDGE_CURVE('',#521,#522,#68,.T.);
#646=EDGE_CURVE('',#522,#514,#307,.T.);
#647=EDGE_CURVE('',#523,#523,#69,.T.);
#648=EDGE_CURVE('',#524,#524,#70,.T.);
#649=EDGE_CURVE('',#513,#525,#308,.T.);
#650=EDGE_CURVE('',#468,#526,#309,.T.);
#651=EDGE_CURVE('',#526,#525,#310,.T.);
#652=EDGE_CURVE('',#527,#469,#311,.T.);
#653=EDGE_CURVE('',#528,#514,#312,.T.);
#654=EDGE_CURVE('',#528,#527,#313,.T.);
#655=EDGE_CURVE('',#526,#527,#314,.T.);
#656=EDGE_CURVE('',#525,#528,#315,.T.);
#657=EDGE_CURVE('',#522,#483,#316,.T.);
#658=EDGE_CURVE('',#515,#487,#317,.T.);
#659=EDGE_CURVE('',#529,#529,#71,.T.);
#660=EDGE_CURVE('',#530,#530,#72,.T.);
#661=EDGE_CURVE('',#531,#531,#73,.T.);
#662=EDGE_CURVE('',#532,#532,#74,.T.);
#663=EDGE_CURVE('',#533,#533,#75,.T.);
#664=EDGE_CURVE('',#534,#534,#76,.T.);
#665=EDGE_CURVE('',#534,#535,#318,.T.);
#666=EDGE_CURVE('',#535,#535,#77,.T.);
#667=EDGE_CURVE('',#536,#536,#78,.T.);
#668=EDGE_CURVE('',#536,#533,#319,.T.);
#669=EDGE_CURVE('',#532,#523,#320,.T.);
#670=EDGE_CURVE('',#537,#537,#79,.T.);
#671=EDGE_CURVE('',#538,#538,#80,.T.);
#672=EDGE_CURVE('',#539,#539,#81,.T.);
#673=EDGE_CURVE('',#539,#538,#321,.T.);
#674=EDGE_CURVE('',#540,#540,#82,.T.);
#675=EDGE_CURVE('',#540,#531,#322,.T.);
#676=EDGE_CURVE('',#530,#524,#323,.T.);
#677=EDGE_CURVE('',#537,#529,#324,.T.);
#678=EDGE_CURVE('',#518,#507,#325,.T.);
#679=EDGE_CURVE('',#517,#503,#326,.T.);
#680=EDGE_CURVE('',#516,#491,#327,.T.);
#681=EDGE_CURVE('',#519,#495,#328,.T.);
#682=EDGE_CURVE('',#520,#510,#329,.T.);
#683=EDGE_CURVE('',#521,#479,#330,.T.);
#684=EDGE_CURVE('',#466,#486,#331,.T.);
#685=EDGE_CURVE('',#470,#482,#332,.T.);
#686=EDGE_CURVE('',#471,#478,#333,.T.);
#687=EDGE_CURVE('',#472,#500,#334,.T.);
#688=EDGE_CURVE('',#473,#494,#335,.T.);
#689=EDGE_CURVE('',#467,#490,#336,.T.);
#690=ORIENTED_EDGE('',*,*,#541,.F.);
#691=ORIENTED_EDGE('',*,*,#542,.T.);
#692=ORIENTED_EDGE('',*,*,#543,.F.);
#693=ORIENTED_EDGE('',*,*,#544,.F.);
#694=ORIENTED_EDGE('',*,*,#545,.F.);
#695=ORIENTED_EDGE('',*,*,#546,.T.);
#696=ORIENTED_EDGE('',*,*,#547,.F.);
#697=ORIENTED_EDGE('',*,*,#542,.F.);
#698=ORIENTED_EDGE('',*,*,#548,.F.);
#699=ORIENTED_EDGE('',*,*,#549,.T.);
#700=ORIENTED_EDGE('',*,*,#550,.F.);
#701=ORIENTED_EDGE('',*,*,#546,.F.);
#702=ORIENTED_EDGE('',*,*,#551,.F.);
#703=ORIENTED_EDGE('',*,*,#544,.T.);
#704=ORIENTED_EDGE('',*,*,#552,.F.);
#705=ORIENTED_EDGE('',*,*,#549,.F.);
#706=ORIENTED_EDGE('',*,*,#553,.F.);
#707=ORIENTED_EDGE('',*,*,#554,.T.);
#708=ORIENTED_EDGE('',*,*,#555,.F.);
#709=ORIENTED_EDGE('',*,*,#556,.F.);
#710=ORIENTED_EDGE('',*,*,#557,.F.);
#711=ORIENTED_EDGE('',*,*,#558,.T.);
#712=ORIENTED_EDGE('',*,*,#559,.F.);
#713=ORIENTED_EDGE('',*,*,#554,.F.);
#714=ORIENTED_EDGE('',*,*,#560,.F.);
#715=ORIENTED_EDGE('',*,*,#561,.T.);
#716=ORIENTED_EDGE('',*,*,#562,.F.);
#717=ORIENTED_EDGE('',*,*,#558,.F.);
#718=ORIENTED_EDGE('',*,*,#563,.F.);
#719=ORIENTED_EDGE('',*,*,#556,.T.);
#720=ORIENTED_EDGE('',*,*,#564,.F.);
#721=ORIENTED_EDGE('',*,*,#561,.F.);
#722=ORIENTED_EDGE('',*,*,#565,.F.);
#723=ORIENTED_EDGE('',*,*,#566,.T.);
#724=ORIENTED_EDGE('',*,*,#567,.T.);
#725=ORIENTED_EDGE('',*,*,#568,.T.);
#726=ORIENTED_EDGE('',*,*,#569,.F.);
#727=ORIENTED_EDGE('',*,*,#570,.T.);
#728=ORIENTED_EDGE('',*,*,#571,.F.);
#729=ORIENTED_EDGE('',*,*,#572,.T.);
#730=ORIENTED_EDGE('',*,*,#573,.F.);
#731=ORIENTED_EDGE('',*,*,#574,.T.);
#732=ORIENTED_EDGE('',*,*,#575,.T.);
#733=ORIENTED_EDGE('',*,*,#553,.T.);
#734=ORIENTED_EDGE('',*,*,#563,.T.);
#735=ORIENTED_EDGE('',*,*,#560,.T.);
#736=ORIENTED_EDGE('',*,*,#557,.T.);
#737=ORIENTED_EDGE('',*,*,#541,.T.);
#738=ORIENTED_EDGE('',*,*,#551,.T.);
#739=ORIENTED_EDGE('',*,*,#548,.T.);
#740=ORIENTED_EDGE('',*,*,#545,.T.);
#741=ORIENTED_EDGE('',*,*,#575,.F.);
#742=ORIENTED_EDGE('',*,*,#576,.T.);
#743=ORIENTED_EDGE('',*,*,#577,.T.);
#744=ORIENTED_EDGE('',*,*,#576,.F.);
#745=ORIENTED_EDGE('',*,*,#578,.T.);
#746=ORIENTED_EDGE('',*,*,#579,.T.);
#747=ORIENTED_EDGE('',*,*,#580,.F.);
#748=ORIENTED_EDGE('',*,*,#581,.F.);
#749=ORIENTED_EDGE('',*,*,#582,.F.);
#750=ORIENTED_EDGE('',*,*,#583,.T.);
#751=ORIENTED_EDGE('',*,*,#584,.F.);
#752=ORIENTED_EDGE('',*,*,#585,.F.);
#753=ORIENTED_EDGE('',*,*,#582,.T.);
#754=ORIENTED_EDGE('',*,*,#586,.F.);
#755=ORIENTED_EDGE('',*,*,#578,.F.);
#756=ORIENTED_EDGE('',*,*,#587,.F.);
#757=ORIENTED_EDGE('',*,*,#588,.T.);
#758=ORIENTED_EDGE('',*,*,#589,.T.);
#759=ORIENTED_EDGE('',*,*,#590,.F.);
#760=ORIENTED_EDGE('',*,*,#591,.F.);
#761=ORIENTED_EDGE('',*,*,#592,.F.);
#762=ORIENTED_EDGE('',*,*,#593,.T.);
#763=ORIENTED_EDGE('',*,*,#594,.F.);
#764=ORIENTED_EDGE('',*,*,#595,.F.);
#765=ORIENTED_EDGE('',*,*,#592,.T.);
#766=ORIENTED_EDGE('',*,*,#596,.F.);
#767=ORIENTED_EDGE('',*,*,#588,.F.);
#768=ORIENTED_EDGE('',*,*,#597,.F.);
#769=ORIENTED_EDGE('',*,*,#598,.T.);
#770=ORIENTED_EDGE('',*,*,#599,.T.);
#771=ORIENTED_EDGE('',*,*,#600,.F.);
#772=ORIENTED_EDGE('',*,*,#601,.F.);
#773=ORIENTED_EDGE('',*,*,#602,.T.);
#774=ORIENTED_EDGE('',*,*,#603,.T.);
#775=ORIENTED_EDGE('',*,*,#604,.F.);
#776=ORIENTED_EDGE('',*,*,#605,.F.);
#777=ORIENTED_EDGE('',*,*,#606,.F.);
#778=ORIENTED_EDGE('',*,*,#607,.T.);
#779=ORIENTED_EDGE('',*,*,#608,.F.);
#780=ORIENTED_EDGE('',*,*,#603,.F.);
#781=ORIENTED_EDGE('',*,*,#606,.T.);
#782=ORIENTED_EDGE('',*,*,#602,.F.);
#783=ORIENTED_EDGE('',*,*,#598,.F.);
#784=ORIENTED_EDGE('',*,*,#609,.F.);
#785=ORIENTED_EDGE('',*,*,#610,.T.);
#786=ORIENTED_EDGE('',*,*,#611,.T.);
#787=ORIENTED_EDGE('',*,*,#612,.F.);
#788=ORIENTED_EDGE('',*,*,#613,.F.);
#789=ORIENTED_EDGE('',*,*,#614,.F.);
#790=ORIENTED_EDGE('',*,*,#615,.T.);
#791=ORIENTED_EDGE('',*,*,#616,.F.);
#792=ORIENTED_EDGE('',*,*,#617,.F.);
#793=ORIENTED_EDGE('',*,*,#618,.F.);
#794=ORIENTED_EDGE('',*,*,#614,.T.);
#795=ORIENTED_EDGE('',*,*,#619,.F.);
#796=ORIENTED_EDGE('',*,*,#610,.F.);
#797=ORIENTED_EDGE('',*,*,#618,.T.);
#798=ORIENTED_EDGE('',*,*,#620,.F.);
#799=ORIENTED_EDGE('',*,*,#573,.T.);
#800=ORIENTED_EDGE('',*,*,#621,.T.);
#801=ORIENTED_EDGE('',*,*,#600,.T.);
#802=ORIENTED_EDGE('',*,*,#622,.T.);
#803=ORIENTED_EDGE('',*,*,#616,.T.);
#804=ORIENTED_EDGE('',*,*,#623,.T.);
#805=ORIENTED_EDGE('',*,*,#594,.T.);
#806=ORIENTED_EDGE('',*,*,#624,.T.);
#807=ORIENTED_EDGE('',*,*,#612,.T.);
#808=ORIENTED_EDGE('',*,*,#625,.T.);
#809=ORIENTED_EDGE('',*,*,#580,.T.);
#810=ORIENTED_EDGE('',*,*,#626,.T.);
#811=ORIENTED_EDGE('',*,*,#627,.T.);
#812=ORIENTED_EDGE('',*,*,#604,.T.);
#813=ORIENTED_EDGE('',*,*,#608,.T.);
#814=ORIENTED_EDGE('',*,*,#628,.T.);
#815=ORIENTED_EDGE('',*,*,#584,.T.);
#816=ORIENTED_EDGE('',*,*,#629,.T.);
#817=ORIENTED_EDGE('',*,*,#590,.T.);
#818=ORIENTED_EDGE('',*,*,#630,.T.);
#819=ORIENTED_EDGE('',*,*,#631,.T.);
#820=ORIENTED_EDGE('',*,*,#632,.T.);
#821=ORIENTED_EDGE('',*,*,#577,.F.);
#822=ORIENTED_EDGE('',*,*,#632,.F.);
#823=ORIENTED_EDGE('',*,*,#633,.T.);
#824=ORIENTED_EDGE('',*,*,#634,.T.);
#825=ORIENTED_EDGE('',*,*,#631,.F.);
#826=ORIENTED_EDGE('',*,*,#634,.F.);
#827=ORIENTED_EDGE('',*,*,#635,.T.);
#828=ORIENTED_EDGE('',*,*,#636,.T.);
#829=ORIENTED_EDGE('',*,*,#637,.T.);
#830=ORIENTED_EDGE('',*,*,#567,.F.);
#831=ORIENTED_EDGE('',*,*,#636,.F.);
#832=ORIENTED_EDGE('',*,*,#638,.T.);
#833=ORIENTED_EDGE('',*,*,#639,.T.);
#834=ORIENTED_EDGE('',*,*,#640,.T.);
#835=ORIENTED_EDGE('',*,*,#641,.T.);
#836=ORIENTED_EDGE('',*,*,#642,.T.);
#837=ORIENTED_EDGE('',*,*,#643,.T.);
#838=ORIENTED_EDGE('',*,*,#644,.T.);
#839=ORIENTED_EDGE('',*,*,#645,.T.);
#840=ORIENTED_EDGE('',*,*,#646,.T.);
#841=ORIENTED_EDGE('',*,*,#543,.T.);
#842=ORIENTED_EDGE('',*,*,#547,.T.);
#843=ORIENTED_EDGE('',*,*,#550,.T.);
#844=ORIENTED_EDGE('',*,*,#552,.T.);
#845=ORIENTED_EDGE('',*,*,#555,.T.);
#846=ORIENTED_EDGE('',*,*,#559,.T.);
#847=ORIENTED_EDGE('',*,*,#562,.T.);
#848=ORIENTED_EDGE('',*,*,#564,.T.);
#849=ORIENTED_EDGE('',*,*,#647,.T.);
#850=ORIENTED_EDGE('',*,*,#648,.T.);
#851=ORIENTED_EDGE('',*,*,#649,.F.);
#852=ORIENTED_EDGE('',*,*,#635,.F.);
#853=ORIENTED_EDGE('',*,*,#650,.T.);
#854=ORIENTED_EDGE('',*,*,#651,.T.);
#855=ORIENTED_EDGE('',*,*,#652,.T.);
#856=ORIENTED_EDGE('',*,*,#637,.F.);
#857=ORIENTED_EDGE('',*,*,#653,.F.);
#858=ORIENTED_EDGE('',*,*,#654,.T.);
#859=ORIENTED_EDGE('',*,*,#655,.T.);
#860=ORIENTED_EDGE('',*,*,#654,.F.);
#861=ORIENTED_EDGE('',*,*,#656,.F.);
#862=ORIENTED_EDGE('',*,*,#651,.F.);
#863=ORIENTED_EDGE('',*,*,#649,.T.);
#864=ORIENTED_EDGE('',*,*,#656,.T.);
#865=ORIENTED_EDGE('',*,*,#653,.T.);
#866=ORIENTED_EDGE('',*,*,#646,.F.);
#867=ORIENTED_EDGE('',*,*,#657,.T.);
#868=ORIENTED_EDGE('',*,*,#585,.T.);
#869=ORIENTED_EDGE('',*,*,#630,.F.);
#870=ORIENTED_EDGE('',*,*,#589,.F.);
#871=ORIENTED_EDGE('',*,*,#658,.F.);
#872=ORIENTED_EDGE('',*,*,#638,.F.);
#873=ORIENTED_EDGE('',*,*,#659,.F.);
#874=ORIENTED_EDGE('',*,*,#660,.T.);
#875=ORIENTED_EDGE('',*,*,#661,.F.);
#876=ORIENTED_EDGE('',*,*,#662,.T.);
#877=ORIENTED_EDGE('',*,*,#663,.F.);
#878=ORIENTED_EDGE('',*,*,#664,.F.);
#879=ORIENTED_EDGE('',*,*,#665,.T.);
#880=ORIENTED_EDGE('',*,*,#666,.T.);
#881=ORIENTED_EDGE('',*,*,#665,.F.);
#882=ORIENTED_EDGE('',*,*,#667,.F.);
#883=ORIENTED_EDGE('',*,*,#668,.T.);
#884=ORIENTED_EDGE('',*,*,#663,.T.);
#885=ORIENTED_EDGE('',*,*,#668,.F.);
#886=ORIENTED_EDGE('',*,*,#667,.T.);
#887=ORIENTED_EDGE('',*,*,#664,.T.);
#888=ORIENTED_EDGE('',*,*,#633,.F.);
#889=ORIENTED_EDGE('',*,*,#666,.F.);
#890=ORIENTED_EDGE('',*,*,#662,.F.);
#891=ORIENTED_EDGE('',*,*,#669,.T.);
#892=ORIENTED_EDGE('',*,*,#647,.F.);
#893=ORIENTED_EDGE('',*,*,#669,.F.);
#894=ORIENTED_EDGE('',*,*,#670,.T.);
#895=ORIENTED_EDGE('',*,*,#671,.T.);
#896=ORIENTED_EDGE('',*,*,#672,.F.);
#897=ORIENTED_EDGE('',*,*,#673,.T.);
#898=ORIENTED_EDGE('',*,*,#671,.F.);
#899=ORIENTED_EDGE('',*,*,#673,.F.);
#900=ORIENTED_EDGE('',*,*,#674,.F.);
#901=ORIENTED_EDGE('',*,*,#675,.T.);
#902=ORIENTED_EDGE('',*,*,#661,.T.);
#903=ORIENTED_EDGE('',*,*,#675,.F.);
#904=ORIENTED_EDGE('',*,*,#674,.T.);
#905=ORIENTED_EDGE('',*,*,#672,.T.);
#906=ORIENTED_EDGE('',*,*,#660,.F.);
#907=ORIENTED_EDGE('',*,*,#676,.T.);
#908=ORIENTED_EDGE('',*,*,#648,.F.);
#909=ORIENTED_EDGE('',*,*,#676,.F.);
#910=ORIENTED_EDGE('',*,*,#670,.F.);
#911=ORIENTED_EDGE('',*,*,#677,.T.);
#912=ORIENTED_EDGE('',*,*,#659,.T.);
#913=ORIENTED_EDGE('',*,*,#677,.F.);
#914=ORIENTED_EDGE('',*,*,#619,.T.);
#915=ORIENTED_EDGE('',*,*,#678,.F.);
#916=ORIENTED_EDGE('',*,*,#641,.F.);
#917=ORIENTED_EDGE('',*,*,#679,.T.);
#918=ORIENTED_EDGE('',*,*,#640,.F.);
#919=ORIENTED_EDGE('',*,*,#680,.T.);
#920=ORIENTED_EDGE('',*,*,#595,.T.);
#921=ORIENTED_EDGE('',*,*,#625,.F.);
#922=ORIENTED_EDGE('',*,*,#611,.F.);
#923=ORIENTED_EDGE('',*,*,#679,.F.);
#924=ORIENTED_EDGE('',*,*,#596,.T.);
#925=ORIENTED_EDGE('',*,*,#680,.F.);
#926=ORIENTED_EDGE('',*,*,#639,.F.);
#927=ORIENTED_EDGE('',*,*,#658,.T.);
#928=ORIENTED_EDGE('',*,*,#642,.F.);
#929=ORIENTED_EDGE('',*,*,#678,.T.);
#930=ORIENTED_EDGE('',*,*,#617,.T.);
#931=ORIENTED_EDGE('',*,*,#622,.F.);
#932=ORIENTED_EDGE('',*,*,#599,.F.);
#933=ORIENTED_EDGE('',*,*,#681,.F.);
#934=ORIENTED_EDGE('',*,*,#643,.F.);
#935=ORIENTED_EDGE('',*,*,#681,.T.);
#936=ORIENTED_EDGE('',*,*,#605,.T.);
#937=ORIENTED_EDGE('',*,*,#627,.F.);
#938=ORIENTED_EDGE('',*,*,#682,.F.);
#939=ORIENTED_EDGE('',*,*,#644,.F.);
#940=ORIENTED_EDGE('',*,*,#682,.T.);
#941=ORIENTED_EDGE('',*,*,#626,.F.);
#942=ORIENTED_EDGE('',*,*,#579,.F.);
#943=ORIENTED_EDGE('',*,*,#683,.F.);
#944=ORIENTED_EDGE('',*,*,#586,.T.);
#945=ORIENTED_EDGE('',*,*,#657,.F.);
#946=ORIENTED_EDGE('',*,*,#645,.F.);
#947=ORIENTED_EDGE('',*,*,#683,.T.);
#948=ORIENTED_EDGE('',*,*,#652,.F.);
#949=ORIENTED_EDGE('',*,*,#655,.F.);
#950=ORIENTED_EDGE('',*,*,#650,.F.);
#951=ORIENTED_EDGE('',*,*,#566,.F.);
#952=ORIENTED_EDGE('',*,*,#684,.T.);
#953=ORIENTED_EDGE('',*,*,#591,.T.);
#954=ORIENTED_EDGE('',*,*,#629,.F.);
#955=ORIENTED_EDGE('',*,*,#583,.F.);
#956=ORIENTED_EDGE('',*,*,#685,.F.);
#957=ORIENTED_EDGE('',*,*,#568,.F.);
#958=ORIENTED_EDGE('',*,*,#587,.T.);
#959=ORIENTED_EDGE('',*,*,#686,.F.);
#960=ORIENTED_EDGE('',*,*,#569,.T.);
#961=ORIENTED_EDGE('',*,*,#685,.T.);
#962=ORIENTED_EDGE('',*,*,#570,.F.);
#963=ORIENTED_EDGE('',*,*,#686,.T.);
#964=ORIENTED_EDGE('',*,*,#581,.T.);
#965=ORIENTED_EDGE('',*,*,#628,.F.);
#966=ORIENTED_EDGE('',*,*,#607,.F.);
#967=ORIENTED_EDGE('',*,*,#687,.F.);
#968=ORIENTED_EDGE('',*,*,#609,.T.);
#969=ORIENTED_EDGE('',*,*,#688,.F.);
#970=ORIENTED_EDGE('',*,*,#571,.T.);
#971=ORIENTED_EDGE('',*,*,#687,.T.);
#972=ORIENTED_EDGE('',*,*,#572,.F.);
#973=ORIENTED_EDGE('',*,*,#688,.T.);
#974=ORIENTED_EDGE('',*,*,#601,.T.);
#975=ORIENTED_EDGE('',*,*,#623,.F.);
#976=ORIENTED_EDGE('',*,*,#615,.F.);
#977=ORIENTED_EDGE('',*,*,#621,.F.);
#978=ORIENTED_EDGE('',*,*,#574,.F.);
#979=ORIENTED_EDGE('',*,*,#620,.T.);
#980=ORIENTED_EDGE('',*,*,#613,.T.);
#981=ORIENTED_EDGE('',*,*,#624,.F.);
#982=ORIENTED_EDGE('',*,*,#593,.F.);
#983=ORIENTED_EDGE('',*,*,#689,.F.);
#984=ORIENTED_EDGE('',*,*,#597,.T.);
#985=ORIENTED_EDGE('',*,*,#684,.F.);
#986=ORIENTED_EDGE('',*,*,#565,.T.);
#987=ORIENTED_EDGE('',*,*,#689,.T.);
#988=PLANE('',#1111);
#989=PLANE('',#1112);
#990=PLANE('',#1113);
#991=PLANE('',#1114);
#992=PLANE('',#1115);
#993=PLANE('',#1116);
#994=PLANE('',#1117);
#995=PLANE('',#1118);
#996=PLANE('',#1119);
#997=PLANE('',#1127);
#998=PLANE('',#1128);
#999=PLANE('',#1129);
#1000=PLANE('',#1132);
#1001=PLANE('',#1133);
#1002=PLANE('',#1134);
#1003=PLANE('',#1137);
#1004=PLANE('',#1141);
#1005=PLANE('',#1142);
#1006=PLANE('',#1144);
#1007=PLANE('',#1145);
#1008=PLANE('',#1146);
#1009=PLANE('',#1150);
#1010=PLANE('',#1151);
#1011=PLANE('',#1152);
#1012=PLANE('',#1154);
#1013=PLANE('',#1159);
#1014=PLANE('',#1160);
#1015=PLANE('',#1167);
#1016=PLANE('',#1168);
#1017=PLANE('',#1169);
#1018=PLANE('',#1170);
#1019=PLANE('',#1171);
#1020=PLANE('',#1173);
#1021=PLANE('',#1176);
#1022=PLANE('',#1184);
#1023=PLANE('',#1185);
#1024=PLANE('',#1187);
#1025=PLANE('',#1194);
#1026=PLANE('',#1198);
#1027=PLANE('',#1200);
#1028=PLANE('',#1202);
#1029=PLANE('',#1204);
#1030=PLANE('',#1206);
#1031=PLANE('',#1208);
#1032=PLANE('',#1209);
#1033=ADVANCED_FACE('',(#83),#988,.F.);
#1034=ADVANCED_FACE('',(#84),#989,.F.);
#1035=ADVANCED_FACE('',(#85),#990,.F.);
#1036=ADVANCED_FACE('',(#86),#991,.F.);
#1037=ADVANCED_FACE('',(#87),#992,.F.);
#1038=ADVANCED_FACE('',(#88),#993,.F.);
#1039=ADVANCED_FACE('',(#89),#994,.F.);
#1040=ADVANCED_FACE('',(#90),#995,.F.);
#1041=ADVANCED_FACE('',(#91,#34,#35,#36),#996,.F.);
#1042=ADVANCED_FACE('',(#92),#16,.F.);
#1043=ADVANCED_FACE('',(#93),#997,.F.);
#1044=ADVANCED_FACE('',(#94),#998,.F.);
#1045=ADVANCED_FACE('',(#95),#999,.T.);
#1046=ADVANCED_FACE('',(#96),#1000,.F.);
#1047=ADVANCED_FACE('',(#97),#1001,.F.);
#1048=ADVANCED_FACE('',(#98),#1002,.T.);
#1049=ADVANCED_FACE('',(#99),#1003,.F.);
#1050=ADVANCED_FACE('',(#100),#17,.T.);
#1051=ADVANCED_FACE('',(#101),#1004,.F.);
#1052=ADVANCED_FACE('',(#102),#1005,.T.);
#1053=ADVANCED_FACE('',(#103),#1006,.F.);
#1054=ADVANCED_FACE('',(#104),#1007,.F.);
#1055=ADVANCED_FACE('',(#105),#1008,.T.);
#1056=ADVANCED_FACE('',(#106),#18,.T.);
#1057=ADVANCED_FACE('',(#107),#1009,.T.);
#1058=ADVANCED_FACE('',(#108),#1010,.T.);
#1059=ADVANCED_FACE('',(#109),#1011,.T.);
#1060=ADVANCED_FACE('',(#110),#1012,.T.);
#1061=ADVANCED_FACE('',(#111),#15,.F.);
#1062=ADVANCED_FACE('',(#112),#19,.F.);
#1063=ADVANCED_FACE('',(#113),#1013,.T.);
#1064=ADVANCED_FACE('',(#114,#37,#38,#39,#40),#1014,.T.);
#1065=ADVANCED_FACE('',(#115),#1015,.T.);
#1066=ADVANCED_FACE('',(#116),#1016,.T.);
#1067=ADVANCED_FACE('',(#117),#1017,.T.);
#1068=ADVANCED_FACE('',(#118),#1018,.T.);
#1069=ADVANCED_FACE('',(#119),#1019,.T.);
#1070=ADVANCED_FACE('',(#120,#41),#1020,.T.);
#1071=ADVANCED_FACE('',(#121,#42),#1021,.T.);
#1072=ADVANCED_FACE('',(#122),#20,.F.);
#1073=ADVANCED_FACE('',(#123),#21,.T.);
#1074=ADVANCED_FACE('',(#124,#43),#1022,.T.);
#1075=ADVANCED_FACE('',(#125,#44),#1023,.F.);
#1076=ADVANCED_FACE('',(#126),#22,.T.);
#1077=ADVANCED_FACE('',(#127,#45),#1024,.F.);
#1078=ADVANCED_FACE('',(#128),#23,.F.);
#1079=ADVANCED_FACE('',(#129),#24,.T.);
#1080=ADVANCED_FACE('',(#130,#46),#1025,.T.);
#1081=ADVANCED_FACE('',(#131),#25,.T.);
#1082=ADVANCED_FACE('',(#132),#26,.F.);
#1083=ADVANCED_FACE('',(#133),#27,.F.);
#1084=ADVANCED_FACE('',(#134),#1026,.T.);
#1085=ADVANCED_FACE('',(#135),#28,.F.);
#1086=ADVANCED_FACE('',(#136),#1027,.T.);
#1087=ADVANCED_FACE('',(#137),#29,.F.);
#1088=ADVANCED_FACE('',(#138),#1028,.T.);
#1089=ADVANCED_FACE('',(#139),#30,.F.);
#1090=ADVANCED_FACE('',(#140),#1029,.T.);
#1091=ADVANCED_FACE('',(#141),#31,.T.);
#1092=ADVANCED_FACE('',(#142),#1030,.T.);
#1093=ADVANCED_FACE('',(#143),#32,.T.);
#1094=ADVANCED_FACE('',(#144),#1031,.T.);
#1095=ADVANCED_FACE('',(#145),#1032,.T.);
#1096=ADVANCED_FACE('',(#146),#33,.T.);
#1097=CLOSED_SHELL('',(#1033,#1034,#1035,#1036,#1037,#1038,#1039,#1040,
#1041,#1042,#1043,#1044,#1045,#1046,#1047,#1048,#1049,#1050,#1051,#1052,
#1053,#1054,#1055,#1056,#1057,#1058,#1059,#1060,#1061,#1062,#1063,#1064,
#1065,#1066,#1067,#1068,#1069,#1070,#1071,#1072,#1073,#1074,#1075,#1076,
#1077,#1078,#1079,#1080,#1081,#1082,#1083,#1084,#1085,#1086,#1087,#1088,
#1089,#1090,#1091,#1092,#1093,#1094,#1095,#1096));
#1098=DERIVED_UNIT_ELEMENT(#1100,1.);
#1099=DERIVED_UNIT_ELEMENT(#1836,-3.);
#1100=(
MASS_UNIT()
NAMED_UNIT(*)
SI_UNIT(.KILO.,.GRAM.)
);
#1101=DERIVED_UNIT((#1098,#1099));
#1102=MEASURE_REPRESENTATION_ITEM('density measure',
POSITIVE_RATIO_MEASURE(7850.),#1101);
#1103=PROPERTY_DEFINITION_REPRESENTATION(#1108,#1105);
#1104=PROPERTY_DEFINITION_REPRESENTATION(#1109,#1106);
#1105=REPRESENTATION('material name',(#1107),#1833);
#1106=REPRESENTATION('density',(#1102),#1833);
#1107=DESCRIPTIVE_REPRESENTATION_ITEM('Steel','Steel');
#1108=PROPERTY_DEFINITION('material property','material name',#1843);
#1109=PROPERTY_DEFINITION('material property','density of part',#1843);
#1110=AXIS2_PLACEMENT_3D('',#1526,#1211,#1212);
#1111=AXIS2_PLACEMENT_3D('',#1527,#1213,#1214);
#1112=AXIS2_PLACEMENT_3D('',#1536,#1219,#1220);
#1113=AXIS2_PLACEMENT_3D('',#1542,#1224,#1225);
#1114=AXIS2_PLACEMENT_3D('',#1548,#1229,#1230);
#1115=AXIS2_PLACEMENT_3D('',#1551,#1233,#1234);
#1116=AXIS2_PLACEMENT_3D('',#1560,#1239,#1240);
#1117=AXIS2_PLACEMENT_3D('',#1566,#1244,#1245);
#1118=AXIS2_PLACEMENT_3D('',#1572,#1249,#1250);
#1119=AXIS2_PLACEMENT_3D('',#1575,#1253,#1254);
#1120=AXIS2_PLACEMENT_3D('',#1578,#1255,#1256);
#1121=AXIS2_PLACEMENT_3D('',#1586,#1260,#1261);
#1122=AXIS2_PLACEMENT_3D('',#1590,#1263,#1264);
#1123=AXIS2_PLACEMENT_3D('',#1594,#1266,#1267);
#1124=AXIS2_PLACEMENT_3D('',#1597,#1269,#1270);
#1125=AXIS2_PLACEMENT_3D('',#1598,#1271,#1272);
#1126=AXIS2_PLACEMENT_3D('',#1601,#1274,#1275);
#1127=AXIS2_PLACEMENT_3D('',#1602,#1276,#1277);
#1128=AXIS2_PLACEMENT_3D('',#1611,#1282,#1283);
#1129=AXIS2_PLACEMENT_3D('',#1620,#1288,#1289);
#1130=AXIS2_PLACEMENT_3D('',#1621,#1290,#1291);
#1131=AXIS2_PLACEMENT_3D('',#1622,#1292,#1293);
#1132=AXIS2_PLACEMENT_3D('',#1623,#1294,#1295);
#1133=AXIS2_PLACEMENT_3D('',#1632,#1300,#1301);
#1134=AXIS2_PLACEMENT_3D('',#1641,#1306,#1307);
#1135=AXIS2_PLACEMENT_3D('',#1642,#1308,#1309);
#1136=AXIS2_PLACEMENT_3D('',#1643,#1310,#1311);
#1137=AXIS2_PLACEMENT_3D('',#1644,#1312,#1313);
#1138=AXIS2_PLACEMENT_3D('',#1653,#1318,#1319);
#1139=AXIS2_PLACEMENT_3D('',#1655,#1320,#1321);
#1140=AXIS2_PLACEMENT_3D('',#1658,#1323,#1324);
#1141=AXIS2_PLACEMENT_3D('',#1660,#1326,#1327);
#1142=AXIS2_PLACEMENT_3D('',#1666,#1331,#1332);
#1143=AXIS2_PLACEMENT_3D('',#1667,#1333,#1334);
#1144=AXIS2_PLACEMENT_3D('',#1668,#1335,#1336);
#1145=AXIS2_PLACEMENT_3D('',#1677,#1341,#1342);
#1146=AXIS2_PLACEMENT_3D('',#1686,#1347,#1348);
#1147=AXIS2_PLACEMENT_3D('',#1687,#1349,#1350);
#1148=AXIS2_PLACEMENT_3D('',#1688,#1351,#1352);
#1149=AXIS2_PLACEMENT_3D('',#1689,#1353,#1354);
#1150=AXIS2_PLACEMENT_3D('',#1692,#1357,#1358);
#1151=AXIS2_PLACEMENT_3D('',#1695,#1361,#1362);
#1152=AXIS2_PLACEMENT_3D('',#1698,#1365,#1366);
#1153=AXIS2_PLACEMENT_3D('',#1701,#1368,#1369);
#1154=AXIS2_PLACEMENT_3D('',#1703,#1371,#1372);
#1155=AXIS2_PLACEMENT_3D('',#1706,#1375,#1376);
#1156=AXIS2_PLACEMENT_3D('',#1708,#1377,#1378);
#1157=AXIS2_PLACEMENT_3D('',#1710,#1380,#1381);
#1158=AXIS2_PLACEMENT_3D('',#1712,#1382,#1383);
#1159=AXIS2_PLACEMENT_3D('',#1714,#1385,#1386);
#1160=AXIS2_PLACEMENT_3D('',#1720,#1390,#1391);
#1161=AXIS2_PLACEMENT_3D('',#1724,#1393,#1394);
#1162=AXIS2_PLACEMENT_3D('',#1728,#1396,#1397);
#1163=AXIS2_PLACEMENT_3D('',#1732,#1399,#1400);
#1164=AXIS2_PLACEMENT_3D('',#1736,#1402,#1403);
#1165=AXIS2_PLACEMENT_3D('',#1739,#1405,#1406);
#1166=AXIS2_PLACEMENT_3D('',#1741,#1407,#1408);
#1167=AXIS2_PLACEMENT_3D('',#1742,#1409,#1410);
#1168=AXIS2_PLACEMENT_3D('',#1748,#1414,#1415);
#1169=AXIS2_PLACEMENT_3D('',#1754,#1419,#1420);
#1170=AXIS2_PLACEMENT_3D('',#1757,#1423,#1424);
#1171=AXIS2_PLACEMENT_3D('',#1760,#1427,#1428);
#1172=AXIS2_PLACEMENT_3D('',#1762,#1429,#1430);
#1173=AXIS2_PLACEMENT_3D('',#1763,#1431,#1432);
#1174=AXIS2_PLACEMENT_3D('',#1765,#1433,#1434);
#1175=AXIS2_PLACEMENT_3D('',#1767,#1435,#1436);
#1176=AXIS2_PLACEMENT_3D('',#1768,#1437,#1438);
#1177=AXIS2_PLACEMENT_3D('',#1770,#1439,#1440);
#1178=AXIS2_PLACEMENT_3D('',#1772,#1441,#1442);
#1179=AXIS2_PLACEMENT_3D('',#1773,#1443,#1444);
#1180=AXIS2_PLACEMENT_3D('',#1775,#1445,#1446);
#1181=AXIS2_PLACEMENT_3D('',#1778,#1448,#1449);
#1182=AXIS2_PLACEMENT_3D('',#1779,#1450,#1451);
#1183=AXIS2_PLACEMENT_3D('',#1781,#1452,#1453);
#1184=AXIS2_PLACEMENT_3D('',#1783,#1455,#1456);
#1185=AXIS2_PLACEMENT_3D('',#1784,#1457,#1458);
#1186=AXIS2_PLACEMENT_3D('',#1785,#1459,#1460);
#1187=AXIS2_PLACEMENT_3D('',#1787,#1462,#1463);
#1188=AXIS2_PLACEMENT_3D('',#1789,#1464,#1465);
#1189=AXIS2_PLACEMENT_3D('',#1791,#1466,#1467);
#1190=AXIS2_PLACEMENT_3D('',#1792,#1468,#1469);
#1191=AXIS2_PLACEMENT_3D('',#1794,#1470,#1471);
#1192=AXIS2_PLACEMENT_3D('',#1796,#1473,#1474);
#1193=AXIS2_PLACEMENT_3D('',#1798,#1475,#1476);
#1194=AXIS2_PLACEMENT_3D('',#1800,#1478,#1479);
#1195=AXIS2_PLACEMENT_3D('',#1801,#1480,#1481);
#1196=AXIS2_PLACEMENT_3D('',#1803,#1483,#1484);
#1197=AXIS2_PLACEMENT_3D('',#1805,#1486,#1487);
#1198=AXIS2_PLACEMENT_3D('',#1808,#1490,#1491);
#1199=AXIS2_PLACEMENT_3D('',#1810,#1493,#1494);
#1200=AXIS2_PLACEMENT_3D('',#1811,#1495,#1496);
#1201=AXIS2_PLACEMENT_3D('',#1813,#1498,#1499);
#1202=AXIS2_PLACEMENT_3D('',#1815,#1501,#1502);
#1203=AXIS2_PLACEMENT_3D('',#1817,#1504,#1505);
#1204=AXIS2_PLACEMENT_3D('',#1818,#1506,#1507);
#1205=AXIS2_PLACEMENT_3D('',#1821,#1510,#1511);
#1206=AXIS2_PLACEMENT_3D('',#1823,#1513,#1514);
#1207=AXIS2_PLACEMENT_3D('',#1825,#1516,#1517);
#1208=AXIS2_PLACEMENT_3D('',#1827,#1519,#1520);
#1209=AXIS2_PLACEMENT_3D('',#1828,#1521,#1522);
#1210=AXIS2_PLACEMENT_3D('',#1830,#1524,#1525);
#1211=DIRECTION('axis',(0.,0.,1.));
#1212=DIRECTION('refdir',(1.,0.,0.));
#1213=DIRECTION('center_axis',(1.,0.,0.));
#1214=DIRECTION('ref_axis',(0.,0.,-1.));
#1215=DIRECTION('',(0.,0.,-1.));
#1216=DIRECTION('',(0.,1.,0.));
#1217=DIRECTION('',(0.,0.,1.));
#1218=DIRECTION('',(0.,1.,0.));
#1219=DIRECTION('center_axis',(0.,0.,1.));
#1220=DIRECTION('ref_axis',(1.,0.,0.));
#1221=DIRECTION('',(1.,0.,0.));
#1222=DIRECTION('',(0.,1.,0.));
#1223=DIRECTION('',(-1.,0.,0.));
#1224=DIRECTION('center_axis',(-1.,0.,0.));
#1225=DIRECTION('ref_axis',(0.,0.,1.));
#1226=DIRECTION('',(0.,0.,1.));
#1227=DIRECTION('',(0.,1.,0.));
#1228=DIRECTION('',(0.,0.,-1.));
#1229=DIRECTION('center_axis',(0.,0.,-1.));
#1230=DIRECTION('ref_axis',(-1.,0.,0.));
#1231=DIRECTION('',(-1.,0.,0.));
#1232=DIRECTION('',(1.,0.,0.));
#1233=DIRECTION('center_axis',(0.,0.,1.));
#1234=DIRECTION('ref_axis',(1.,0.,0.));
#1235=DIRECTION('',(1.,0.,0.));
#1236=DIRECTION('',(0.,1.,0.));
#1237=DIRECTION('',(-1.,0.,0.));
#1238=DIRECTION('',(0.,1.,0.));
#1239=DIRECTION('center_axis',(-1.,0.,0.));
#1240=DIRECTION('ref_axis',(0.,0.,1.));
#1241=DIRECTION('',(0.,0.,1.));
#1242=DIRECTION('',(0.,1.,0.));
#1243=DIRECTION('',(0.,0.,-1.));
#1244=DIRECTION('center_axis',(0.,0.,-1.));
#1245=DIRECTION('ref_axis',(-1.,0.,0.));
#1246=DIRECTION('',(-1.,0.,0.));
#1247=DIRECTION('',(0.,1.,0.));
#1248=DIRECTION('',(1.,0.,0.));
#1249=DIRECTION('center_axis',(1.,0.,0.));
#1250=DIRECTION('ref_axis',(0.,0.,-1.));
#1251=DIRECTION('',(0.,0.,-1.));
#1252=DIRECTION('',(0.,0.,1.));
#1253=DIRECTION('center_axis',(0.,1.,0.));
#1254=DIRECTION('ref_axis',(1.,0.,0.));
#1255=DIRECTION('center_axis',(0.,1.,0.));
#1256=DIRECTION('ref_axis',(1.,0.,0.));
#1257=DIRECTION('',(7.01193489236941E-16,0.,1.));
#1258=DIRECTION('',(7.01193489236941E-16,0.,1.));
#1259=DIRECTION('',(7.01193489236941E-16,0.,1.));
#1260=DIRECTION('center_axis',(0.,1.,0.));
#1261=DIRECTION('ref_axis',(0.,0.,1.));
#1262=DIRECTION('',(-1.,0.,5.8819762894048E-16));
#1263=DIRECTION('center_axis',(0.,1.,0.));
#1264=DIRECTION('ref_axis',(-1.,0.,0.));
#1265=DIRECTION('',(-4.67462326157961E-16,0.,-1.));
#1266=DIRECTION('center_axis',(0.,1.,0.));
#1267=DIRECTION('ref_axis',(0.,0.,-1.));
#1268=DIRECTION('',(1.,0.,-4.64124691585848E-16));
#1269=DIRECTION('center_axis',(0.,1.,0.));
#1270=DIRECTION('ref_axis',(1.,0.,0.));
#1271=DIRECTION('center_axis',(0.,1.,0.));
#1272=DIRECTION('ref_axis',(1.,0.,0.));
#1273=DIRECTION('',(0.,1.,0.));
#1274=DIRECTION('center_axis',(0.,1.,0.));
#1275=DIRECTION('ref_axis',(1.,0.,0.));
#1276=DIRECTION('center_axis',(-1.,0.,0.));
#1277=DIRECTION('ref_axis',(0.,0.,1.));
#1278=DIRECTION('',(0.,0.,-1.));
#1279=DIRECTION('',(0.,1.,0.));
#1280=DIRECTION('',(0.,0.,-1.));
#1281=DIRECTION('',(0.,1.,0.));
#1282=DIRECTION('center_axis',(0.,0.,-1.));
#1283=DIRECTION('ref_axis',(-1.,0.,0.));
#1284=DIRECTION('',(-1.,0.,0.));
#1285=DIRECTION('',(0.,1.,0.));
#1286=DIRECTION('',(1.,0.,0.));
#1287=DIRECTION('',(0.,1.,0.));
#1288=DIRECTION('center_axis',(0.,1.,0.));
#1289=DIRECTION('ref_axis',(-1.,0.,0.));
#1290=DIRECTION('center_axis',(0.,1.,0.));
#1291=DIRECTION('ref_axis',(-1.11022302462516E-15,0.,1.));
#1292=DIRECTION('center_axis',(0.,-1.,0.));
#1293=DIRECTION('ref_axis',(0.,0.,1.));
#1294=DIRECTION('center_axis',(0.,0.,1.));
#1295=DIRECTION('ref_axis',(1.,0.,0.));
#1296=DIRECTION('',(-1.,0.,0.));
#1297=DIRECTION('',(0.,1.,0.));
#1298=DIRECTION('',(-1.,0.,0.));
#1299=DIRECTION('',(0.,1.,0.));
#1300=DIRECTION('center_axis',(-1.,0.,0.));
#1301=DIRECTION('ref_axis',(0.,0.,1.));
#1302=DIRECTION('',(0.,0.,1.));
#1303=DIRECTION('',(0.,1.,0.));
#1304=DIRECTION('',(0.,0.,-1.));
#1305=DIRECTION('',(0.,1.,0.));
#1306=DIRECTION('center_axis',(0.,1.,0.));
#1307=DIRECTION('ref_axis',(-1.,0.,0.));
#1308=DIRECTION('center_axis',(0.,1.,0.));
#1309=DIRECTION('ref_axis',(1.,0.,1.66533453693774E-15));
#1310=DIRECTION('center_axis',(0.,-1.,0.));
#1311=DIRECTION('ref_axis',(1.,0.,0.));
#1312=DIRECTION('center_axis',(0.,0.,-1.));
#1313=DIRECTION('ref_axis',(-1.,0.,0.));
#1314=DIRECTION('',(1.,0.,0.));
#1315=DIRECTION('',(0.,1.,0.));
#1316=DIRECTION('',(1.,0.,0.));
#1317=DIRECTION('',(0.,1.,0.));
#1318=DIRECTION('center_axis',(0.,1.,0.));
#1319=DIRECTION('ref_axis',(-1.,0.,2.66453525910034E-14));
#1320=DIRECTION('center_axis',(0.,1.,0.));
#1321=DIRECTION('ref_axis',(-1.,0.,2.66453525910034E-14));
#1322=DIRECTION('',(0.,1.,0.));
#1323=DIRECTION('center_axis',(0.,1.,0.));
#1324=DIRECTION('ref_axis',(-1.,0.,2.66453525910034E-14));
#1325=DIRECTION('',(0.,1.,0.));
#1326=DIRECTION('center_axis',(1.,0.,0.));
#1327=DIRECTION('ref_axis',(0.,0.,-1.));
#1328=DIRECTION('',(0.,0.,-1.));
#1329=DIRECTION('',(0.,1.,0.));
#1330=DIRECTION('',(0.,0.,1.));
#1331=DIRECTION('center_axis',(0.,1.,0.));
#1332=DIRECTION('ref_axis',(-1.,0.,0.));
#1333=DIRECTION('center_axis',(0.,-1.,0.));
#1334=DIRECTION('ref_axis',(-1.,0.,0.));
#1335=DIRECTION('center_axis',(1.,0.,0.));
#1336=DIRECTION('ref_axis',(0.,0.,-1.));
#1337=DIRECTION('',(0.,0.,1.));
#1338=DIRECTION('',(0.,1.,0.));
#1339=DIRECTION('',(0.,0.,1.));
#1340=DIRECTION('',(0.,1.,0.));
#1341=DIRECTION('center_axis',(-2.77555756156289E-16,0.,1.));
#1342=DIRECTION('ref_axis',(1.,0.,2.77555756156289E-16));
#1343=DIRECTION('',(1.,0.,2.77555756156289E-16));
#1344=DIRECTION('',(0.,1.,0.));
#1345=DIRECTION('',(-1.,0.,-2.77555756156289E-16));
#1346=DIRECTION('',(0.,1.,0.));
#1347=DIRECTION('center_axis',(0.,1.,0.));
#1348=DIRECTION('ref_axis',(-1.,0.,0.));
#1349=DIRECTION('center_axis',(0.,-1.,0.));
#1350=DIRECTION('ref_axis',(0.,0.,-1.));
#1351=DIRECTION('center_axis',(0.,1.,0.));
#1352=DIRECTION('ref_axis',(-1.,0.,0.));
#1353=DIRECTION('center_axis',(0.,1.,0.));
#1354=DIRECTION('ref_axis',(0.,0.,-1.));
#1355=DIRECTION('',(0.,1.,0.));
#1356=DIRECTION('',(0.,1.,0.));
#1357=DIRECTION('center_axis',(0.,1.,0.));
#1358=DIRECTION('ref_axis',(1.,0.,0.));
#1359=DIRECTION('',(2.3373116307898E-16,-1.22464679914735E-16,-1.));
#1360=DIRECTION('',(4.67462326157961E-16,0.,1.));
#1361=DIRECTION('center_axis',(0.,1.,0.));
#1362=DIRECTION('ref_axis',(1.,0.,0.));
#1363=DIRECTION('',(-1.,0.,4.64124691585848E-16));
#1364=DIRECTION('',(1.,7.90748761038854E-17,1.14882349402438E-16));
#1365=DIRECTION('center_axis',(0.,1.,0.));
#1366=DIRECTION('ref_axis',(1.,0.,0.));
#1367=DIRECTION('',(-0.999999999998726,2.02755543366323E-18,-1.59615622780169E-6));
#1368=DIRECTION('center_axis',(-7.26573336696614E-25,-1.,1.22476487639806E-16));
#1369=DIRECTION('ref_axis',(-6.72072082997669E-5,1.22476487363254E-16,0.999999997741596));
#1370=DIRECTION('',(1.,0.,-5.8819762894048E-16));
#1371=DIRECTION('center_axis',(0.,1.,0.));
#1372=DIRECTION('ref_axis',(1.,0.,0.));
#1373=DIRECTION('',(-7.01193489236941E-16,0.,-1.));
#1374=DIRECTION('',(2.3373116307898E-16,0.,1.));
#1375=DIRECTION('center_axis',(0.,-1.,0.));
#1376=DIRECTION('ref_axis',(1.,0.,0.));
#1377=DIRECTION('center_axis',(0.,1.,0.));
#1378=DIRECTION('ref_axis',(1.,0.,0.));
#1379=DIRECTION('',(-0.707106781186548,-0.707106781186547,8.65956056235494E-17));
#1380=DIRECTION('center_axis',(0.,1.,0.));
#1381=DIRECTION('ref_axis',(1.,0.,0.));
#1382=DIRECTION('center_axis',(0.,1.,0.));
#1383=DIRECTION('ref_axis',(1.,0.,0.));
#1384=DIRECTION('',(0.,-1.,0.));
#1385=DIRECTION('center_axis',(0.707106781186547,0.707106781186548,-4.95818671163297E-16));
#1386=DIRECTION('ref_axis',(-7.01193489236941E-16,0.,-1.));
#1387=DIRECTION('',(0.577350269189626,-0.577350269189626,-0.577350269189626));
#1388=DIRECTION('',(7.01193489236941E-16,0.,1.));
#1389=DIRECTION('',(-0.577350269189627,0.577350269189626,-0.577350269189625));
#1390=DIRECTION('center_axis',(0.,1.,0.));
#1391=DIRECTION('ref_axis',(1.,0.,0.));
#1392=DIRECTION('',(-2.3373116307898E-16,0.,-1.));
#1393=DIRECTION('center_axis',(0.,1.,0.));
#1394=DIRECTION('ref_axis',(1.,0.,1.66533453693774E-15));
#1395=DIRECTION('',(-1.,0.,-1.14882349402438E-16));
#1396=DIRECTION('center_axis',(0.,1.,0.));
#1397=DIRECTION('ref_axis',(-1.,0.,0.));
#1398=DIRECTION('',(-2.3373116307898E-16,0.,1.));
#1399=DIRECTION('center_axis',(0.,1.,0.));
#1400=DIRECTION('ref_axis',(-6.72072082997669E-5,0.,0.999999997741596));
#1401=DIRECTION('',(0.999999999998726,0.,1.59615622780169E-6));
#1402=DIRECTION('center_axis',(0.,1.,0.));
#1403=DIRECTION('ref_axis',(-1.11022302462516E-15,0.,1.));
#1404=DIRECTION('',(-2.3373116307898E-16,0.,-1.));
#1405=DIRECTION('center_axis',(0.,-1.,0.));
#1406=DIRECTION('ref_axis',(1.,0.,0.));
#1407=DIRECTION('center_axis',(0.,-1.,0.));
#1408=DIRECTION('ref_axis',(1.,0.,0.));
#1409=DIRECTION('center_axis',(0.707106781186547,0.,0.707106781186548));
#1410=DIRECTION('ref_axis',(0.707106781186548,0.,-0.707106781186547));
#1411=DIRECTION('',(0.,1.,0.));
#1412=DIRECTION('',(0.,1.,0.));
#1413=DIRECTION('',(-0.577350269189626,-0.577350269189626,0.577350269189625));
#1414=DIRECTION('center_axis',(0.707106781186547,0.,-0.707106781186548));
#1415=DIRECTION('ref_axis',(-0.707106781186548,0.,-0.707106781186547));
#1416=DIRECTION('',(0.,-1.,0.));
#1417=DIRECTION('',(0.,-1.,0.));
#1418=DIRECTION('',(0.577350269189628,0.577350269189625,0.577350269189624));
#1419=DIRECTION('center_axis',(0.707106781186547,-0.707106781186548,-4.95818671163297E-16));
#1420=DIRECTION('ref_axis',(-7.01193489236941E-16,0.,-1.));
#1421=DIRECTION('',(7.01193489236941E-16,0.,1.));
#1422=DIRECTION('',(2.3373116307898E-16,0.,1.));
#1423=DIRECTION('center_axis',(-1.,0.,2.3373116307898E-16));
#1424=DIRECTION('ref_axis',(2.3373116307898E-16,0.,1.));
#1425=DIRECTION('',(0.,1.,0.));
#1426=DIRECTION('',(0.,1.,0.));
#1427=DIRECTION('center_axis',(0.,1.,0.));
#1428=DIRECTION('ref_axis',(1.,0.,0.));
#1429=DIRECTION('center_axis',(0.,-1.,0.));
#1430=DIRECTION('ref_axis',(1.,0.,0.));
#1431=DIRECTION('center_axis',(0.,1.,0.));
#1432=DIRECTION('ref_axis',(1.,0.,0.));
#1433=DIRECTION('center_axis',(0.,1.,0.));
#1434=DIRECTION('ref_axis',(1.,0.,0.));
#1435=DIRECTION('center_axis',(0.,1.,0.));
#1436=DIRECTION('ref_axis',(1.,0.,0.));
#1437=DIRECTION('center_axis',(0.,1.,0.));
#1438=DIRECTION('ref_axis',(1.,0.,0.));
#1439=DIRECTION('center_axis',(0.,1.,0.));
#1440=DIRECTION('ref_axis',(1.,0.,0.));
#1441=DIRECTION('center_axis',(0.,1.,0.));
#1442=DIRECTION('ref_axis',(1.,0.,0.));
#1443=DIRECTION('center_axis',(0.,1.,0.));
#1444=DIRECTION('ref_axis',(1.,0.,0.));
#1445=DIRECTION('center_axis',(0.,-1.,0.));
#1446=DIRECTION('ref_axis',(1.,0.,0.));
#1447=DIRECTION('',(0.,-1.,0.));
#1448=DIRECTION('center_axis',(0.,-1.,0.));
#1449=DIRECTION('ref_axis',(1.,0.,0.));
#1450=DIRECTION('center_axis',(0.,1.,0.));
#1451=DIRECTION('ref_axis',(1.,0.,0.));
#1452=DIRECTION('center_axis',(0.,1.,0.));
#1453=DIRECTION('ref_axis',(1.,0.,0.));
#1454=DIRECTION('',(0.,-1.,0.));
#1455=DIRECTION('center_axis',(0.,1.,0.));
#1456=DIRECTION('ref_axis',(1.,0.,0.));
#1457=DIRECTION('center_axis',(0.,1.,0.));
#1458=DIRECTION('ref_axis',(1.,0.,0.));
#1459=DIRECTION('center_axis',(0.,1.,0.));
#1460=DIRECTION('ref_axis',(1.,0.,0.));
#1461=DIRECTION('',(0.,-1.,0.));
#1462=DIRECTION('center_axis',(0.,1.,0.));
#1463=DIRECTION('ref_axis',(0.,0.,1.));
#1464=DIRECTION('center_axis',(0.,-1.,0.));
#1465=DIRECTION('ref_axis',(1.,0.,0.));
#1466=DIRECTION('center_axis',(0.,1.,0.));
#1467=DIRECTION('ref_axis',(1.,0.,0.));
#1468=DIRECTION('center_axis',(0.,1.,0.));
#1469=DIRECTION('ref_axis',(1.,0.,0.));
#1470=DIRECTION('center_axis',(0.,-1.,0.));
#1471=DIRECTION('ref_axis',(1.,0.,0.));
#1472=DIRECTION('',(0.,-1.,0.));
#1473=DIRECTION('center_axis',(0.,1.,0.));
#1474=DIRECTION('ref_axis',(1.,0.,0.));
#1475=DIRECTION('center_axis',(0.,1.,0.));
#1476=DIRECTION('ref_axis',(1.,0.,0.));
#1477=DIRECTION('',(0.,-1.,0.));
#1478=DIRECTION('center_axis',(0.,1.,0.));
#1479=DIRECTION('ref_axis',(1.,0.,0.));
#1480=DIRECTION('center_axis',(0.,1.,0.));
#1481=DIRECTION('ref_axis',(1.,0.,0.));
#1482=DIRECTION('',(0.,-1.,0.));
#1483=DIRECTION('center_axis',(0.,1.,0.));
#1484=DIRECTION('ref_axis',(1.,0.,0.));
#1485=DIRECTION('',(0.,-1.,0.));
#1486=DIRECTION('center_axis',(0.,1.,0.));
#1487=DIRECTION('ref_axis',(-1.,0.,0.));
#1488=DIRECTION('',(0.,1.,0.));
#1489=DIRECTION('',(0.,1.,0.));
#1490=DIRECTION('center_axis',(-1.14882349402438E-16,0.,1.));
#1491=DIRECTION('ref_axis',(1.,7.90748761038854E-17,1.14882349402438E-16));
#1492=DIRECTION('',(0.,1.,0.));
#1493=DIRECTION('center_axis',(0.,1.,0.));
#1494=DIRECTION('ref_axis',(1.,0.,1.66533453693774E-15));
#1495=DIRECTION('center_axis',(1.,0.,2.3373116307898E-16));
#1496=DIRECTION('ref_axis',(2.3373116307898E-16,-1.22464679914735E-16,-1.));
#1497=DIRECTION('',(0.,1.,0.));
#1498=DIRECTION('center_axis',(0.,1.,0.));
#1499=DIRECTION('ref_axis',(-6.72072082997669E-5,0.,0.999999997741596));
#1500=DIRECTION('',(0.,1.,0.));
#1501=DIRECTION('center_axis',(1.59615622780169E-6,0.,-0.999999999998726));
#1502=DIRECTION('ref_axis',(-0.999999999998726,2.02755543366323E-18,-1.59615622780169E-6));
#1503=DIRECTION('',(0.,1.,0.));
#1504=DIRECTION('center_axis',(0.,1.,0.));
#1505=DIRECTION('ref_axis',(-1.11022302462516E-15,0.,1.));
#1506=DIRECTION('center_axis',(1.,0.,-7.01193489236941E-16));
#1507=DIRECTION('ref_axis',(-7.01193489236941E-16,0.,-1.));
#1508=DIRECTION('',(0.,1.,0.));
#1509=DIRECTION('',(0.,1.,0.));
#1510=DIRECTION('center_axis',(0.,1.,0.));
#1511=DIRECTION('ref_axis',(0.,0.,1.));
#1512=DIRECTION('',(0.,1.,0.));
#1513=DIRECTION('center_axis',(5.8819762894048E-16,0.,1.));
#1514=DIRECTION('ref_axis',(1.,0.,-5.8819762894048E-16));
#1515=DIRECTION('',(0.,1.,0.));
#1516=DIRECTION('center_axis',(0.,1.,0.));
#1517=DIRECTION('ref_axis',(-1.,0.,0.));
#1518=DIRECTION('',(0.,1.,0.));
#1519=DIRECTION('center_axis',(-1.,0.,4.67462326157961E-16));
#1520=DIRECTION('ref_axis',(4.67462326157961E-16,0.,1.));
#1521=DIRECTION('center_axis',(-4.64124691585848E-16,0.,-1.));
#1522=DIRECTION('ref_axis',(-1.,0.,4.64124691585848E-16));
#1523=DIRECTION('',(0.,1.,0.));
#1524=DIRECTION('center_axis',(0.,1.,0.));
#1525=DIRECTION('ref_axis',(1.,0.,0.));
#1526=CARTESIAN_POINT('',(0.,0.,0.));
#1527=CARTESIAN_POINT('Origin',(-50.4,0.,41.2426406871193));
#1528=CARTESIAN_POINT('',(-50.4,0.,41.2426406871193));
#1529=CARTESIAN_POINT('',(-50.4,0.,39.2426406871193));
#1530=CARTESIAN_POINT('',(-50.4,0.,31.7426406871193));
#1531=CARTESIAN_POINT('',(-50.4,2.,41.2426406871193));
#1532=CARTESIAN_POINT('',(-50.4,0.,41.2426406871193));
#1533=CARTESIAN_POINT('',(-50.4,2.,39.2426406871193));
#1534=CARTESIAN_POINT('',(-50.4,2.,31.7426406871193));
#1535=CARTESIAN_POINT('',(-50.4,0.,39.2426406871193));
#1536=CARTESIAN_POINT('Origin',(-52.4,0.,41.2426406871193));
#1537=CARTESIAN_POINT('',(-52.4,0.,41.2426406871193));
#1538=CARTESIAN_POINT('',(-43.3,0.,41.2426406871193));
#1539=CARTESIAN_POINT('',(-52.4,2.,41.2426406871193));
#1540=CARTESIAN_POINT('',(-52.4,0.,41.2426406871193));
#1541=CARTESIAN_POINT('',(-43.3,2.,41.2426406871193));
#1542=CARTESIAN_POINT('Origin',(-52.4,0.,39.2426406871193));
#1543=CARTESIAN_POINT('',(-52.4,0.,39.2426406871193));
#1544=CARTESIAN_POINT('',(-52.4,0.,30.7426406871193));
#1545=CARTESIAN_POINT('',(-52.4,2.,39.2426406871193));
#1546=CARTESIAN_POINT('',(-52.4,0.,39.2426406871193));
#1547=CARTESIAN_POINT('',(-52.4,2.,30.7426406871193));
#1548=CARTESIAN_POINT('Origin',(-50.4,0.,39.2426406871193));
#1549=CARTESIAN_POINT('',(-42.3,0.,39.2426406871193));
#1550=CARTESIAN_POINT('',(-42.3,2.,39.2426406871193));
#1551=CARTESIAN_POINT('Origin',(-18.,0.,41.2426406871193));
#1552=CARTESIAN_POINT('',(-18.,0.,41.2426406871193));
#1553=CARTESIAN_POINT('',(-16.,0.,41.2426406871193));
#1554=CARTESIAN_POINT('',(-26.1,0.,41.2426406871193));
#1555=CARTESIAN_POINT('',(-18.,2.,41.2426406871193));
#1556=CARTESIAN_POINT('',(-18.,0.,41.2426406871193));
#1557=CARTESIAN_POINT('',(-16.,2.,41.2426406871193));
#1558=CARTESIAN_POINT('',(-26.1,2.,41.2426406871193));
#1559=CARTESIAN_POINT('',(-16.,0.,41.2426406871193));
#1560=CARTESIAN_POINT('Origin',(-18.,0.,39.2426406871193));
#1561=CARTESIAN_POINT('',(-18.,0.,39.2426406871193));
#1562=CARTESIAN_POINT('',(-18.,0.,30.7426406871193));
#1563=CARTESIAN_POINT('',(-18.,2.,39.2426406871193));
#1564=CARTESIAN_POINT('',(-18.,0.,39.2426406871193));
#1565=CARTESIAN_POINT('',(-18.,2.,30.7426406871193));
#1566=CARTESIAN_POINT('Origin',(-16.,0.,39.2426406871193));
#1567=CARTESIAN_POINT('',(-16.,0.,39.2426406871193));
#1568=CARTESIAN_POINT('',(-25.1,0.,39.2426406871193));
#1569=CARTESIAN_POINT('',(-16.,2.,39.2426406871193));
#1570=CARTESIAN_POINT('',(-16.,0.,39.2426406871193));
#1571=CARTESIAN_POINT('',(-25.1,2.,39.2426406871193));
#1572=CARTESIAN_POINT('Origin',(-16.,0.,41.2426406871193));
#1573=CARTESIAN_POINT('',(-16.,0.,31.7426406871193));
#1574=CARTESIAN_POINT('',(-16.,2.,31.7426406871193));
#1575=CARTESIAN_POINT('Origin',(-34.2,0.,22.2426406871193));
#1576=CARTESIAN_POINT('',(-0.999999999999979,0.,3.24264068711928));
#1577=CARTESIAN_POINT('',(-3.99999999999998,0.,0.242640687119278));
#1578=CARTESIAN_POINT('Origin',(-3.99999999999998,0.,3.24264068711928));
#1579=CARTESIAN_POINT('',(-0.999999999999977,0.,6.2426406871193));
#1580=CARTESIAN_POINT('',(-0.999999999999979,0.,3.24264068711928));
#1581=CARTESIAN_POINT('',(-0.999999999999966,0.,21.2426406871193));
#1582=CARTESIAN_POINT('',(-0.999999999999979,0.,3.24264068711928));
#1583=CARTESIAN_POINT('',(-0.999999999999952,0.,41.2426406871193));
#1584=CARTESIAN_POINT('',(-0.999999999999979,0.,3.24264068711928));
#1585=CARTESIAN_POINT('',(-3.99999999999996,0.,44.2426406871193));
#1586=CARTESIAN_POINT('Origin',(-3.99999999999996,0.,41.2426406871193));
#1587=CARTESIAN_POINT('',(-64.4,0.,44.2426406871193));
#1588=CARTESIAN_POINT('',(-3.99999999999996,0.,44.2426406871193));
#1589=CARTESIAN_POINT('',(-67.4,0.,41.2426406871193));
#1590=CARTESIAN_POINT('Origin',(-64.4,0.,41.2426406871193));
#1591=CARTESIAN_POINT('',(-67.4,0.,3.24264068711931));
#1592=CARTESIAN_POINT('',(-67.4,0.,41.2426406871193));
#1593=CARTESIAN_POINT('',(-64.4,0.,0.242640687119307));
#1594=CARTESIAN_POINT('Origin',(-64.4,0.,3.2426406871193));
#1595=CARTESIAN_POINT('',(-64.4,0.,0.242640687119307));
#1596=CARTESIAN_POINT('',(-37.425,0.,13.4426406871193));
#1597=CARTESIAN_POINT('Origin',(-33.425,0.,13.4426406871193));
#1598=CARTESIAN_POINT('Origin',(-33.425,0.,13.4426406871193));
#1599=CARTESIAN_POINT('',(-37.425,1.5,13.4426406871193));
#1600=CARTESIAN_POINT('',(-37.425,0.,13.4426406871193));
#1601=CARTESIAN_POINT('Origin',(-33.425,1.5,13.4426406871193));
#1602=CARTESIAN_POINT('Origin',(-3.99999999999996,12.5,42.2426406871193));
#1603=CARTESIAN_POINT('',(-3.99999999999996,12.5,44.2426406871193));
#1604=CARTESIAN_POINT('',(-3.99999999999996,12.5,42.2426406871193));
#1605=CARTESIAN_POINT('',(-3.99999999999996,12.5,44.2426406871193));
#1606=CARTESIAN_POINT('',(-3.99999999999997,14.5,42.2426406871193));
#1607=CARTESIAN_POINT('',(-3.99999999999997,0.,42.2426406871193));
#1608=CARTESIAN_POINT('',(-3.99999999999996,14.5,44.2426406871193));
#1609=CARTESIAN_POINT('',(-3.99999999999996,14.5,32.2426406871193));
#1610=CARTESIAN_POINT('',(-3.99999999999996,0.,44.2426406871193));
#1611=CARTESIAN_POINT('Origin',(-0.999999999999981,12.5,41.2426406871193));
#1612=CARTESIAN_POINT('',(-0.999999999999981,12.5,41.2426406871193));
#1613=CARTESIAN_POINT('',(-2.99999999999997,12.5,41.2426406871193));
#1614=CARTESIAN_POINT('',(-0.999999999999981,12.5,41.2426406871193));
#1615=CARTESIAN_POINT('',(-0.999999999999952,14.5,41.2426406871193));
#1616=CARTESIAN_POINT('',(-0.999999999999952,0.,41.2426406871193));
#1617=CARTESIAN_POINT('',(-2.99999999999997,14.5,41.2426406871193));
#1618=CARTESIAN_POINT('',(-17.6,14.5,41.2426406871193));
#1619=CARTESIAN_POINT('',(-2.99999999999997,0.,41.2426406871193));
#1620=CARTESIAN_POINT('Origin',(-2.49999999999995,12.5,42.7426406871193));
#1621=CARTESIAN_POINT('Origin',(-3.99999999999997,12.5,41.2426406871193));
#1622=CARTESIAN_POINT('Origin',(-3.99999999999996,12.5,41.2426406871193));
#1623=CARTESIAN_POINT('Origin',(-2.99999999999995,12.5,3.2426406871193));
#1624=CARTESIAN_POINT('',(-0.999999999999945,12.5,3.2426406871193));
#1625=CARTESIAN_POINT('',(-2.99999999999995,12.5,3.2426406871193));
#1626=CARTESIAN_POINT('',(-0.999999999999945,12.5,3.2426406871193));
#1627=CARTESIAN_POINT('',(-2.99999999999998,14.5,3.24264068711928));
#1628=CARTESIAN_POINT('',(-2.99999999999998,0.,3.24264068711928));
#1629=CARTESIAN_POINT('',(-0.999999999999979,14.5,3.24264068711928));
#1630=CARTESIAN_POINT('',(-18.6,14.5,3.2426406871193));
#1631=CARTESIAN_POINT('',(-0.999999999999979,0.,3.24264068711928));
#1632=CARTESIAN_POINT('Origin',(-3.99999999999996,12.5,0.242640687119322));
#1633=CARTESIAN_POINT('',(-3.99999999999996,12.5,0.242640687119322));
#1634=CARTESIAN_POINT('',(-3.99999999999996,12.5,2.24264068711931));
#1635=CARTESIAN_POINT('',(-3.99999999999996,12.5,0.242640687119322));
#1636=CARTESIAN_POINT('',(-3.99999999999998,14.5,0.242640687119282));
#1637=CARTESIAN_POINT('',(-3.99999999999998,0.,0.242640687119278));
#1638=CARTESIAN_POINT('',(-3.99999999999998,14.5,2.24264068711928));
#1639=CARTESIAN_POINT('',(-3.99999999999996,14.5,11.2426406871193));
#1640=CARTESIAN_POINT('',(-3.99999999999998,0.,2.24264068711928));
#1641=CARTESIAN_POINT('Origin',(-2.49999999999994,12.5,1.74264068711933));
#1642=CARTESIAN_POINT('Origin',(-3.99999999999998,12.5,3.24264068711928));
#1643=CARTESIAN_POINT('Origin',(-3.99999999999998,12.5,3.24264068711928));
#1644=CARTESIAN_POINT('Origin',(-65.4,12.5,41.2426406871193));
#1645=CARTESIAN_POINT('',(-67.4,12.5,41.2426406871193));
#1646=CARTESIAN_POINT('',(-65.4,12.5,41.2426406871193));
#1647=CARTESIAN_POINT('',(-67.4,12.5,41.2426406871193));
#1648=CARTESIAN_POINT('',(-65.4,14.5,41.2426406871193));
#1649=CARTESIAN_POINT('',(-65.4,1.97215226305253E-30,41.2426406871193));
#1650=CARTESIAN_POINT('',(-67.4,14.5,41.2426406871193));
#1651=CARTESIAN_POINT('',(-49.8,14.5,41.2426406871193));
#1652=CARTESIAN_POINT('',(-67.4,0.,41.2426406871193));
#1653=CARTESIAN_POINT('Origin',(-64.4,12.5,41.2426406871193));
#1654=CARTESIAN_POINT('',(-64.4,12.5,42.2426406871193));
#1655=CARTESIAN_POINT('Origin',(-64.4,12.5,41.2426406871193));
#1656=CARTESIAN_POINT('',(-64.4,14.5,42.2426406871193));
#1657=CARTESIAN_POINT('',(-64.4,12.5,42.2426406871193));
#1658=CARTESIAN_POINT('Origin',(-64.4,14.5,41.2426406871193));
#1659=CARTESIAN_POINT('',(-65.4,1.97215226305253E-30,41.2426406871193));
#1660=CARTESIAN_POINT('Origin',(-64.4,12.5,44.2426406871193));
#1661=CARTESIAN_POINT('',(-64.4,12.5,44.2426406871193));
#1662=CARTESIAN_POINT('',(-64.4,12.5,44.2426406871193));
#1663=CARTESIAN_POINT('',(-64.4,14.5,44.2426406871193));
#1664=CARTESIAN_POINT('',(-64.4,0.,44.2426406871193));
#1665=CARTESIAN_POINT('',(-64.4,14.5,33.2426406871193));
#1666=CARTESIAN_POINT('Origin',(-65.9,12.5,42.7426406871193));
#1667=CARTESIAN_POINT('Origin',(-64.4,12.5,41.2426406871193));
#1668=CARTESIAN_POINT('Origin',(-64.4,12.5,2.24264068711931));
#1669=CARTESIAN_POINT('',(-64.4,12.5,0.242640687119309));
#1670=CARTESIAN_POINT('',(-64.4,12.5,2.24264068711931));
#1671=CARTESIAN_POINT('',(-64.4,12.5,0.242640687119309));
#1672=CARTESIAN_POINT('',(-64.3999999999999,14.5,2.24264068711927));
#1673=CARTESIAN_POINT('',(-64.3999999999999,-4.77612251667468E-15,2.24264068711927));
#1674=CARTESIAN_POINT('',(-64.4,14.5,0.242640687119309));
#1675=CARTESIAN_POINT('',(-64.4,14.5,12.2426406871193));
#1676=CARTESIAN_POINT('',(-64.4,0.,0.242640687119307));
#1677=CARTESIAN_POINT('Origin',(-67.4,12.5,3.24264068711932));
#1678=CARTESIAN_POINT('',(-67.4,12.5,3.24264068711932));
#1679=CARTESIAN_POINT('',(-65.4,12.5,3.24264068711932));
#1680=CARTESIAN_POINT('',(-67.4,12.5,3.24264068711932));
#1681=CARTESIAN_POINT('',(-67.4,14.5,3.24264068711931));
#1682=CARTESIAN_POINT('',(-67.4,0.,3.24264068711931));
#1683=CARTESIAN_POINT('',(-65.3999999999999,14.5,3.24264068711928));
#1684=CARTESIAN_POINT('',(-50.8,14.5,3.24264068711932));
#1685=CARTESIAN_POINT('',(-65.3999999999999,-4.65365783675994E-15,3.24264068711928));
#1686=CARTESIAN_POINT('Origin',(-65.8999999999999,12.5,1.74264068711931));
#1687=CARTESIAN_POINT('Origin',(-64.4,12.5,3.2426406871193));
#1688=CARTESIAN_POINT('Origin',(-64.3999999999999,12.5,3.24264068711928));
#1689=CARTESIAN_POINT('Origin',(-64.4,0.,3.2426406871193));
#1690=CARTESIAN_POINT('',(-64.4,0.,0.242640687119307));
#1691=CARTESIAN_POINT('',(-67.4,0.,3.24264068711931));
#1692=CARTESIAN_POINT('Origin',(-34.2,14.5,22.2426406871193));
#1693=CARTESIAN_POINT('',(-65.4,14.5,41.2426406871193));
#1694=CARTESIAN_POINT('',(-67.4,14.5,41.2426406871193));
#1695=CARTESIAN_POINT('Origin',(-34.2,14.5,22.2426406871193));
#1696=CARTESIAN_POINT('',(-64.4,14.5,0.242640687119307));
#1697=CARTESIAN_POINT('',(-64.3999999999999,14.5,2.24264068711927));
#1698=CARTESIAN_POINT('Origin',(-34.2,14.5,22.2426406871193));
#1699=CARTESIAN_POINT('',(-64.4001636065366,14.5,42.242544279022));
#1700=CARTESIAN_POINT('',(-3.99999999999997,14.5,42.2426406871193));
#1701=CARTESIAN_POINT('Origin',(-64.4000964058074,14.5,41.2426406871191));
#1702=CARTESIAN_POINT('',(-3.99999999999996,14.5,44.2426406871193));
#1703=CARTESIAN_POINT('Origin',(-34.2,14.5,22.2426406871193));
#1704=CARTESIAN_POINT('',(-0.999999999999979,14.5,3.24264068711928));
#1705=CARTESIAN_POINT('',(-2.99999999999998,14.5,3.24264068711928));
#1706=CARTESIAN_POINT('Origin',(-33.425,2.,13.4426406871193));
#1707=CARTESIAN_POINT('',(-36.425,2.5,13.4426406871193));
#1708=CARTESIAN_POINT('Origin',(-33.425,2.5,13.4426406871193));
#1709=CARTESIAN_POINT('',(-36.925,2.,13.4426406871193));
#1710=CARTESIAN_POINT('Origin',(-33.425,0.,13.4426406871193));
#1711=CARTESIAN_POINT('',(-36.425,4.,13.4426406871193));
#1712=CARTESIAN_POINT('Origin',(-33.425,4.,13.4426406871193));
#1713=CARTESIAN_POINT('',(-36.425,0.,13.4426406871193));
#1714=CARTESIAN_POINT('Origin',(-1.99999999999996,1.,31.7426406871193));
#1715=CARTESIAN_POINT('',(-2.99999999999998,2.,8.2426406871193));
#1716=CARTESIAN_POINT('',(-6.08333333333331,5.08333333333333,11.3259740204526));
#1717=CARTESIAN_POINT('',(-2.99999999999998,2.,19.2426406871193));
#1718=CARTESIAN_POINT('',(-2.99999999999996,2.,31.7426406871193));
#1719=CARTESIAN_POINT('',(-0.0833333333333017,-0.916666666666663,22.159307353786));
#1720=CARTESIAN_POINT('Origin',(-34.2,2.,22.2426406871193));
#1721=CARTESIAN_POINT('',(-2.99999999999998,2.,3.24264068711928));
#1722=CARTESIAN_POINT('',(-2.99999999999998,2.,12.7426406871193));
#1723=CARTESIAN_POINT('',(-3.99999999999998,2.,2.24264068711928));
#1724=CARTESIAN_POINT('Origin',(-3.99999999999998,2.,3.24264068711928));
#1725=CARTESIAN_POINT('',(-64.3999999999999,2.,2.24264068711927));
#1726=CARTESIAN_POINT('',(-49.3,2.,2.24264068711927));
#1727=CARTESIAN_POINT('',(-65.3999999999999,2.,3.24264068711928));
#1728=CARTESIAN_POINT('Origin',(-64.3999999999999,2.,3.24264068711928));
#1729=CARTESIAN_POINT('',(-65.4,2.,41.2426406871193));
#1730=CARTESIAN_POINT('',(-65.3999999999999,2.,31.7426406871193));
#1731=CARTESIAN_POINT('',(-64.4001636065366,2.,42.242544279022));
#1732=CARTESIAN_POINT('Origin',(-64.4000964058074,2.,41.2426406871191));
#1733=CARTESIAN_POINT('',(-3.99999999999997,2.,42.2426406871193));
#1734=CARTESIAN_POINT('',(-19.1000159615238,2.,42.2426165851348));
#1735=CARTESIAN_POINT('',(-2.99999999999997,2.,41.2426406871193));
#1736=CARTESIAN_POINT('Origin',(-3.99999999999997,2.,41.2426406871193));
#1737=CARTESIAN_POINT('',(-2.99999999999998,2.,12.7426406871193));
#1738=CARTESIAN_POINT('',(-37.425,2.,13.4426406871193));
#1739=CARTESIAN_POINT('Origin',(-33.425,2.,13.4426406871193));
#1740=CARTESIAN_POINT('',(-57.925,2.,13.4426406871193));
#1741=CARTESIAN_POINT('Origin',(-53.925,2.,13.4426406871193));
#1742=CARTESIAN_POINT('Origin',(-1.99999999999998,1.,7.2426406871193));
#1743=CARTESIAN_POINT('',(-2.99999999999998,6.,8.2426406871193));
#1744=CARTESIAN_POINT('',(-2.99999999999998,1.,8.2426406871193));
#1745=CARTESIAN_POINT('',(-0.999999999999977,8.,6.2426406871193));
#1746=CARTESIAN_POINT('',(-0.999999999999976,1.,6.2426406871193));
#1747=CARTESIAN_POINT('',(-0.999999999999977,8.,6.2426406871193));
#1748=CARTESIAN_POINT('Origin',(-1.99999999999997,1.,20.2426406871193));
#1749=CARTESIAN_POINT('',(-0.999999999999966,8.,21.2426406871193));
#1750=CARTESIAN_POINT('',(-0.999999999999966,1.,21.2426406871193));
#1751=CARTESIAN_POINT('',(-2.99999999999998,6.,19.2426406871193));
#1752=CARTESIAN_POINT('',(-2.99999999999998,1.,19.2426406871193));
#1753=CARTESIAN_POINT('',(-2.99999999999998,6.,19.2426406871193));
#1754=CARTESIAN_POINT('Origin',(-1.99999999999996,7.,27.4926406871193));
#1755=CARTESIAN_POINT('',(-0.999999999999962,8.,27.4926406871193));
#1756=CARTESIAN_POINT('',(-2.99999999999998,6.,8.49264068711929));
#1757=CARTESIAN_POINT('Origin',(-2.99999999999998,0.,3.24264068711928));
#1758=CARTESIAN_POINT('',(-2.99999999999997,0.,41.2426406871193));
#1759=CARTESIAN_POINT('',(-2.99999999999998,0.,3.24264068711928));
#1760=CARTESIAN_POINT('Origin',(-53.925,2.,13.4426406871193));
#1761=CARTESIAN_POINT('',(-56.925,2.,13.4426406871193));
#1762=CARTESIAN_POINT('Origin',(-53.925,2.,13.4426406871193));
#1763=CARTESIAN_POINT('Origin',(-53.925,4.,13.4426406871193));
#1764=CARTESIAN_POINT('',(-57.925,4.,13.4426406871193));
#1765=CARTESIAN_POINT('Origin',(-53.925,4.,13.4426406871193));
#1766=CARTESIAN_POINT('',(-56.925,4.,13.4426406871193));
#1767=CARTESIAN_POINT('Origin',(-53.925,4.,13.4426406871193));
#1768=CARTESIAN_POINT('Origin',(-33.425,4.1,13.4426406871193));
#1769=CARTESIAN_POINT('',(-37.425,4.1,13.4426406871193));
#1770=CARTESIAN_POINT('Origin',(-33.425,4.1,13.4426406871193));
#1771=CARTESIAN_POINT('',(-36.425,4.1,13.4426406871193));
#1772=CARTESIAN_POINT('Origin',(-33.425,4.1,13.4426406871193));
#1773=CARTESIAN_POINT('Origin',(-33.5,0.,13.4426406871193));
#1774=CARTESIAN_POINT('',(-35.,6.,13.4426406871193));
#1775=CARTESIAN_POINT('Origin',(-33.5,6.,13.4426406871193));
#1776=CARTESIAN_POINT('',(-35.,4.,13.4426406871193));
#1777=CARTESIAN_POINT('',(-35.,0.,13.4426406871193));
#1778=CARTESIAN_POINT('Origin',(-33.5,4.,13.4426406871193));
#1779=CARTESIAN_POINT('Origin',(-33.425,0.,13.4426406871193));
#1780=CARTESIAN_POINT('',(-36.425,6.,13.4426406871193));
#1781=CARTESIAN_POINT('Origin',(-33.425,6.,13.4426406871193));
#1782=CARTESIAN_POINT('',(-36.425,0.,13.4426406871193));
#1783=CARTESIAN_POINT('Origin',(-33.425,6.,13.4426406871193));
#1784=CARTESIAN_POINT('Origin',(-33.425,4.,13.4426406871193));
#1785=CARTESIAN_POINT('Origin',(-33.425,0.,13.4426406871193));
#1786=CARTESIAN_POINT('',(-37.425,0.,13.4426406871193));
#1787=CARTESIAN_POINT('Origin',(-53.925,2.1,13.4426406871193));
#1788=CARTESIAN_POINT('',(-56.925,2.1,13.4426406871193));
#1789=CARTESIAN_POINT('Origin',(-53.925,2.1,13.4426406871193));
#1790=CARTESIAN_POINT('',(-55.425,2.1,13.4426406871193));
#1791=CARTESIAN_POINT('Origin',(-53.925,2.1,13.4426406871193));
#1792=CARTESIAN_POINT('Origin',(-53.925,0.,13.4426406871193));
#1793=CARTESIAN_POINT('',(-55.425,6.,13.4426406871193));
#1794=CARTESIAN_POINT('Origin',(-53.925,6.,13.4426406871193));
#1795=CARTESIAN_POINT('',(-55.425,0.,13.4426406871193));
#1796=CARTESIAN_POINT('Origin',(-53.925,0.,13.4426406871193));
#1797=CARTESIAN_POINT('',(-56.925,6.,13.4426406871193));
#1798=CARTESIAN_POINT('Origin',(-53.925,6.,13.4426406871193));
#1799=CARTESIAN_POINT('',(-56.925,0.,13.4426406871193));
#1800=CARTESIAN_POINT('Origin',(-53.925,6.,13.4426406871193));
#1801=CARTESIAN_POINT('Origin',(-53.925,0.,13.4426406871193));
#1802=CARTESIAN_POINT('',(-57.925,0.,13.4426406871193));
#1803=CARTESIAN_POINT('Origin',(-53.925,0.,13.4426406871193));
#1804=CARTESIAN_POINT('',(-56.925,0.,13.4426406871193));
#1805=CARTESIAN_POINT('Origin',(-64.3999999999999,-4.65365783675994E-15,
3.24264068711928));
#1806=CARTESIAN_POINT('',(-65.3999999999999,-4.65365783675994E-15,3.24264068711928));
#1807=CARTESIAN_POINT('',(-64.3999999999999,-4.77612251667468E-15,2.24264068711927));
#1808=CARTESIAN_POINT('Origin',(-64.3999999999999,-4.77612251667468E-15,
2.24264068711927));
#1809=CARTESIAN_POINT('',(-3.99999999999998,0.,2.24264068711928));
#1810=CARTESIAN_POINT('Origin',(-3.99999999999998,0.,3.24264068711928));
#1811=CARTESIAN_POINT('Origin',(-65.4,1.97215226305253E-30,41.2426406871193));
#1812=CARTESIAN_POINT('',(-65.4,1.97215226305253E-30,41.2426406871193));
#1813=CARTESIAN_POINT('Origin',(-64.4000964058074,1.97215226305253E-30,
41.2426406871191));
#1814=CARTESIAN_POINT('',(-64.4001636065366,1.22464679914737E-16,42.242544279022));
#1815=CARTESIAN_POINT('Origin',(-3.99999999999997,0.,42.2426406871193));
#1816=CARTESIAN_POINT('',(-3.99999999999997,0.,42.2426406871193));
#1817=CARTESIAN_POINT('Origin',(-3.99999999999997,0.,41.2426406871193));
#1818=CARTESIAN_POINT('Origin',(-0.999999999999952,0.,41.2426406871193));
#1819=CARTESIAN_POINT('',(-0.999999999999979,0.,3.24264068711928));
#1820=CARTESIAN_POINT('',(-0.999999999999952,0.,41.2426406871193));
#1821=CARTESIAN_POINT('Origin',(-3.99999999999996,0.,41.2426406871193));
#1822=CARTESIAN_POINT('',(-3.99999999999996,0.,44.2426406871193));
#1823=CARTESIAN_POINT('Origin',(-64.4,0.,44.2426406871193));
#1824=CARTESIAN_POINT('',(-64.4,0.,44.2426406871193));
#1825=CARTESIAN_POINT('Origin',(-64.4,0.,41.2426406871193));
#1826=CARTESIAN_POINT('',(-67.4,0.,41.2426406871193));
#1827=CARTESIAN_POINT('Origin',(-67.4,0.,3.24264068711931));
#1828=CARTESIAN_POINT('Origin',(-3.99999999999998,0.,0.242640687119278));
#1829=CARTESIAN_POINT('',(-3.99999999999998,0.,0.242640687119278));
#1830=CARTESIAN_POINT('Origin',(-3.99999999999998,0.,3.24264068711928));
#1831=UNCERTAINTY_MEASURE_WITH_UNIT(LENGTH_MEASURE(0.01),#1835,
'DISTANCE_ACCURACY_VALUE',
'Maximum model space distance between geometric entities at asserted c
onnectivities');
#1832=UNCERTAINTY_MEASURE_WITH_UNIT(LENGTH_MEASURE(0.01),#1835,
'DISTANCE_ACCURACY_VALUE',
'Maximum model space distance between geometric entities at asserted c
onnectivities');
#1833=(
GEOMETRIC_REPRESENTATION_CONTEXT(3)
GLOBAL_UNCERTAINTY_ASSIGNED_CONTEXT((#1831))
GLOBAL_UNIT_ASSIGNED_CONTEXT((#1835,#1837,#1838))
REPRESENTATION_CONTEXT('','3D')
);
#1834=(
GEOMETRIC_REPRESENTATION_CONTEXT(3)
GLOBAL_UNCERTAINTY_ASSIGNED_CONTEXT((#1832))
GLOBAL_UNIT_ASSIGNED_CONTEXT((#1835,#1837,#1838))
REPRESENTATION_CONTEXT('','3D')
);
#1835=(
LENGTH_UNIT()
NAMED_UNIT(*)
SI_UNIT(.MILLI.,.METRE.)
);
#1836=(
LENGTH_UNIT()
NAMED_UNIT(*)
SI_UNIT($,.METRE.)
);
#1837=(
NAMED_UNIT(*)
PLANE_ANGLE_UNIT()
SI_UNIT($,.RADIAN.)
);
#1838=(
NAMED_UNIT(*)
SI_UNIT($,.STERADIAN.)
SOLID_ANGLE_UNIT()
);
#1839=SHAPE_DEFINITION_REPRESENTATION(#1840,#1841);
#1840=PRODUCT_DEFINITION_SHAPE('',$,#1843);
#1841=SHAPE_REPRESENTATION('',(#1110),#1833);
#1842=PRODUCT_DEFINITION_CONTEXT('part definition',#1847,'design');
#1843=PRODUCT_DEFINITION('2026-09-23-19-54-49-001','Case',#1844,#1842);
#1844=PRODUCT_DEFINITION_FORMATION('',$,#1849);
#1845=PRODUCT_RELATED_PRODUCT_CATEGORY('Case','Case',(#1849));
#1846=APPLICATION_PROTOCOL_DEFINITION('international standard',
'automotive_design',2009,#1847);
#1847=APPLICATION_CONTEXT(
'Core Data for Automotive Mechanical Design Process');
#1848=PRODUCT_CONTEXT('part definition',#1847,'mechanical');
#1849=PRODUCT('2026-09-23-19-54-49-001','Case',$,(#1848));
#1850=PRESENTATION_STYLE_ASSIGNMENT((#1852));
#1851=PRESENTATION_STYLE_ASSIGNMENT((#1853));
#1852=SURFACE_STYLE_USAGE(.BOTH.,#1854);
#1853=SURFACE_STYLE_USAGE(.BOTH.,#1855);
#1854=SURFACE_SIDE_STYLE('',(#1856));
#1855=SURFACE_SIDE_STYLE('',(#1857));
#1856=SURFACE_STYLE_FILL_AREA(#1858);
#1857=SURFACE_STYLE_FILL_AREA(#1859);
#1858=FILL_AREA_STYLE('Steel - Satin',(#1860));
#1859=FILL_AREA_STYLE('Plastic - Matte (Black)',(#1861));
#1860=FILL_AREA_STYLE_COLOUR('Steel - Satin',#1862);
#1861=FILL_AREA_STYLE_COLOUR('Plastic - Matte (Black)',#1863);
#1862=COLOUR_RGB('Steel - Satin',0.627450980392157,0.627450980392157,0.627450980392157);
#1863=COLOUR_RGB('Plastic - Matte (Black)',0.0980392156862745,0.0980392156862745,
0.0980392156862745);
ENDSEC;
END-ISO-10303-21;
