ISO-10303-21;
HEADER;
/* Generated by software containing ST-Developer
 * from STEP Tools, Inc. (www.steptools.com) 
 */

FILE_DESCRIPTION(
/* description */ (''),
/* implementation_level */ '2;1');

FILE_NAME(
/* name */ 'Detachable_Stand.step',
/* time_stamp */ '2026-09-23T16:56:57+01:00',
/* author */ (''),
/* organization */ (''),
/* preprocessor_version */ 'ST-DEVELOPER v20.2',
/* originating_system */ 'Autodesk Translation Framework v15.15.0.0',
/* authorisation */ '');

FILE_SCHEMA (('AUTOMOTIVE_DESIGN { 1 0 10303 214 3 1 1 }'));
ENDSEC;

DATA;
#10=MECHANICAL_DESIGN_GEOMETRIC_PRESENTATION_REPRESENTATION('',(#13),#467);
#11=SHAPE_REPRESENTATION_RELATIONSHIP('SRR','None',#474,#12);
#12=ADVANCED_BREP_SHAPE_REPRESENTATION('',(#14),#466);
#13=STYLED_ITEM('',(#483),#14);
#14=MANIFOLD_SOLID_BREP('Body1',#287);
#15=FACE_BOUND('',#35,.T.);
#16=FACE_BOUND('',#36,.T.);
#17=FACE_OUTER_BOUND('',#33,.T.);
#18=FACE_OUTER_BOUND('',#34,.T.);
#19=FACE_OUTER_BOUND('',#37,.T.);
#20=FACE_OUTER_BOUND('',#38,.T.);
#21=FACE_OUTER_BOUND('',#39,.T.);
#22=FACE_OUTER_BOUND('',#40,.T.);
#23=FACE_OUTER_BOUND('',#41,.T.);
#24=FACE_OUTER_BOUND('',#42,.T.);
#25=FACE_OUTER_BOUND('',#43,.T.);
#26=FACE_OUTER_BOUND('',#44,.T.);
#27=FACE_OUTER_BOUND('',#45,.T.);
#28=FACE_OUTER_BOUND('',#46,.T.);
#29=FACE_OUTER_BOUND('',#47,.T.);
#30=FACE_OUTER_BOUND('',#48,.T.);
#31=FACE_OUTER_BOUND('',#49,.T.);
#32=FACE_OUTER_BOUND('',#50,.T.);
#33=EDGE_LOOP('',(#183,#184,#185,#186));
#34=EDGE_LOOP('',(#187,#188,#189,#190));
#35=EDGE_LOOP('',(#191,#192,#193,#194));
#36=EDGE_LOOP('',(#195,#196,#197,#198));
#37=EDGE_LOOP('',(#199,#200,#201,#202));
#38=EDGE_LOOP('',(#203,#204,#205,#206));
#39=EDGE_LOOP('',(#207,#208,#209,#210));
#40=EDGE_LOOP('',(#211,#212,#213,#214));
#41=EDGE_LOOP('',(#215,#216,#217,#218));
#42=EDGE_LOOP('',(#219,#220,#221,#222));
#43=EDGE_LOOP('',(#223,#224,#225,#226));
#44=EDGE_LOOP('',(#227,#228,#229,#230));
#45=EDGE_LOOP('',(#231,#232,#233,#234));
#46=EDGE_LOOP('',(#235,#236,#237,#238));
#47=EDGE_LOOP('',(#239,#240,#241,#242));
#48=EDGE_LOOP('',(#243,#244,#245,#246));
#49=EDGE_LOOP('',(#247,#248,#249,#250));
#50=EDGE_LOOP('',(#251,#252,#253,#254));
#51=LINE('',#391,#87);
#52=LINE('',#393,#88);
#53=LINE('',#395,#89);
#54=LINE('',#396,#90);
#55=LINE('',#399,#91);
#56=LINE('',#401,#92);
#57=LINE('',#402,#93);
#58=LINE('',#405,#94);
#59=LINE('',#407,#95);
#60=LINE('',#409,#96);
#61=LINE('',#410,#97);
#62=LINE('',#413,#98);
#63=LINE('',#415,#99);
#64=LINE('',#417,#100);
#65=LINE('',#418,#101);
#66=LINE('',#421,#102);
#67=LINE('',#422,#103);
#68=LINE('',#425,#104);
#69=LINE('',#426,#105);
#70=LINE('',#428,#106);
#71=LINE('',#432,#107);
#72=LINE('',#434,#108);
#73=LINE('',#435,#109);
#74=LINE('',#438,#110);
#75=LINE('',#439,#111);
#76=LINE('',#442,#112);
#77=LINE('',#443,#113);
#78=LINE('',#445,#114);
#79=LINE('',#449,#115);
#80=LINE('',#451,#116);
#81=LINE('',#452,#117);
#82=LINE('',#455,#118);
#83=LINE('',#456,#119);
#84=LINE('',#459,#120);
#85=LINE('',#460,#121);
#86=LINE('',#462,#122);
#87=VECTOR('',#321,10.);
#88=VECTOR('',#322,10.);
#89=VECTOR('',#323,10.);
#90=VECTOR('',#324,10.);
#91=VECTOR('',#327,10.);
#92=VECTOR('',#328,10.);
#93=VECTOR('',#329,10.);
#94=VECTOR('',#330,10.);
#95=VECTOR('',#331,10.);
#96=VECTOR('',#332,10.);
#97=VECTOR('',#333,10.);
#98=VECTOR('',#334,10.);
#99=VECTOR('',#335,10.);
#100=VECTOR('',#336,10.);
#101=VECTOR('',#337,10.);
#102=VECTOR('',#340,10.);
#103=VECTOR('',#341,10.);
#104=VECTOR('',#344,10.);
#105=VECTOR('',#345,10.);
#106=VECTOR('',#348,10.);
#107=VECTOR('',#353,10.);
#108=VECTOR('',#354,10.);
#109=VECTOR('',#355,10.);
#110=VECTOR('',#358,10.);
#111=VECTOR('',#359,10.);
#112=VECTOR('',#362,10.);
#113=VECTOR('',#363,10.);
#114=VECTOR('',#366,10.);
#115=VECTOR('',#371,10.);
#116=VECTOR('',#372,10.);
#117=VECTOR('',#373,10.);
#118=VECTOR('',#376,10.);
#119=VECTOR('',#377,10.);
#120=VECTOR('',#380,10.);
#121=VECTOR('',#381,10.);
#122=VECTOR('',#384,10.);
#123=VERTEX_POINT('',#389);
#124=VERTEX_POINT('',#390);
#125=VERTEX_POINT('',#392);
#126=VERTEX_POINT('',#394);
#127=VERTEX_POINT('',#398);
#128=VERTEX_POINT('',#400);
#129=VERTEX_POINT('',#403);
#130=VERTEX_POINT('',#404);
#131=VERTEX_POINT('',#406);
#132=VERTEX_POINT('',#408);
#133=VERTEX_POINT('',#411);
#134=VERTEX_POINT('',#412);
#135=VERTEX_POINT('',#414);
#136=VERTEX_POINT('',#416);
#137=VERTEX_POINT('',#420);
#138=VERTEX_POINT('',#424);
#139=VERTEX_POINT('',#431);
#140=VERTEX_POINT('',#433);
#141=VERTEX_POINT('',#437);
#142=VERTEX_POINT('',#441);
#143=VERTEX_POINT('',#448);
#144=VERTEX_POINT('',#450);
#145=VERTEX_POINT('',#454);
#146=VERTEX_POINT('',#458);
#147=EDGE_CURVE('',#123,#124,#51,.T.);
#148=EDGE_CURVE('',#125,#124,#52,.T.);
#149=EDGE_CURVE('',#125,#126,#53,.T.);
#150=EDGE_CURVE('',#126,#123,#54,.T.);
#151=EDGE_CURVE('',#126,#127,#55,.T.);
#152=EDGE_CURVE('',#128,#125,#56,.T.);
#153=EDGE_CURVE('',#127,#128,#57,.T.);
#154=EDGE_CURVE('',#129,#130,#58,.T.);
#155=EDGE_CURVE('',#131,#129,#59,.T.);
#156=EDGE_CURVE('',#132,#131,#60,.T.);
#157=EDGE_CURVE('',#130,#132,#61,.T.);
#158=EDGE_CURVE('',#133,#134,#62,.T.);
#159=EDGE_CURVE('',#135,#133,#63,.T.);
#160=EDGE_CURVE('',#136,#135,#64,.T.);
#161=EDGE_CURVE('',#134,#136,#65,.T.);
#162=EDGE_CURVE('',#124,#137,#66,.T.);
#163=EDGE_CURVE('',#128,#137,#67,.T.);
#164=EDGE_CURVE('',#137,#138,#68,.T.);
#165=EDGE_CURVE('',#127,#138,#69,.T.);
#166=EDGE_CURVE('',#138,#123,#70,.T.);
#167=EDGE_CURVE('',#134,#139,#71,.T.);
#168=EDGE_CURVE('',#140,#139,#72,.T.);
#169=EDGE_CURVE('',#133,#140,#73,.T.);
#170=EDGE_CURVE('',#141,#140,#74,.T.);
#171=EDGE_CURVE('',#135,#141,#75,.T.);
#172=EDGE_CURVE('',#142,#141,#76,.T.);
#173=EDGE_CURVE('',#136,#142,#77,.T.);
#174=EDGE_CURVE('',#139,#142,#78,.T.);
#175=EDGE_CURVE('',#130,#143,#79,.T.);
#176=EDGE_CURVE('',#144,#143,#80,.T.);
#177=EDGE_CURVE('',#129,#144,#81,.T.);
#178=EDGE_CURVE('',#145,#144,#82,.T.);
#179=EDGE_CURVE('',#131,#145,#83,.T.);
#180=EDGE_CURVE('',#146,#145,#84,.T.);
#181=EDGE_CURVE('',#132,#146,#85,.T.);
#182=EDGE_CURVE('',#143,#146,#86,.T.);
#183=ORIENTED_EDGE('',*,*,#147,.T.);
#184=ORIENTED_EDGE('',*,*,#148,.F.);
#185=ORIENTED_EDGE('',*,*,#149,.T.);
#186=ORIENTED_EDGE('',*,*,#150,.T.);
#187=ORIENTED_EDGE('',*,*,#151,.F.);
#188=ORIENTED_EDGE('',*,*,#149,.F.);
#189=ORIENTED_EDGE('',*,*,#152,.F.);
#190=ORIENTED_EDGE('',*,*,#153,.F.);
#191=ORIENTED_EDGE('',*,*,#154,.F.);
#192=ORIENTED_EDGE('',*,*,#155,.F.);
#193=ORIENTED_EDGE('',*,*,#156,.F.);
#194=ORIENTED_EDGE('',*,*,#157,.F.);
#195=ORIENTED_EDGE('',*,*,#158,.F.);
#196=ORIENTED_EDGE('',*,*,#159,.F.);
#197=ORIENTED_EDGE('',*,*,#160,.F.);
#198=ORIENTED_EDGE('',*,*,#161,.F.);
#199=ORIENTED_EDGE('',*,*,#162,.T.);
#200=ORIENTED_EDGE('',*,*,#163,.F.);
#201=ORIENTED_EDGE('',*,*,#152,.T.);
#202=ORIENTED_EDGE('',*,*,#148,.T.);
#203=ORIENTED_EDGE('',*,*,#164,.T.);
#204=ORIENTED_EDGE('',*,*,#165,.F.);
#205=ORIENTED_EDGE('',*,*,#153,.T.);
#206=ORIENTED_EDGE('',*,*,#163,.T.);
#207=ORIENTED_EDGE('',*,*,#166,.T.);
#208=ORIENTED_EDGE('',*,*,#150,.F.);
#209=ORIENTED_EDGE('',*,*,#151,.T.);
#210=ORIENTED_EDGE('',*,*,#165,.T.);
#211=ORIENTED_EDGE('',*,*,#147,.F.);
#212=ORIENTED_EDGE('',*,*,#166,.F.);
#213=ORIENTED_EDGE('',*,*,#164,.F.);
#214=ORIENTED_EDGE('',*,*,#162,.F.);
#215=ORIENTED_EDGE('',*,*,#158,.T.);
#216=ORIENTED_EDGE('',*,*,#167,.T.);
#217=ORIENTED_EDGE('',*,*,#168,.F.);
#218=ORIENTED_EDGE('',*,*,#169,.F.);
#219=ORIENTED_EDGE('',*,*,#159,.T.);
#220=ORIENTED_EDGE('',*,*,#169,.T.);
#221=ORIENTED_EDGE('',*,*,#170,.F.);
#222=ORIENTED_EDGE('',*,*,#171,.F.);
#223=ORIENTED_EDGE('',*,*,#160,.T.);
#224=ORIENTED_EDGE('',*,*,#171,.T.);
#225=ORIENTED_EDGE('',*,*,#172,.F.);
#226=ORIENTED_EDGE('',*,*,#173,.F.);
#227=ORIENTED_EDGE('',*,*,#161,.T.);
#228=ORIENTED_EDGE('',*,*,#173,.T.);
#229=ORIENTED_EDGE('',*,*,#174,.F.);
#230=ORIENTED_EDGE('',*,*,#167,.F.);
#231=ORIENTED_EDGE('',*,*,#174,.T.);
#232=ORIENTED_EDGE('',*,*,#172,.T.);
#233=ORIENTED_EDGE('',*,*,#170,.T.);
#234=ORIENTED_EDGE('',*,*,#168,.T.);
#235=ORIENTED_EDGE('',*,*,#154,.T.);
#236=ORIENTED_EDGE('',*,*,#175,.T.);
#237=ORIENTED_EDGE('',*,*,#176,.F.);
#238=ORIENTED_EDGE('',*,*,#177,.F.);
#239=ORIENTED_EDGE('',*,*,#155,.T.);
#240=ORIENTED_EDGE('',*,*,#177,.T.);
#241=ORIENTED_EDGE('',*,*,#178,.F.);
#242=ORIENTED_EDGE('',*,*,#179,.F.);
#243=ORIENTED_EDGE('',*,*,#156,.T.);
#244=ORIENTED_EDGE('',*,*,#179,.T.);
#245=ORIENTED_EDGE('',*,*,#180,.F.);
#246=ORIENTED_EDGE('',*,*,#181,.F.);
#247=ORIENTED_EDGE('',*,*,#157,.T.);
#248=ORIENTED_EDGE('',*,*,#181,.T.);
#249=ORIENTED_EDGE('',*,*,#182,.F.);
#250=ORIENTED_EDGE('',*,*,#175,.F.);
#251=ORIENTED_EDGE('',*,*,#182,.T.);
#252=ORIENTED_EDGE('',*,*,#180,.T.);
#253=ORIENTED_EDGE('',*,*,#178,.T.);
#254=ORIENTED_EDGE('',*,*,#176,.T.);
#255=PLANE('',#301);
#256=PLANE('',#302);
#257=PLANE('',#303);
#258=PLANE('',#304);
#259=PLANE('',#305);
#260=PLANE('',#306);
#261=PLANE('',#307);
#262=PLANE('',#308);
#263=PLANE('',#309);
#264=PLANE('',#310);
#265=PLANE('',#311);
#266=PLANE('',#312);
#267=PLANE('',#313);
#268=PLANE('',#314);
#269=PLANE('',#315);
#270=PLANE('',#316);
#271=ADVANCED_FACE('',(#17),#255,.F.);
#272=ADVANCED_FACE('',(#18,#15,#16),#256,.F.);
#273=ADVANCED_FACE('',(#19),#257,.T.);
#274=ADVANCED_FACE('',(#20),#258,.T.);
#275=ADVANCED_FACE('',(#21),#259,.T.);
#276=ADVANCED_FACE('',(#22),#260,.T.);
#277=ADVANCED_FACE('',(#23),#261,.T.);
#278=ADVANCED_FACE('',(#24),#262,.T.);
#279=ADVANCED_FACE('',(#25),#263,.T.);
#280=ADVANCED_FACE('',(#26),#264,.T.);
#281=ADVANCED_FACE('',(#27),#265,.T.);
#282=ADVANCED_FACE('',(#28),#266,.T.);
#283=ADVANCED_FACE('',(#29),#267,.T.);
#284=ADVANCED_FACE('',(#30),#268,.T.);
#285=ADVANCED_FACE('',(#31),#269,.T.);
#286=ADVANCED_FACE('',(#32),#270,.T.);
#287=CLOSED_SHELL('',(#271,#272,#273,#274,#275,#276,#277,#278,#279,#280,
#281,#282,#283,#284,#285,#286));
#288=DERIVED_UNIT_ELEMENT(#290,1.);
#289=DERIVED_UNIT_ELEMENT(#469,-3.);
#290=(
MASS_UNIT()
NAMED_UNIT(*)
SI_UNIT(.KILO.,.GRAM.)
);
#291=DERIVED_UNIT((#288,#289));
#292=MEASURE_REPRESENTATION_ITEM('density measure',
POSITIVE_RATIO_MEASURE(7850.),#291);
#293=PROPERTY_DEFINITION_REPRESENTATION(#298,#295);
#294=PROPERTY_DEFINITION_REPRESENTATION(#299,#296);
#295=REPRESENTATION('material name',(#297),#466);
#296=REPRESENTATION('density',(#292),#466);
#297=DESCRIPTIVE_REPRESENTATION_ITEM('Steel','Steel');
#298=PROPERTY_DEFINITION('material property','material name',#476);
#299=PROPERTY_DEFINITION('material property','density of part',#476);
#300=AXIS2_PLACEMENT_3D('',#387,#317,#318);
#301=AXIS2_PLACEMENT_3D('',#388,#319,#320);
#302=AXIS2_PLACEMENT_3D('',#397,#325,#326);
#303=AXIS2_PLACEMENT_3D('',#419,#338,#339);
#304=AXIS2_PLACEMENT_3D('',#423,#342,#343);
#305=AXIS2_PLACEMENT_3D('',#427,#346,#347);
#306=AXIS2_PLACEMENT_3D('',#429,#349,#350);
#307=AXIS2_PLACEMENT_3D('',#430,#351,#352);
#308=AXIS2_PLACEMENT_3D('',#436,#356,#357);
#309=AXIS2_PLACEMENT_3D('',#440,#360,#361);
#310=AXIS2_PLACEMENT_3D('',#444,#364,#365);
#311=AXIS2_PLACEMENT_3D('',#446,#367,#368);
#312=AXIS2_PLACEMENT_3D('',#447,#369,#370);
#313=AXIS2_PLACEMENT_3D('',#453,#374,#375);
#314=AXIS2_PLACEMENT_3D('',#457,#378,#379);
#315=AXIS2_PLACEMENT_3D('',#461,#382,#383);
#316=AXIS2_PLACEMENT_3D('',#463,#385,#386);
#317=DIRECTION('axis',(0.,0.,1.));
#318=DIRECTION('refdir',(1.,0.,0.));
#319=DIRECTION('center_axis',(9.7699626167014E-14,0.0871557427476601,-0.996194698091745));
#320=DIRECTION('ref_axis',(-1.,0.,-9.80728228670177E-14));
#321=DIRECTION('',(1.,0.,1.0011148997913E-13));
#322=DIRECTION('',(-0.0868265938642475,-0.992432509138966,-0.0868265938642561));
#323=DIRECTION('',(-1.,0.,-1.0011148997913E-13));
#324=DIRECTION('',(0.0868265938642476,-0.992432509138968,-0.0868265938642389));
#325=DIRECTION('center_axis',(0.,-1.,0.));
#326=DIRECTION('ref_axis',(1.,0.,0.));
#327=DIRECTION('',(0.,0.,-1.));
#328=DIRECTION('',(0.,0.,1.));
#329=DIRECTION('',(1.,0.,0.));
#330=DIRECTION('',(-1.,0.,0.));
#331=DIRECTION('',(0.,0.,-1.));
#332=DIRECTION('',(1.,0.,0.));
#333=DIRECTION('',(0.,0.,1.));
#334=DIRECTION('',(0.,0.,-1.));
#335=DIRECTION('',(1.,0.,0.));
#336=DIRECTION('',(0.,0.,1.));
#337=DIRECTION('',(-1.,0.,0.));
#338=DIRECTION('center_axis',(0.996194698091746,-0.0871557427476582,0.));
#339=DIRECTION('ref_axis',(0.,0.,1.));
#340=DIRECTION('',(0.,0.,-1.));
#341=DIRECTION('',(-0.0868265938642476,-0.992432509138967,0.0868265938642476));
#342=DIRECTION('center_axis',(0.,-0.0871557427476582,-0.996194698091746));
#343=DIRECTION('ref_axis',(1.,0.,0.));
#344=DIRECTION('',(-1.,0.,0.));
#345=DIRECTION('',(0.0868265938642476,-0.992432509138967,0.0868265938642476));
#346=DIRECTION('center_axis',(-0.996194698091746,-0.0871557427476582,0.));
#347=DIRECTION('ref_axis',(0.,0.,-1.));
#348=DIRECTION('',(0.,0.,1.));
#349=DIRECTION('center_axis',(0.,-1.,0.));
#350=DIRECTION('ref_axis',(1.,0.,0.));
#351=DIRECTION('center_axis',(1.,0.,0.));
#352=DIRECTION('ref_axis',(0.,0.,-1.));
#353=DIRECTION('',(0.,1.,0.));
#354=DIRECTION('',(0.,0.,-1.));
#355=DIRECTION('',(0.,1.,0.));
#356=DIRECTION('center_axis',(0.,0.,1.));
#357=DIRECTION('ref_axis',(1.,0.,0.));
#358=DIRECTION('',(1.,0.,0.));
#359=DIRECTION('',(0.,1.,0.));
#360=DIRECTION('center_axis',(-1.,0.,0.));
#361=DIRECTION('ref_axis',(0.,0.,1.));
#362=DIRECTION('',(0.,0.,1.));
#363=DIRECTION('',(0.,1.,0.));
#364=DIRECTION('center_axis',(0.,0.,-1.));
#365=DIRECTION('ref_axis',(-1.,0.,0.));
#366=DIRECTION('',(-1.,0.,0.));
#367=DIRECTION('center_axis',(0.,1.,0.));
#368=DIRECTION('ref_axis',(0.,0.,1.));
#369=DIRECTION('center_axis',(0.,0.,-1.));
#370=DIRECTION('ref_axis',(-1.,0.,0.));
#371=DIRECTION('',(0.,1.,0.));
#372=DIRECTION('',(-1.,0.,0.));
#373=DIRECTION('',(0.,1.,0.));
#374=DIRECTION('center_axis',(1.,0.,0.));
#375=DIRECTION('ref_axis',(0.,0.,-1.));
#376=DIRECTION('',(0.,0.,-1.));
#377=DIRECTION('',(0.,1.,0.));
#378=DIRECTION('center_axis',(0.,0.,1.));
#379=DIRECTION('ref_axis',(1.,0.,0.));
#380=DIRECTION('',(1.,0.,0.));
#381=DIRECTION('',(0.,1.,0.));
#382=DIRECTION('center_axis',(-1.,0.,0.));
#383=DIRECTION('ref_axis',(0.,0.,1.));
#384=DIRECTION('',(0.,0.,1.));
#385=DIRECTION('center_axis',(0.,1.,0.));
#386=DIRECTION('ref_axis',(0.,0.,1.));
#387=CARTESIAN_POINT('',(0.,0.,0.));
#388=CARTESIAN_POINT('Origin',(-57.4,-4.44089209850063E-15,42.0000006258442));
#389=CARTESIAN_POINT('',(-55.6502267294815,-20.,40.2502273553258));
#390=CARTESIAN_POINT('',(-12.7497732705184,-20.,40.2502273553301));
#391=CARTESIAN_POINT('',(-10.9999999999998,-20.,40.2502273553303));
#392=CARTESIAN_POINT('',(-11.,0.,42.0000006258488));
#393=CARTESIAN_POINT('',(-11.1749014917279,-1.99913319828169,41.8250991341208));
#394=CARTESIAN_POINT('',(-57.4,0.,42.0000006258441));
#395=CARTESIAN_POINT('',(-11.,0.,42.0000006258488));
#396=CARTESIAN_POINT('',(-57.3849222849712,-0.172339071385206,41.9849229108154));
#397=CARTESIAN_POINT('Origin',(-34.2,0.,40.0000005960465));
#398=CARTESIAN_POINT('',(-57.4,0.,38.0000005662441));
#399=CARTESIAN_POINT('',(-57.4,0.,42.0000006258441));
#400=CARTESIAN_POINT('',(-11.,0.,38.0000005662441));
#401=CARTESIAN_POINT('',(-11.,0.,38.0000005662441));
#402=CARTESIAN_POINT('',(-57.4,0.,38.0000005662441));
#403=CARTESIAN_POINT('',(-50.4,0.,39.2426406871193));
#404=CARTESIAN_POINT('',(-52.4,0.,39.2426406871193));
#405=CARTESIAN_POINT('',(-50.4,0.,39.2426406871193));
#406=CARTESIAN_POINT('',(-50.4,0.,41.2426406871193));
#407=CARTESIAN_POINT('',(-50.4,0.,41.2426406871193));
#408=CARTESIAN_POINT('',(-52.4,0.,41.2426406871193));
#409=CARTESIAN_POINT('',(-52.4,0.,41.2426406871193));
#410=CARTESIAN_POINT('',(-52.4,0.,39.2426406871193));
#411=CARTESIAN_POINT('',(-16.,0.,41.2426406871193));
#412=CARTESIAN_POINT('',(-16.,0.,39.2426406871193));
#413=CARTESIAN_POINT('',(-16.,0.,41.2426406871193));
#414=CARTESIAN_POINT('',(-18.,0.,41.2426406871193));
#415=CARTESIAN_POINT('',(-18.,0.,41.2426406871193));
#416=CARTESIAN_POINT('',(-18.,0.,39.2426406871193));
#417=CARTESIAN_POINT('',(-18.,0.,39.2426406871193));
#418=CARTESIAN_POINT('',(-16.,0.,39.2426406871193));
#419=CARTESIAN_POINT('Origin',(-11.,0.,42.0000006258488));
#420=CARTESIAN_POINT('',(-12.7497732705184,-20.,39.7497738367626));
#421=CARTESIAN_POINT('',(-12.7497732705184,-20.,38.0000005662441));
#422=CARTESIAN_POINT('',(-11.0150777150288,-0.172339071385423,38.0150782812729));
#423=CARTESIAN_POINT('Origin',(-11.,0.,38.0000005662441));
#424=CARTESIAN_POINT('',(-55.6502267294815,-20.,39.7497738367626));
#425=CARTESIAN_POINT('',(-57.4,-20.,39.7497738367626));
#426=CARTESIAN_POINT('',(-57.225098508272,-1.9991331982815,38.1749020579721));
#427=CARTESIAN_POINT('Origin',(-57.4,0.,38.0000005662441));
#428=CARTESIAN_POINT('',(-55.6502267294815,-20.,42.0000006258441));
#429=CARTESIAN_POINT('Origin',(-34.2,-20.,40.0000005960465));
#430=CARTESIAN_POINT('Origin',(-16.,0.,41.2426406871193));
#431=CARTESIAN_POINT('',(-16.,2.,39.2426406871193));
#432=CARTESIAN_POINT('',(-16.,0.,39.2426406871193));
#433=CARTESIAN_POINT('',(-16.,2.,41.2426406871193));
#434=CARTESIAN_POINT('',(-16.,2.,41.2426406871193));
#435=CARTESIAN_POINT('',(-16.,0.,41.2426406871193));
#436=CARTESIAN_POINT('Origin',(-18.,0.,41.2426406871193));
#437=CARTESIAN_POINT('',(-18.,2.,41.2426406871193));
#438=CARTESIAN_POINT('',(-18.,2.,41.2426406871193));
#439=CARTESIAN_POINT('',(-18.,0.,41.2426406871193));
#440=CARTESIAN_POINT('Origin',(-18.,0.,39.2426406871193));
#441=CARTESIAN_POINT('',(-18.,2.,39.2426406871193));
#442=CARTESIAN_POINT('',(-18.,2.,39.2426406871193));
#443=CARTESIAN_POINT('',(-18.,0.,39.2426406871193));
#444=CARTESIAN_POINT('Origin',(-16.,0.,39.2426406871193));
#445=CARTESIAN_POINT('',(-16.,2.,39.2426406871193));
#446=CARTESIAN_POINT('Origin',(-17.,2.,40.2426406871193));
#447=CARTESIAN_POINT('Origin',(-50.4,0.,39.2426406871193));
#448=CARTESIAN_POINT('',(-52.4,2.,39.2426406871193));
#449=CARTESIAN_POINT('',(-52.4,0.,39.2426406871193));
#450=CARTESIAN_POINT('',(-50.4,2.,39.2426406871193));
#451=CARTESIAN_POINT('',(-50.4,2.,39.2426406871193));
#452=CARTESIAN_POINT('',(-50.4,0.,39.2426406871193));
#453=CARTESIAN_POINT('Origin',(-50.4,0.,41.2426406871193));
#454=CARTESIAN_POINT('',(-50.4,2.,41.2426406871193));
#455=CARTESIAN_POINT('',(-50.4,2.,41.2426406871193));
#456=CARTESIAN_POINT('',(-50.4,0.,41.2426406871193));
#457=CARTESIAN_POINT('Origin',(-52.4,0.,41.2426406871193));
#458=CARTESIAN_POINT('',(-52.4,2.,41.2426406871193));
#459=CARTESIAN_POINT('',(-52.4,2.,41.2426406871193));
#460=CARTESIAN_POINT('',(-52.4,0.,41.2426406871193));
#461=CARTESIAN_POINT('Origin',(-52.4,0.,39.2426406871193));
#462=CARTESIAN_POINT('',(-52.4,2.,39.2426406871193));
#463=CARTESIAN_POINT('Origin',(-51.3999999999999,2.,40.2426406871193));
#464=UNCERTAINTY_MEASURE_WITH_UNIT(LENGTH_MEASURE(0.01),#468,
'DISTANCE_ACCURACY_VALUE',
'Maximum model space distance between geometric entities at asserted c
onnectivities');
#465=UNCERTAINTY_MEASURE_WITH_UNIT(LENGTH_MEASURE(0.01),#468,
'DISTANCE_ACCURACY_VALUE',
'Maximum model space distance between geometric entities at asserted c
onnectivities');
#466=(
GEOMETRIC_REPRESENTATION_CONTEXT(3)
GLOBAL_UNCERTAINTY_ASSIGNED_CONTEXT((#464))
GLOBAL_UNIT_ASSIGNED_CONTEXT((#468,#470,#471))
REPRESENTATION_CONTEXT('','3D')
);
#467=(
GEOMETRIC_REPRESENTATION_CONTEXT(3)
GLOBAL_UNCERTAINTY_ASSIGNED_CONTEXT((#465))
GLOBAL_UNIT_ASSIGNED_CONTEXT((#468,#470,#471))
REPRESENTATION_CONTEXT('','3D')
);
#468=(
LENGTH_UNIT()
NAMED_UNIT(*)
SI_UNIT(.MILLI.,.METRE.)
);
#469=(
LENGTH_UNIT()
NAMED_UNIT(*)
SI_UNIT($,.METRE.)
);
#470=(
NAMED_UNIT(*)
PLANE_ANGLE_UNIT()
SI_UNIT($,.RADIAN.)
);
#471=(
NAMED_UNIT(*)
SI_UNIT($,.STERADIAN.)
SOLID_ANGLE_UNIT()
);
#472=SHAPE_DEFINITION_REPRESENTATION(#473,#474);
#473=PRODUCT_DEFINITION_SHAPE('',$,#476);
#474=SHAPE_REPRESENTATION('',(#300),#466);
#475=PRODUCT_DEFINITION_CONTEXT('part definition',#480,'design');
#476=PRODUCT_DEFINITION('2026-09-23-16-56-57-872','Detachable stand',#477,
#475);
#477=PRODUCT_DEFINITION_FORMATION('',$,#482);
#478=PRODUCT_RELATED_PRODUCT_CATEGORY('Detachable stand',
'Detachable stand',(#482));
#479=APPLICATION_PROTOCOL_DEFINITION('international standard',
'automotive_design',2009,#480);
#480=APPLICATION_CONTEXT(
'Core Data for Automotive Mechanical Design Process');
#481=PRODUCT_CONTEXT('part definition',#480,'mechanical');
#482=PRODUCT('2026-09-23-16-56-57-872','Detachable stand',$,(#481));
#483=PRESENTATION_STYLE_ASSIGNMENT((#484));
#484=SURFACE_STYLE_USAGE(.BOTH.,#485);
#485=SURFACE_SIDE_STYLE('',(#486));
#486=SURFACE_STYLE_FILL_AREA(#487);
#487=FILL_AREA_STYLE('Steel - Satin',(#488));
#488=FILL_AREA_STYLE_COLOUR('Steel - Satin',#489);
#489=COLOUR_RGB('Steel - Satin',0.627450980392157,0.627450980392157,0.627450980392157);
ENDSEC;
END-ISO-10303-21;
