ISO-10303-21;
HEADER;
/* Generated by software containing ST-Developer
 * from STEP Tools, Inc. (www.steptools.com) 
 */

FILE_DESCRIPTION(
/* description */ (''),
/* implementation_level */ '2;1');

FILE_NAME(
/* name */ 'Encoder_Knob.step',
/* time_stamp */ '2026-09-24T19:05:23+01:00',
/* author */ (''),
/* organization */ (''),
/* preprocessor_version */ 'ST-DEVELOPER v20.2',
/* originating_system */ 'Autodesk Translation Framework v15.15.0.0',
/* authorisation */ '');

FILE_SCHEMA (('AUTOMOTIVE_DESIGN { 1 0 10303 214 3 1 1 }'));
ENDSEC;

DATA;
#10=MECHANICAL_DESIGN_GEOMETRIC_PRESENTATION_REPRESENTATION('',(#13),#764);
#11=SHAPE_REPRESENTATION_RELATIONSHIP('SRR','None',#771,#12);
#12=ADVANCED_BREP_SHAPE_REPRESENTATION('',(#14),#763);
#13=STYLED_ITEM('',(#780),#14);
#14=MANIFOLD_SOLID_BREP('Body1',#284);
#15=FACE_BOUND('',#58,.T.);
#16=FACE_BOUND('',#61,.T.);
#17=B_SPLINE_SURFACE_WITH_KNOTS('',3,3,((#487,#488,#489,#490),(#491,#492,
#493,#494),(#495,#496,#497,#498),(#499,#500,#501,#502),(#503,#504,#505,
#506),(#507,#508,#509,#510),(#511,#512,#513,#514),(#515,#516,#517,#518),
(#519,#520,#521,#522),(#523,#524,#525,#526)),.UNSPECIFIED.,.F.,.F.,.F.,
(4,1,1,1,1,1,1,4),(4,4),(-3.71700017015425,-3.26688373714243,-2.81676730413061,
-2.36665087111878,-1.91653443810696,-1.46641800509513,-1.01630157208331,
-0.566185139071485),(-0.05,0.),.UNSPECIFIED.);
#18=B_SPLINE_SURFACE_WITH_KNOTS('',3,3,((#552,#553,#554,#555),(#556,#557,
#558,#559),(#560,#561,#562,#563),(#564,#565,#566,#567),(#568,#569,#570,
#571),(#572,#573,#574,#575),(#576,#577,#578,#579),(#580,#581,#582,#583),
(#584,#585,#586,#587),(#588,#589,#590,#591)),.UNSPECIFIED.,.F.,.F.,.F.,
(4,1,1,1,1,1,1,4),(4,4),(-0.751670150202347,-0.251192964424882,0.249284221352582,
0.749761407130047,1.25023859290751,1.75071577868498,2.25119296446244,2.75167015023991),
(-0.05,0.),.UNSPECIFIED.);
#19=B_SPLINE_SURFACE_WITH_KNOTS('',3,3,((#616,#617,#618,#619),(#620,#621,
#622,#623),(#624,#625,#626,#627),(#628,#629,#630,#631),(#632,#633,#634,
#635),(#636,#637,#638,#639),(#640,#641,#642,#643),(#644,#645,#646,#647),
(#648,#649,#650,#651),(#652,#653,#654,#655),(#656,#657,#658,#659),(#660,
#661,#662,#663),(#664,#665,#666,#667),(#668,#669,#670,#671),(#672,#673,
#674,#675),(#676,#677,#678,#679),(#680,#681,#682,#683),(#684,#685,#686,
#687)),.UNSPECIFIED.,.F.,.F.,.F.,(4,1,1,1,1,1,1,1,1,1,1,1,1,1,1,4),(4,4),
(-8.30821015003782,-7.87606374416525,-7.44391733829268,-7.01177093242011,
-6.57962452654754,-6.2915269226325,-5.7153317148024,-5.42723411088736,-5.13913650697231,
-4.85103890305727,-4.4188924971847,-3.98674609131213,-3.55459968543956,
-3.12245327956699,-2.69030687369442,-2.25816046782185),(-0.05,0.),
 .UNSPECIFIED.);
#20=B_SPLINE_SURFACE_WITH_KNOTS('',3,3,((#704,#705,#706,#707),(#708,#709,
#710,#711),(#712,#713,#714,#715),(#716,#717,#718,#719),(#720,#721,#722,
#723),(#724,#725,#726,#727),(#728,#729,#730,#731),(#732,#733,#734,#735),
(#736,#737,#738,#739),(#740,#741,#742,#743)),.UNSPECIFIED.,.F.,.F.,.F.,
(4,1,1,1,1,1,1,4),(4,4),(-0.785398163397448,-0.33659921288462,0.112199737628208,
0.560998688141036,1.00979763865386,1.45859658916669,1.90739553967952,2.35619449019235),
(-0.05,0.),.UNSPECIFIED.);
#21=PLANE('',#307);
#22=PLANE('',#318);
#23=PLANE('',#322);
#24=PLANE('',#323);
#25=PLANE('',#324);
#26=FACE_OUTER_BOUND('',#43,.T.);
#27=FACE_OUTER_BOUND('',#44,.T.);
#28=FACE_OUTER_BOUND('',#45,.T.);
#29=FACE_OUTER_BOUND('',#46,.T.);
#30=FACE_OUTER_BOUND('',#47,.T.);
#31=FACE_OUTER_BOUND('',#48,.T.);
#32=FACE_OUTER_BOUND('',#49,.T.);
#33=FACE_OUTER_BOUND('',#50,.T.);
#34=FACE_OUTER_BOUND('',#51,.T.);
#35=FACE_OUTER_BOUND('',#52,.T.);
#36=FACE_OUTER_BOUND('',#53,.T.);
#37=FACE_OUTER_BOUND('',#54,.T.);
#38=FACE_OUTER_BOUND('',#55,.T.);
#39=FACE_OUTER_BOUND('',#56,.T.);
#40=FACE_OUTER_BOUND('',#57,.T.);
#41=FACE_OUTER_BOUND('',#59,.T.);
#42=FACE_OUTER_BOUND('',#60,.T.);
#43=EDGE_LOOP('',(#181,#182,#183,#184,#185,#186,#187,#188,#189,#190,#191,
#192,#193));
#44=EDGE_LOOP('',(#194,#195,#196,#197));
#45=EDGE_LOOP('',(#198));
#46=EDGE_LOOP('',(#199,#200));
#47=EDGE_LOOP('',(#201,#202,#203,#204));
#48=EDGE_LOOP('',(#205,#206,#207));
#49=EDGE_LOOP('',(#208,#209));
#50=EDGE_LOOP('',(#210,#211,#212,#213));
#51=EDGE_LOOP('',(#214,#215));
#52=EDGE_LOOP('',(#216,#217,#218,#219,#220,#221));
#53=EDGE_LOOP('',(#222,#223));
#54=EDGE_LOOP('',(#224,#225,#226,#227));
#55=EDGE_LOOP('',(#228,#229));
#56=EDGE_LOOP('',(#230,#231,#232,#233));
#57=EDGE_LOOP('',(#234,#235,#236,#237,#238,#239,#240,#241,#242));
#58=EDGE_LOOP('',(#243));
#59=EDGE_LOOP('',(#244,#245,#246,#247));
#60=EDGE_LOOP('',(#248,#249,#250,#251,#252,#253,#254,#255,#256));
#61=EDGE_LOOP('',(#257,#258));
#62=B_SPLINE_CURVE_WITH_KNOTS('',3,(#404,#405,#406,#407,#408,#409,#410,
#411,#412,#413),.UNSPECIFIED.,.F.,.F.,(4,1,1,1,1,1,1,4),(-2.75167015023991,
-2.25119296446244,-1.75071577868498,-1.25023859290751,-0.749761407130047,
-0.249284221352582,0.251192964424882,0.751670150202347),.UNSPECIFIED.);
#63=B_SPLINE_CURVE_WITH_KNOTS('',3,(#417,#418,#419,#420,#421,#422,#423,
#424,#425,#426,#427,#428,#429,#430),.UNSPECIFIED.,.F.,.F.,(4,1,1,1,1,1,
1,1,1,1,1,4),(2.25816046782185,2.69030687369442,3.12245327956699,3.55459968543956,
3.98674609131213,4.4188924971847,4.85103890305727,5.13913650697231,5.42723411088736,
5.7153317148024,6.2915269226325,6.31026928473662),.UNSPECIFIED.);
#64=B_SPLINE_CURVE_WITH_KNOTS('',3,(#436,#437,#438,#439,#440,#441,#442,
#443,#444,#445),.UNSPECIFIED.,.F.,.F.,(4,1,1,1,1,1,1,4),(-2.35619449019235,
-1.90739553967952,-1.45859658916669,-1.00979763865386,-0.560998688141036,
-0.112199737628208,0.33659921288462,0.785398163397448),.UNSPECIFIED.);
#65=B_SPLINE_CURVE_WITH_KNOTS('',3,(#449,#450,#451,#452,#453,#454,#455,
#456,#457,#458),.UNSPECIFIED.,.F.,.F.,(4,1,1,1,1,1,1,4),(0.566185139071485,
1.01630157208331,1.46641800509513,1.91653443810696,2.36665087111878,2.81676730413061,
3.26688373714243,3.71700017015425),.UNSPECIFIED.);
#66=B_SPLINE_CURVE_WITH_KNOTS('',3,(#460,#461,#462,#463,#464,#465),
 .UNSPECIFIED.,.F.,.F.,(4,1,1,4),(6.31026928473662,6.57962452654754,7.01177093242011,
7.3976367996699),.UNSPECIFIED.);
#67=B_SPLINE_CURVE_WITH_KNOTS('',3,(#476,#477,#478,#479,#480,#481,#482,
#483,#484,#485),.UNSPECIFIED.,.F.,.F.,(4,1,1,1,1,1,1,4),(-3.71700017015425,
-3.26688373714243,-2.81676730413061,-2.36665087111878,-1.91653443810696,
-1.46641800509513,-1.01630157208331,-0.566185139071485),.UNSPECIFIED.);
#68=B_SPLINE_CURVE_WITH_KNOTS('',3,(#531,#532,#533,#534,#535,#536),
 .UNSPECIFIED.,.F.,.F.,(4,1,1,4),(7.3976367996699,7.44391733829268,7.87606374416525,
8.30821015003782),.UNSPECIFIED.);
#69=B_SPLINE_CURVE_WITH_KNOTS('',3,(#541,#542,#543,#544,#545,#546,#547,
#548,#549,#550),.UNSPECIFIED.,.F.,.F.,(4,1,1,1,1,1,1,4),(-0.751670150202347,
-0.251192964424882,0.249284221352582,0.749761407130047,1.25023859290751,
1.75071577868498,2.25119296446244,2.75167015023991),.UNSPECIFIED.);
#70=B_SPLINE_CURVE_WITH_KNOTS('',3,(#597,#598,#599,#600,#601,#602,#603,
#604,#605,#606,#607,#608,#609,#610,#611,#612,#613,#614),.UNSPECIFIED.,.F.,
 .F.,(4,1,1,1,1,1,1,1,1,1,1,1,1,1,1,4),(-8.30821015003782,-7.87606374416525,
-7.44391733829268,-7.01177093242011,-6.57962452654754,-6.2915269226325,
-5.7153317148024,-5.42723411088736,-5.13913650697231,-4.85103890305727,
-4.4188924971847,-3.98674609131213,-3.55459968543956,-3.12245327956699,
-2.69030687369442,-2.25816046782185),.UNSPECIFIED.);
#71=B_SPLINE_CURVE_WITH_KNOTS('',3,(#693,#694,#695,#696,#697,#698,#699,
#700,#701,#702),.UNSPECIFIED.,.F.,.F.,(4,1,1,1,1,1,1,4),(-0.785398163397448,
-0.33659921288462,0.112199737628208,0.560998688141036,1.00979763865386,
1.45859658916669,1.90739553967952,2.35619449019235),.UNSPECIFIED.);
#72=CIRCLE('',#299,5.865);
#73=CIRCLE('',#300,5.865);
#74=CIRCLE('',#301,5.865);
#75=CIRCLE('',#302,5.865);
#76=CIRCLE('',#303,5.865);
#77=CIRCLE('',#305,3.06);
#78=CIRCLE('',#306,3.06);
#79=CIRCLE('',#309,5.355);
#80=CIRCLE('',#311,5.865);
#81=CIRCLE('',#313,5.355);
#82=CIRCLE('',#315,5.355);
#83=CIRCLE('',#317,5.355);
#84=CIRCLE('',#319,3.06);
#85=CIRCLE('',#321,3.06);
#86=LINE('',#400,#101);
#87=LINE('',#432,#102);
#88=LINE('',#470,#103);
#89=LINE('',#527,#104);
#90=LINE('',#528,#105);
#91=LINE('',#592,#106);
#92=LINE('',#593,#107);
#93=LINE('',#688,#108);
#94=LINE('',#689,#109);
#95=LINE('',#744,#110);
#96=LINE('',#745,#111);
#97=LINE('',#750,#112);
#98=LINE('',#753,#113);
#99=LINE('',#756,#114);
#100=LINE('',#759,#115);
#101=VECTOR('',#329,5.865);
#102=VECTOR('',#334,5.865);
#103=VECTOR('',#345,3.06);
#104=VECTOR('',#354,10.2);
#105=VECTOR('',#355,10.2);
#106=VECTOR('',#364,10.2);
#107=VECTOR('',#365,10.2);
#108=VECTOR('',#370,10.2);
#109=VECTOR('',#371,10.2);
#110=VECTOR('',#376,10.2);
#111=VECTOR('',#377,10.2);
#112=VECTOR('',#382,10.2);
#113=VECTOR('',#385,10.2);
#114=VECTOR('',#388,10.2);
#115=VECTOR('',#393,10.2);
#116=VERTEX_POINT('',#398);
#117=VERTEX_POINT('',#399);
#118=VERTEX_POINT('',#401);
#119=VERTEX_POINT('',#403);
#120=VERTEX_POINT('',#414);
#121=VERTEX_POINT('',#416);
#122=VERTEX_POINT('',#431);
#123=VERTEX_POINT('',#433);
#124=VERTEX_POINT('',#435);
#125=VERTEX_POINT('',#446);
#126=VERTEX_POINT('',#448);
#127=VERTEX_POINT('',#467);
#128=VERTEX_POINT('',#469);
#129=VERTEX_POINT('',#474);
#130=VERTEX_POINT('',#475);
#131=VERTEX_POINT('',#530);
#132=VERTEX_POINT('',#539);
#133=VERTEX_POINT('',#540);
#134=VERTEX_POINT('',#595);
#135=VERTEX_POINT('',#596);
#136=VERTEX_POINT('',#691);
#137=VERTEX_POINT('',#692);
#138=VERTEX_POINT('',#747);
#139=VERTEX_POINT('',#748);
#140=VERTEX_POINT('',#752);
#141=VERTEX_POINT('',#754);
#142=EDGE_CURVE('',#116,#117,#86,.T.);
#143=EDGE_CURVE('',#118,#116,#72,.T.);
#144=EDGE_CURVE('',#118,#119,#62,.T.);
#145=EDGE_CURVE('',#120,#119,#73,.T.);
#146=EDGE_CURVE('',#120,#121,#63,.T.);
#147=EDGE_CURVE('',#121,#122,#87,.T.);
#148=EDGE_CURVE('',#122,#123,#74,.T.);
#149=EDGE_CURVE('',#123,#124,#64,.T.);
#150=EDGE_CURVE('',#124,#125,#75,.T.);
#151=EDGE_CURVE('',#125,#126,#65,.T.);
#152=EDGE_CURVE('',#126,#122,#76,.T.);
#153=EDGE_CURVE('',#121,#117,#66,.T.);
#154=EDGE_CURVE('',#127,#127,#77,.T.);
#155=EDGE_CURVE('',#127,#128,#88,.T.);
#156=EDGE_CURVE('',#128,#128,#78,.T.);
#157=EDGE_CURVE('',#129,#130,#67,.T.);
#158=EDGE_CURVE('',#129,#130,#79,.T.);
#159=EDGE_CURVE('',#126,#129,#89,.T.);
#160=EDGE_CURVE('',#130,#125,#90,.T.);
#161=EDGE_CURVE('',#117,#131,#68,.T.);
#162=EDGE_CURVE('',#116,#131,#80,.T.);
#163=EDGE_CURVE('',#132,#133,#69,.T.);
#164=EDGE_CURVE('',#132,#133,#81,.T.);
#165=EDGE_CURVE('',#119,#132,#91,.T.);
#166=EDGE_CURVE('',#133,#118,#92,.T.);
#167=EDGE_CURVE('',#134,#135,#70,.T.);
#168=EDGE_CURVE('',#134,#135,#82,.T.);
#169=EDGE_CURVE('',#131,#134,#93,.T.);
#170=EDGE_CURVE('',#135,#120,#94,.T.);
#171=EDGE_CURVE('',#136,#137,#71,.T.);
#172=EDGE_CURVE('',#136,#137,#83,.T.);
#173=EDGE_CURVE('',#124,#136,#95,.T.);
#174=EDGE_CURVE('',#137,#123,#96,.T.);
#175=EDGE_CURVE('',#138,#139,#84,.T.);
#176=EDGE_CURVE('',#139,#138,#97,.T.);
#177=EDGE_CURVE('',#139,#140,#98,.T.);
#178=EDGE_CURVE('',#140,#141,#85,.T.);
#179=EDGE_CURVE('',#141,#138,#99,.T.);
#180=EDGE_CURVE('',#141,#140,#100,.T.);
#181=ORIENTED_EDGE('',*,*,#142,.F.);
#182=ORIENTED_EDGE('',*,*,#143,.F.);
#183=ORIENTED_EDGE('',*,*,#144,.T.);
#184=ORIENTED_EDGE('',*,*,#145,.F.);
#185=ORIENTED_EDGE('',*,*,#146,.T.);
#186=ORIENTED_EDGE('',*,*,#147,.T.);
#187=ORIENTED_EDGE('',*,*,#148,.T.);
#188=ORIENTED_EDGE('',*,*,#149,.T.);
#189=ORIENTED_EDGE('',*,*,#150,.T.);
#190=ORIENTED_EDGE('',*,*,#151,.T.);
#191=ORIENTED_EDGE('',*,*,#152,.T.);
#192=ORIENTED_EDGE('',*,*,#147,.F.);
#193=ORIENTED_EDGE('',*,*,#153,.T.);
#194=ORIENTED_EDGE('',*,*,#154,.F.);
#195=ORIENTED_EDGE('',*,*,#155,.T.);
#196=ORIENTED_EDGE('',*,*,#156,.T.);
#197=ORIENTED_EDGE('',*,*,#155,.F.);
#198=ORIENTED_EDGE('',*,*,#156,.F.);
#199=ORIENTED_EDGE('',*,*,#157,.T.);
#200=ORIENTED_EDGE('',*,*,#158,.F.);
#201=ORIENTED_EDGE('',*,*,#157,.F.);
#202=ORIENTED_EDGE('',*,*,#159,.F.);
#203=ORIENTED_EDGE('',*,*,#151,.F.);
#204=ORIENTED_EDGE('',*,*,#160,.F.);
#205=ORIENTED_EDGE('',*,*,#142,.T.);
#206=ORIENTED_EDGE('',*,*,#161,.T.);
#207=ORIENTED_EDGE('',*,*,#162,.F.);
#208=ORIENTED_EDGE('',*,*,#163,.T.);
#209=ORIENTED_EDGE('',*,*,#164,.F.);
#210=ORIENTED_EDGE('',*,*,#163,.F.);
#211=ORIENTED_EDGE('',*,*,#165,.F.);
#212=ORIENTED_EDGE('',*,*,#144,.F.);
#213=ORIENTED_EDGE('',*,*,#166,.F.);
#214=ORIENTED_EDGE('',*,*,#167,.T.);
#215=ORIENTED_EDGE('',*,*,#168,.F.);
#216=ORIENTED_EDGE('',*,*,#167,.F.);
#217=ORIENTED_EDGE('',*,*,#169,.F.);
#218=ORIENTED_EDGE('',*,*,#161,.F.);
#219=ORIENTED_EDGE('',*,*,#153,.F.);
#220=ORIENTED_EDGE('',*,*,#146,.F.);
#221=ORIENTED_EDGE('',*,*,#170,.F.);
#222=ORIENTED_EDGE('',*,*,#171,.T.);
#223=ORIENTED_EDGE('',*,*,#172,.F.);
#224=ORIENTED_EDGE('',*,*,#171,.F.);
#225=ORIENTED_EDGE('',*,*,#173,.F.);
#226=ORIENTED_EDGE('',*,*,#149,.F.);
#227=ORIENTED_EDGE('',*,*,#174,.F.);
#228=ORIENTED_EDGE('',*,*,#175,.F.);
#229=ORIENTED_EDGE('',*,*,#176,.F.);
#230=ORIENTED_EDGE('',*,*,#175,.T.);
#231=ORIENTED_EDGE('',*,*,#177,.T.);
#232=ORIENTED_EDGE('',*,*,#178,.T.);
#233=ORIENTED_EDGE('',*,*,#179,.T.);
#234=ORIENTED_EDGE('',*,*,#166,.T.);
#235=ORIENTED_EDGE('',*,*,#143,.T.);
#236=ORIENTED_EDGE('',*,*,#162,.T.);
#237=ORIENTED_EDGE('',*,*,#169,.T.);
#238=ORIENTED_EDGE('',*,*,#168,.T.);
#239=ORIENTED_EDGE('',*,*,#170,.T.);
#240=ORIENTED_EDGE('',*,*,#145,.T.);
#241=ORIENTED_EDGE('',*,*,#165,.T.);
#242=ORIENTED_EDGE('',*,*,#164,.T.);
#243=ORIENTED_EDGE('',*,*,#154,.T.);
#244=ORIENTED_EDGE('',*,*,#176,.T.);
#245=ORIENTED_EDGE('',*,*,#179,.F.);
#246=ORIENTED_EDGE('',*,*,#180,.T.);
#247=ORIENTED_EDGE('',*,*,#177,.F.);
#248=ORIENTED_EDGE('',*,*,#160,.T.);
#249=ORIENTED_EDGE('',*,*,#150,.F.);
#250=ORIENTED_EDGE('',*,*,#173,.T.);
#251=ORIENTED_EDGE('',*,*,#172,.T.);
#252=ORIENTED_EDGE('',*,*,#174,.T.);
#253=ORIENTED_EDGE('',*,*,#148,.F.);
#254=ORIENTED_EDGE('',*,*,#152,.F.);
#255=ORIENTED_EDGE('',*,*,#159,.T.);
#256=ORIENTED_EDGE('',*,*,#158,.T.);
#257=ORIENTED_EDGE('',*,*,#178,.F.);
#258=ORIENTED_EDGE('',*,*,#180,.F.);
#259=CYLINDRICAL_SURFACE('',#298,5.865);
#260=CYLINDRICAL_SURFACE('',#304,3.06);
#261=CYLINDRICAL_SURFACE('',#308,5.355);
#262=CYLINDRICAL_SURFACE('',#310,5.865);
#263=CYLINDRICAL_SURFACE('',#312,5.355);
#264=CYLINDRICAL_SURFACE('',#314,5.355);
#265=CYLINDRICAL_SURFACE('',#316,5.355);
#266=CYLINDRICAL_SURFACE('',#320,3.06);
#267=ADVANCED_FACE('',(#26),#259,.T.);
#268=ADVANCED_FACE('',(#27),#260,.F.);
#269=ADVANCED_FACE('',(#28),#21,.T.);
#270=ADVANCED_FACE('',(#29),#261,.T.);
#271=ADVANCED_FACE('',(#30),#17,.F.);
#272=ADVANCED_FACE('',(#31),#262,.T.);
#273=ADVANCED_FACE('',(#32),#263,.T.);
#274=ADVANCED_FACE('',(#33),#18,.F.);
#275=ADVANCED_FACE('',(#34),#264,.T.);
#276=ADVANCED_FACE('',(#35),#19,.F.);
#277=ADVANCED_FACE('',(#36),#265,.T.);
#278=ADVANCED_FACE('',(#37),#20,.F.);
#279=ADVANCED_FACE('',(#38),#22,.F.);
#280=ADVANCED_FACE('',(#39),#266,.F.);
#281=ADVANCED_FACE('',(#40,#15),#23,.T.);
#282=ADVANCED_FACE('',(#41),#24,.T.);
#283=ADVANCED_FACE('',(#42,#16),#25,.F.);
#284=CLOSED_SHELL('',(#267,#268,#269,#270,#271,#272,#273,#274,#275,#276,
#277,#278,#279,#280,#281,#282,#283));
#285=DERIVED_UNIT_ELEMENT(#287,1.);
#286=DERIVED_UNIT_ELEMENT(#766,-3.);
#287=(
MASS_UNIT()
NAMED_UNIT(*)
SI_UNIT(.KILO.,.GRAM.)
);
#288=DERIVED_UNIT((#285,#286));
#289=MEASURE_REPRESENTATION_ITEM('density measure',
POSITIVE_RATIO_MEASURE(7850.),#288);
#290=PROPERTY_DEFINITION_REPRESENTATION(#295,#292);
#291=PROPERTY_DEFINITION_REPRESENTATION(#296,#293);
#292=REPRESENTATION('material name',(#294),#763);
#293=REPRESENTATION('density',(#289),#763);
#294=DESCRIPTIVE_REPRESENTATION_ITEM('Steel','Steel');
#295=PROPERTY_DEFINITION('material property','material name',#773);
#296=PROPERTY_DEFINITION('material property','density of part',#773);
#297=AXIS2_PLACEMENT_3D('',#396,#325,#326);
#298=AXIS2_PLACEMENT_3D('',#397,#327,#328);
#299=AXIS2_PLACEMENT_3D('',#402,#330,#331);
#300=AXIS2_PLACEMENT_3D('',#415,#332,#333);
#301=AXIS2_PLACEMENT_3D('',#434,#335,#336);
#302=AXIS2_PLACEMENT_3D('',#447,#337,#338);
#303=AXIS2_PLACEMENT_3D('',#459,#339,#340);
#304=AXIS2_PLACEMENT_3D('',#466,#341,#342);
#305=AXIS2_PLACEMENT_3D('',#468,#343,#344);
#306=AXIS2_PLACEMENT_3D('',#471,#346,#347);
#307=AXIS2_PLACEMENT_3D('',#472,#348,#349);
#308=AXIS2_PLACEMENT_3D('',#473,#350,#351);
#309=AXIS2_PLACEMENT_3D('',#486,#352,#353);
#310=AXIS2_PLACEMENT_3D('',#529,#356,#357);
#311=AXIS2_PLACEMENT_3D('',#537,#358,#359);
#312=AXIS2_PLACEMENT_3D('',#538,#360,#361);
#313=AXIS2_PLACEMENT_3D('',#551,#362,#363);
#314=AXIS2_PLACEMENT_3D('',#594,#366,#367);
#315=AXIS2_PLACEMENT_3D('',#615,#368,#369);
#316=AXIS2_PLACEMENT_3D('',#690,#372,#373);
#317=AXIS2_PLACEMENT_3D('',#703,#374,#375);
#318=AXIS2_PLACEMENT_3D('',#746,#378,#379);
#319=AXIS2_PLACEMENT_3D('',#749,#380,#381);
#320=AXIS2_PLACEMENT_3D('',#751,#383,#384);
#321=AXIS2_PLACEMENT_3D('',#755,#386,#387);
#322=AXIS2_PLACEMENT_3D('',#757,#389,#390);
#323=AXIS2_PLACEMENT_3D('',#758,#391,#392);
#324=AXIS2_PLACEMENT_3D('',#760,#394,#395);
#325=DIRECTION('axis',(0.,0.,1.));
#326=DIRECTION('refdir',(1.,0.,0.));
#327=DIRECTION('center_axis',(0.,1.,0.));
#328=DIRECTION('ref_axis',(1.,0.,0.));
#329=DIRECTION('',(0.,-1.,0.));
#330=DIRECTION('center_axis',(0.,1.,0.));
#331=DIRECTION('ref_axis',(1.,0.,0.));
#332=DIRECTION('center_axis',(0.,1.,0.));
#333=DIRECTION('ref_axis',(1.,0.,0.));
#334=DIRECTION('',(0.,-1.,0.));
#335=DIRECTION('center_axis',(0.,1.,0.));
#336=DIRECTION('ref_axis',(1.,0.,0.));
#337=DIRECTION('center_axis',(0.,1.,0.));
#338=DIRECTION('ref_axis',(1.,0.,0.));
#339=DIRECTION('center_axis',(0.,1.,0.));
#340=DIRECTION('ref_axis',(1.,0.,0.));
#341=DIRECTION('center_axis',(0.,-1.,0.));
#342=DIRECTION('ref_axis',(1.,0.,0.));
#343=DIRECTION('center_axis',(0.,-1.,0.));
#344=DIRECTION('ref_axis',(1.,0.,0.));
#345=DIRECTION('',(0.,-1.,0.));
#346=DIRECTION('center_axis',(0.,-1.,0.));
#347=DIRECTION('ref_axis',(1.,0.,0.));
#348=DIRECTION('center_axis',(0.,1.,0.));
#349=DIRECTION('ref_axis',(1.,0.,0.));
#350=DIRECTION('center_axis',(0.,1.,0.));
#351=DIRECTION('ref_axis',(1.,0.,0.));
#352=DIRECTION('center_axis',(0.,-1.,0.));
#353=DIRECTION('ref_axis',(1.,0.,0.));
#354=DIRECTION('',(0.999969280442036,0.,0.00783825058525785));
#355=DIRECTION('',(0.423242089230615,0.,-0.906016630037057));
#356=DIRECTION('center_axis',(0.,1.,0.));
#357=DIRECTION('ref_axis',(-0.932430806624896,0.,0.361348572512533));
#358=DIRECTION('center_axis',(0.,1.,0.));
#359=DIRECTION('ref_axis',(1.,0.,0.));
#360=DIRECTION('center_axis',(0.,1.,0.));
#361=DIRECTION('ref_axis',(1.,0.,0.));
#362=DIRECTION('center_axis',(0.,1.,0.));
#363=DIRECTION('ref_axis',(1.,0.,0.));
#364=DIRECTION('',(-0.997446752152278,0.,-0.0714141205986023));
#365=DIRECTION('',(-0.319405885271731,0.,-0.947618003445366));
#366=DIRECTION('center_axis',(0.,1.,0.));
#367=DIRECTION('ref_axis',(-0.656430171249845,0.,0.754386790892377));
#368=DIRECTION('center_axis',(0.,1.,0.));
#369=DIRECTION('ref_axis',(1.,0.,0.));
#370=DIRECTION('',(0.738780798275368,0.,-0.67394579314631));
#371=DIRECTION('',(-0.563528997713844,0.,0.826096282969262));
#372=DIRECTION('center_axis',(0.,1.,0.));
#373=DIRECTION('ref_axis',(1.,0.,0.));
#374=DIRECTION('center_axis',(0.,-1.,0.));
#375=DIRECTION('ref_axis',(1.,0.,0.));
#376=DIRECTION('',(-0.54030230586814,0.,0.841470984807896));
#377=DIRECTION('',(0.54030230586814,0.,0.841470984807896));
#378=DIRECTION('center_axis',(0.,1.,0.));
#379=DIRECTION('ref_axis',(1.,0.,0.));
#380=DIRECTION('center_axis',(0.,1.,0.));
#381=DIRECTION('ref_axis',(1.,0.,0.));
#382=DIRECTION('',(-1.,0.,0.));
#383=DIRECTION('center_axis',(0.,1.,0.));
#384=DIRECTION('ref_axis',(-1.83697019872103E-16,0.,1.));
#385=DIRECTION('',(0.,-1.,0.));
#386=DIRECTION('center_axis',(0.,-1.,0.));
#387=DIRECTION('ref_axis',(1.,0.,0.));
#388=DIRECTION('',(0.,1.,0.));
#389=DIRECTION('center_axis',(0.,1.,0.));
#390=DIRECTION('ref_axis',(1.,0.,0.));
#391=DIRECTION('center_axis',(0.,0.,1.));
#392=DIRECTION('ref_axis',(1.,0.,0.));
#393=DIRECTION('',(1.,0.,0.));
#394=DIRECTION('center_axis',(0.,1.,0.));
#395=DIRECTION('ref_axis',(1.,0.,0.));
#396=CARTESIAN_POINT('',(0.,0.,0.));
#397=CARTESIAN_POINT('Origin',(8.92265703921467,-0.239999999952751,4.43558444192807));
#398=CARTESIAN_POINT('',(3.05765703921467,12.0000000000472,4.43558444192807));
#399=CARTESIAN_POINT('',(3.05758188993434,9.2087974142451,4.43494371865458));
#400=CARTESIAN_POINT('',(3.05765703921467,-0.239999999952751,4.43558444192807));
#401=CARTESIAN_POINT('',(7.04934152209597,11.9999999992232,-1.122195148279));
#402=CARTESIAN_POINT('Origin',(8.92265703921467,12.0000000000472,4.43558444192807));
#403=CARTESIAN_POINT('',(14.7726822405878,11.9999999990065,4.85442825923888));
#404=CARTESIAN_POINT('Ctrl Pts',(7.04934152209597,11.9999999992232,-1.122195148279));
#405=CARTESIAN_POINT('Ctrl Pts',(6.88255173052578,11.0375283972888,-1.06597667117423));
#406=CARTESIAN_POINT('Ctrl Pts',(7.00694266010306,9.02331737382113,-1.12195229541519));
#407=CARTESIAN_POINT('Ctrl Pts',(8.59651515082956,6.47353105450369,-1.56096366323485));
#408=CARTESIAN_POINT('Ctrl Pts',(11.3030102456608,5.01941268157637,-1.20665428746316));
#409=CARTESIAN_POINT('Ctrl Pts',(13.784887097406,5.02021169783823,0.716410632912406));
#410=CARTESIAN_POINT('Ctrl Pts',(14.8098171099118,6.47287438699722,3.24771645364314));
#411=CARTESIAN_POINT('Ctrl Pts',(14.7836548485106,9.02366754893928,4.89538941412244));
#412=CARTESIAN_POINT('Ctrl Pts',(14.760112675379,11.0375283970655,5.02998838500137));
#413=CARTESIAN_POINT('Ctrl Pts',(14.7726822405878,11.9999999990065,4.85442825923888));
#414=CARTESIAN_POINT('',(5.61755946762297,11.9999999976375,9.2806391415428));
#415=CARTESIAN_POINT('Origin',(8.92265703921467,12.0000000000472,4.43558444192807));
#416=CARTESIAN_POINT('',(3.05667377012275,3.14015959652323,4.43387696374763));
#417=CARTESIAN_POINT('Ctrl Pts',(5.61755946762297,11.9999999976375,9.28063914154279));
#418=CARTESIAN_POINT('Ctrl Pts',(6.31074744214993,11.9017409980597,9.75350354314549));
#419=CARTESIAN_POINT('Ctrl Pts',(7.87028879802134,11.3372067805667,10.3506668926003));
#420=CARTESIAN_POINT('Ctrl Pts',(9.76711290067171,9.54097358285078,10.2946138135688));
#421=CARTESIAN_POINT('Ctrl Pts',(10.6768576008957,7.12543785315967,10.0310810387816));
#422=CARTESIAN_POINT('Ctrl Pts',(10.5355746987547,4.53582400231454,10.0812571785498));
#423=CARTESIAN_POINT('Ctrl Pts',(9.34151168219403,2.2464080767771,10.3667857251968));
#424=CARTESIAN_POINT('Ctrl Pts',(7.47941611660687,0.855054171402267,10.2378917974592));
#425=CARTESIAN_POINT('Ctrl Pts',(5.71514827623501,0.289573869742469,9.44300873201907));
#426=CARTESIAN_POINT('Ctrl Pts',(4.4149140173158,0.290166812369864,8.31629934003455));
#427=CARTESIAN_POINT('Ctrl Pts',(3.23093386472522,0.933718196583747,6.43873313477544));
#428=CARTESIAN_POINT('Ctrl Pts',(3.06009061477169,2.11952933170968,5.06543570629819));
#429=CARTESIAN_POINT('Ctrl Pts',(3.05667941019887,3.10881157035996,4.45286343050654));
#430=CARTESIAN_POINT('Ctrl Pts',(3.05667377012275,3.14015959652323,4.43387696374763));
#431=CARTESIAN_POINT('',(3.05765703921467,-0.240000011953299,4.43558444192807));
#432=CARTESIAN_POINT('',(3.05765703921467,-0.239999999952751,4.43558444192807));
#433=CARTESIAN_POINT('',(12.0915300631313,-0.23999999995276,9.37081176782639));
#434=CARTESIAN_POINT('Origin',(8.92265703921467,-0.239999999952751,4.43558444192807));
#435=CARTESIAN_POINT('',(12.0915300631313,-0.239999999952751,-0.499642883970241));
#436=CARTESIAN_POINT('Ctrl Pts',(12.0915300631313,-0.23999999995276,9.37081176782639));
#437=CARTESIAN_POINT('Ctrl Pts',(12.0915300631313,0.637401948299817,9.37081176782639));
#438=CARTESIAN_POINT('Ctrl Pts',(12.4387227792364,2.39146705851276,9.17113802791816));
#439=CARTESIAN_POINT('Ctrl Pts',(13.7073946710836,4.50272454374924,8.04535487941092));
#440=CARTESIAN_POINT('Ctrl Pts',(14.831970920737,5.67327179865534,5.82271566890536));
#441=CARTESIAN_POINT('Ctrl Pts',(14.8321517302239,5.67358791220035,3.04741731289929));
#442=CARTESIAN_POINT('Ctrl Pts',(13.7076061398736,4.50245805347205,0.826703574583309));
#443=CARTESIAN_POINT('Ctrl Pts',(12.4386766055447,2.39143009390789,-0.299466294496468));
#444=CARTESIAN_POINT('Ctrl Pts',(12.0915300631313,0.637401948299828,-0.49964288397024));
#445=CARTESIAN_POINT('Ctrl Pts',(12.0915300631313,-0.239999999952751,-0.49964288397024));
#446=CARTESIAN_POINT('',(11.4049718925522,-0.239999999952746,-0.878203093239264));
#447=CARTESIAN_POINT('Origin',(8.92265703921467,-0.239999999952751,4.43558444192807));
#448=CARTESIAN_POINT('',(3.05783720942213,-0.240000011953301,4.38961310224554));
#449=CARTESIAN_POINT('Ctrl Pts',(11.4049718925522,-0.239999999952742,-0.878203093239263));
#450=CARTESIAN_POINT('Ctrl Pts',(11.4086482612818,0.639968271096839,-0.87648569211183));
#451=CARTESIAN_POINT('Ctrl Pts',(11.059827065411,2.4010185841187,-1.06117909510357));
#452=CARTESIAN_POINT('Ctrl Pts',(9.43198697040729,4.52318607374829,-1.53658842683342));
#453=CARTESIAN_POINT('Ctrl Pts',(6.94573965034703,5.70056334637734,-1.30508266021755));
#454=CARTESIAN_POINT('Ctrl Pts',(4.59095522087363,5.70095578678419,0.181371262840442));
#455=CARTESIAN_POINT('Ctrl Pts',(3.31334205101796,4.52260359507328,2.323173595709));
#456=CARTESIAN_POINT('Ctrl Pts',(3.04156853541063,2.40141609287036,4.00107979085755));
#457=CARTESIAN_POINT('Ctrl Pts',(3.0578054039219,0.639968259087979,4.39367070704282));
#458=CARTESIAN_POINT('Ctrl Pts',(3.05783720942213,-0.240000011953299,4.38961310224554));
#459=CARTESIAN_POINT('Origin',(8.92265703921467,-0.239999999952751,4.43558444192807));
#460=CARTESIAN_POINT('Ctrl Pts',(3.05667377012275,3.14015959652323,4.43387696374763));
#461=CARTESIAN_POINT('Ctrl Pts',(3.05659271395386,3.59067672561274,4.16101357990241));
#462=CARTESIAN_POINT('Ctrl Pts',(3.11115289110873,4.86221027564808,3.61790201088463));
#463=CARTESIAN_POINT('Ctrl Pts',(3.13516450046769,7.03247353903923,3.48760751936825));
#464=CARTESIAN_POINT('Ctrl Pts',(3.05612328215257,8.56293205552774,4.04477817323898));
#465=CARTESIAN_POINT('Ctrl Pts',(3.05758188993434,9.2087974142451,4.43494371865458));
#466=CARTESIAN_POINT('Origin',(8.92265703921467,12.0000000000473,4.43558444192807));
#467=CARTESIAN_POINT('',(5.86265703921467,12.0000000000473,4.43558444192807));
#468=CARTESIAN_POINT('Origin',(8.92265703921467,12.0000000000472,4.43558444192807));
#469=CARTESIAN_POINT('',(5.86265703921467,10.9800000000472,4.43558444192807));
#470=CARTESIAN_POINT('',(5.86265703921467,12.0000000000473,4.43558444192807));
#471=CARTESIAN_POINT('Origin',(8.92265703921467,10.9800000000472,4.43558444192807));
#472=CARTESIAN_POINT('Origin',(8.92265703921467,10.9800000000472,4.43558444192807));
#473=CARTESIAN_POINT('Origin',(8.92265703921467,-0.239999999952751,4.43558444192807));
#474=CARTESIAN_POINT('',(3.56782154244757,-0.240000011953301,4.39361061004402));
#475=CARTESIAN_POINT('',(11.1891184270446,-0.239999999952746,-0.416134611920365));
#476=CARTESIAN_POINT('Ctrl Pts',(3.56782154244757,-0.240000011953299,4.39361061004402));
#477=CARTESIAN_POINT('Ctrl Pts',(3.56779250264301,0.639968259087979,4.39731537964154));
#478=CARTESIAN_POINT('Ctrl Pts',(3.55296753574142,2.40141609287036,4.03886280399412));
#479=CARTESIAN_POINT('Ctrl Pts',(3.80110857173071,4.52260359507328,2.50686149538023));
#480=CARTESIAN_POINT('Ctrl Pts',(4.96762494420764,5.70095578678419,0.551302843630671));
#481=CARTESIAN_POINT('Ctrl Pts',(7.11764551024856,5.70056334637734,-0.805894216552714));
#482=CARTESIAN_POINT('Ctrl Pts',(9.38769741117314,4.52318607374829,-1.01726904694111));
#483=CARTESIAN_POINT('Ctrl Pts',(10.8739861935679,2.4010185841187,-0.58319965710082));
#484=CARTESIAN_POINT('Ctrl Pts',(11.1924751115369,0.639968271096839,-0.414566550021403));
#485=CARTESIAN_POINT('Ctrl Pts',(11.1891184270446,-0.239999999952742,-0.416134611920364));
#486=CARTESIAN_POINT('Origin',(8.92265703921467,-0.239999999952751,4.43558444192807));
#487=CARTESIAN_POINT('Ctrl Pts',(3.56782154244757,-0.240000011953299,4.39361061004402));
#488=CARTESIAN_POINT('Ctrl Pts',(3.39782676477242,-0.240000011953299,4.39227810744453));
#489=CARTESIAN_POINT('Ctrl Pts',(3.22783198709728,-0.240000011953299,4.39094560484503));
#490=CARTESIAN_POINT('Ctrl Pts',(3.05783720942213,-0.240000011953299,4.38961310224554));
#491=CARTESIAN_POINT('Ctrl Pts',(3.56779250264301,0.639968259087979,4.39731537964154));
#492=CARTESIAN_POINT('Ctrl Pts',(3.39787884738461,0.639968259087979,4.39609932190276));
#493=CARTESIAN_POINT('Ctrl Pts',(3.22771905918031,0.639968259087979,4.3948867647816));
#494=CARTESIAN_POINT('Ctrl Pts',(3.0578054039219,0.639968259087979,4.39367070704282));
#495=CARTESIAN_POINT('Ctrl Pts',(3.55296753574142,2.40141609287036,4.03886280399412));
#496=CARTESIAN_POINT('Ctrl Pts',(3.3824682128849,2.40141609287036,4.02624004203706));
#497=CARTESIAN_POINT('Ctrl Pts',(3.21206785826714,2.40141609287036,4.01370255281462));
#498=CARTESIAN_POINT('Ctrl Pts',(3.04156853541063,2.40141609287036,4.00107979085755));
#499=CARTESIAN_POINT('Ctrl Pts',(3.80110857173071,4.52260359507328,2.50686149538023));
#500=CARTESIAN_POINT('Ctrl Pts',(3.63854433782728,4.52260359507328,2.44564935952253));
#501=CARTESIAN_POINT('Ctrl Pts',(3.47590628492139,4.52260359507328,2.3843857315667));
#502=CARTESIAN_POINT('Ctrl Pts',(3.31334205101796,4.52260359507328,2.323173595709));
#503=CARTESIAN_POINT('Ctrl Pts',(4.96762494420764,5.70095578678419,0.551302843630671));
#504=CARTESIAN_POINT('Ctrl Pts',(4.84204296087503,5.70095578678419,0.427994405840905));
#505=CARTESIAN_POINT('Ctrl Pts',(4.71653720420624,5.70095578678419,0.304679700630208));
#506=CARTESIAN_POINT('Ctrl Pts',(4.59095522087363,5.70095578678419,0.181371262840442));
#507=CARTESIAN_POINT('Ctrl Pts',(7.11764551024856,5.70056334637734,-0.805894216552714));
#508=CARTESIAN_POINT('Ctrl Pts',(7.06037971998424,5.70056334637734,-0.972316832758716));
#509=CARTESIAN_POINT('Ctrl Pts',(7.00300544061134,5.70056334637734,-1.13866004401155));
#510=CARTESIAN_POINT('Ctrl Pts',(6.94573965034703,5.70056334637734,-1.30508266021755));
#511=CARTESIAN_POINT('Ctrl Pts',(9.38769741117314,4.52318607374829,-1.01726904694111));
#512=CARTESIAN_POINT('Ctrl Pts',(9.40240475917645,4.52318607374829,-1.19033585069684));
#513=CARTESIAN_POINT('Ctrl Pts',(9.41727962240398,4.52318607374829,-1.36352162307769));
#514=CARTESIAN_POINT('Ctrl Pts',(9.43198697040729,4.52318607374829,-1.53658842683342));
#515=CARTESIAN_POINT('Ctrl Pts',(10.8739861935679,2.4010185841187,-0.58319965710082));
#516=CARTESIAN_POINT('Ctrl Pts',(10.9359785893701,2.4010185841187,-0.742569879994895));
#517=CARTESIAN_POINT('Ctrl Pts',(10.9978346696088,2.4010185841187,-0.901808872209495));
#518=CARTESIAN_POINT('Ctrl Pts',(11.059827065411,2.4010185841187,-1.06117909510357));
#519=CARTESIAN_POINT('Ctrl Pts',(11.1924751115369,0.639968271096839,-0.414566550021403));
#520=CARTESIAN_POINT('Ctrl Pts',(11.2644868363358,0.639968271096839,-0.568444190721984));
#521=CARTESIAN_POINT('Ctrl Pts',(11.3366365364828,0.639968271096839,-0.72260805141125));
#522=CARTESIAN_POINT('Ctrl Pts',(11.4086482612818,0.639968271096839,-0.87648569211183));
#523=CARTESIAN_POINT('Ctrl Pts',(11.1891184270446,-0.239999999952742,-0.416134611920364));
#524=CARTESIAN_POINT('Ctrl Pts',(11.2610695822138,-0.239999999952742,-0.570157439026663));
#525=CARTESIAN_POINT('Ctrl Pts',(11.333020737383,-0.239999999952742,-0.724180266132963));
#526=CARTESIAN_POINT('Ctrl Pts',(11.4049718925522,-0.239999999952742,-0.878203093239263));
#527=CARTESIAN_POINT('',(3.05783720942213,-0.240000011953299,4.38961310224554));
#528=CARTESIAN_POINT('',(11.4049718925522,-0.239999999952742,-0.878203093239263));
#529=CARTESIAN_POINT('Origin',(8.92265703921467,-0.239999999952751,4.43558444192807));
#530=CARTESIAN_POINT('',(4.58970765732963,12.0000000000253,8.38827651873119));
#531=CARTESIAN_POINT('Ctrl Pts',(3.05758188993434,9.2087974142451,4.43494371865458));
#532=CARTESIAN_POINT('Ctrl Pts',(3.05775683454465,9.28626214801977,4.48173995829761));
#533=CARTESIAN_POINT('Ctrl Pts',(3.06532685772654,10.0757446261342,4.98443501552115));
#534=CARTESIAN_POINT('Ctrl Pts',(3.21427179388177,11.3370532324212,6.30731152566782));
#535=CARTESIAN_POINT('Ctrl Pts',(4.02419110784899,11.9017410033848,7.76835608579433));
#536=CARTESIAN_POINT('Ctrl Pts',(4.58970765732963,12.0000000000253,8.38827651873119));
#537=CARTESIAN_POINT('Origin',(8.92265703921467,12.0000000000472,4.43558444192807));
#538=CARTESIAN_POINT('Origin',(8.92265703921467,-0.239999999952751,4.43558444192807));
#539=CARTESIAN_POINT('',(14.2639843969901,11.9999999990065,4.81800705773359));
#540=CARTESIAN_POINT('',(7.21223852358455,11.9999999992232,-0.638909966521863));
#541=CARTESIAN_POINT('Ctrl Pts',(14.2639843969901,11.9999999990065,4.81800705773359));
#542=CARTESIAN_POINT('Ctrl Pts',(14.2525078374516,11.0375283970655,4.97830108560369));
#543=CARTESIAN_POINT('Ctrl Pts',(14.2740028650935,9.02366754893928,4.85540637306206));
#544=CARTESIAN_POINT('Ctrl Pts',(14.2978901472425,6.47287438699722,3.35100932218965));
#545=CARTESIAN_POINT('Ctrl Pts',(13.3620844836502,5.02021169783823,1.03981705108768));
#546=CARTESIAN_POINT('Ctrl Pts',(11.0960230103177,5.01941268157637,-0.716024832733486));
#547=CARTESIAN_POINT('Ctrl Pts',(8.62487531503696,6.47353105450369,-1.03952469756851));
#548=CARTESIAN_POINT('Ctrl Pts',(7.17352651915625,9.02331737382113,-0.638688231298389));
#549=CARTESIAN_POINT('Ctrl Pts',(7.0599521921509,11.0375283972888,-0.587580052643591));
#550=CARTESIAN_POINT('Ctrl Pts',(7.21223852358455,11.9999999992232,-0.638909966521862));
#551=CARTESIAN_POINT('Origin',(8.92265703921467,12.0000000000472,4.43558444192807));
#552=CARTESIAN_POINT('Ctrl Pts',(14.2639843969901,11.9999999990065,4.81800705773359));
#553=CARTESIAN_POINT('Ctrl Pts',(14.433550344856,11.9999999990065,4.83014745823535));
#554=CARTESIAN_POINT('Ctrl Pts',(14.6031162927219,11.9999999990065,4.84228785873711));
#555=CARTESIAN_POINT('Ctrl Pts',(14.7726822405878,11.9999999990065,4.85442825923888));
#556=CARTESIAN_POINT('Ctrl Pts',(14.2525078374516,11.0375283970655,4.97830108560369));
#557=CARTESIAN_POINT('Ctrl Pts',(14.4215964857124,11.0375283970655,4.99553648302086));
#558=CARTESIAN_POINT('Ctrl Pts',(14.5910240271182,11.0375283970655,5.01275298758421));
#559=CARTESIAN_POINT('Ctrl Pts',(14.760112675379,11.0375283970655,5.02998838500137));
#560=CARTESIAN_POINT('Ctrl Pts',(14.2740028650935,9.02366754893928,4.85540637306206));
#561=CARTESIAN_POINT('Ctrl Pts',(14.4439454924535,9.02366754893928,4.86870107390708));
#562=CARTESIAN_POINT('Ctrl Pts',(14.6137122211506,9.02366754893928,4.88209471327742));
#563=CARTESIAN_POINT('Ctrl Pts',(14.7836548485106,9.02366754893928,4.89538941412244));
#564=CARTESIAN_POINT('Ctrl Pts',(14.2978901472425,6.47287438699722,3.35100932218965));
#565=CARTESIAN_POINT('Ctrl Pts',(14.4684645843862,6.47287438699722,3.31660444232267));
#566=CARTESIAN_POINT('Ctrl Pts',(14.6392426727681,6.47287438699722,3.28212133351012));
#567=CARTESIAN_POINT('Ctrl Pts',(14.8098171099118,6.47287438699722,3.24771645364314));
#568=CARTESIAN_POINT('Ctrl Pts',(13.3620844836502,5.02021169783823,1.03981705108768));
#569=CARTESIAN_POINT('Ctrl Pts',(13.5031089759216,5.02021169783823,0.932006763593147));
#570=CARTESIAN_POINT('Ctrl Pts',(13.6438626051346,5.02021169783823,0.824220920406941));
#571=CARTESIAN_POINT('Ctrl Pts',(13.784887097406,5.02021169783823,0.716410632912406));
#572=CARTESIAN_POINT('Ctrl Pts',(11.0960230103177,5.01941268157637,-0.716024832733486));
#573=CARTESIAN_POINT('Ctrl Pts',(11.1649926040801,5.01941268157637,-0.879589005773938));
#574=CARTESIAN_POINT('Ctrl Pts',(11.2340406518984,5.01941268157637,-1.04309011442271));
#575=CARTESIAN_POINT('Ctrl Pts',(11.3030102456608,5.01941268157637,-1.20665428746316));
#576=CARTESIAN_POINT('Ctrl Pts',(8.62487531503696,6.47353105450369,-1.03952469756851));
#577=CARTESIAN_POINT('Ctrl Pts',(8.61538424405105,6.47353105450369,-1.21330015169221));
#578=CARTESIAN_POINT('Ctrl Pts',(8.60600622181547,6.47353105450369,-1.38718820911114));
#579=CARTESIAN_POINT('Ctrl Pts',(8.59651515082956,6.47353105450369,-1.56096366323485));
#580=CARTESIAN_POINT('Ctrl Pts',(7.17352651915625,9.02331737382113,-0.638688231298389));
#581=CARTESIAN_POINT('Ctrl Pts',(7.11803534235836,9.02331737382113,-0.799823082058839));
#582=CARTESIAN_POINT('Ctrl Pts',(7.06243383690095,9.02331737382113,-0.960817444654745));
#583=CARTESIAN_POINT('Ctrl Pts',(7.00694266010306,9.02331737382113,-1.12195229541519));
#584=CARTESIAN_POINT('Ctrl Pts',(7.0599521921509,11.0375283972888,-0.587580052643591));
#585=CARTESIAN_POINT('Ctrl Pts',(7.00083194969199,11.0375283972888,-0.746954674735049));
#586=CARTESIAN_POINT('Ctrl Pts',(6.94167197298469,11.0375283972888,-0.906602049082768));
#587=CARTESIAN_POINT('Ctrl Pts',(6.88255173052578,11.0375283972888,-1.06597667117423));
#588=CARTESIAN_POINT('Ctrl Pts',(7.21223852358455,11.9999999992232,-0.638909966521862));
#589=CARTESIAN_POINT('Ctrl Pts',(7.15793952308836,11.9999999992232,-0.800005027107575));
#590=CARTESIAN_POINT('Ctrl Pts',(7.10364052259217,11.9999999992232,-0.961100087693287));
#591=CARTESIAN_POINT('Ctrl Pts',(7.04934152209597,11.9999999992232,-1.122195148279));
#592=CARTESIAN_POINT('',(14.7726822405878,11.9999999990065,4.85442825923888));
#593=CARTESIAN_POINT('',(7.04934152209597,11.9999999992232,-1.122195148279));
#594=CARTESIAN_POINT('Origin',(8.92265703921467,-0.239999999952751,4.43558444192807));
#595=CARTESIAN_POINT('',(4.96648586445007,12.0000000000253,8.04456416422657));
#596=CARTESIAN_POINT('',(5.90495925645703,11.9999999976375,8.85933003722847));
#597=CARTESIAN_POINT('Ctrl Pts',(4.96648586445007,12.0000000000253,8.04456416422657));
#598=CARTESIAN_POINT('Ctrl Pts',(4.45014466709818,11.9017410033848,7.47854985589292));
#599=CARTESIAN_POINT('Ctrl Pts',(3.71065311956289,11.3370532324212,6.14455264882089));
#600=CARTESIAN_POINT('Ctrl Pts',(3.51703124266699,9.54125068444582,4.42487127254941));
#601=CARTESIAN_POINT('Ctrl Pts',(3.63935783538506,7.12484428894999,3.56497692640489));
#602=CARTESIAN_POINT('Ctrl Pts',(3.61612319199146,4.82480262884502,3.69105535793669));
#603=CARTESIAN_POINT('Ctrl Pts',(3.5222976547954,2.48124136142602,4.62819064301138));
#604=CARTESIAN_POINT('Ctrl Pts',(3.72586631468082,0.933718196583747,6.26454629191915));
#605=CARTESIAN_POINT('Ctrl Pts',(4.80689167139396,0.290166812369864,7.97884587063399));
#606=CARTESIAN_POINT('Ctrl Pts',(5.9940620817115,0.289573869742469,9.00758053288073));
#607=CARTESIAN_POINT('Ctrl Pts',(7.60491532726841,0.855054171402267,9.73334333176085));
#608=CARTESIAN_POINT('Ctrl Pts',(9.30508953932626,2.2464080767771,9.85102909186913));
#609=CARTESIAN_POINT('Ctrl Pts',(10.3953209892295,4.53582400231454,9.59032911449578));
#610=CARTESIAN_POINT('Ctrl Pts',(10.5243184216191,7.12543785315967,9.54451611731605));
#611=CARTESIAN_POINT('Ctrl Pts',(9.69368195619719,9.54097358285078,9.78513299864353));
#612=CARTESIAN_POINT('Ctrl Pts',(7.96179907986424,11.3372067805667,9.83631189688964));
#613=CARTESIAN_POINT('Ctrl Pts',(6.53787001580773,11.9017409980597,9.29107579521354));
#614=CARTESIAN_POINT('Ctrl Pts',(5.90495925645703,11.9999999976375,8.85933003722847));
#615=CARTESIAN_POINT('Origin',(8.92265703921467,12.0000000000472,4.43558444192807));
#616=CARTESIAN_POINT('Ctrl Pts',(4.96648586445007,12.0000000000253,8.04456416422657));
#617=CARTESIAN_POINT('Ctrl Pts',(4.84089312874325,12.0000000000253,8.15913494906144));
#618=CARTESIAN_POINT('Ctrl Pts',(4.71530039303644,12.0000000000253,8.27370573389632));
#619=CARTESIAN_POINT('Ctrl Pts',(4.58970765732963,12.0000000000253,8.38827651873119));
#620=CARTESIAN_POINT('Ctrl Pts',(4.45014466709818,11.9017410033848,7.47854985589292));
#621=CARTESIAN_POINT('Ctrl Pts',(4.30803311867818,11.9017410033848,7.57526715277469));
#622=CARTESIAN_POINT('Ctrl Pts',(4.166302656269,11.9017410033848,7.67163878891256));
#623=CARTESIAN_POINT('Ctrl Pts',(4.02419110784899,11.9017410033848,7.76835608579433));
#624=CARTESIAN_POINT('Ctrl Pts',(3.71065311956289,11.3370532324212,6.14455264882089));
#625=CARTESIAN_POINT('Ctrl Pts',(3.54524925558571,11.3370532324212,6.19873254094471));
#626=CARTESIAN_POINT('Ctrl Pts',(3.37967565785894,11.3370532324212,6.253131633544));
#627=CARTESIAN_POINT('Ctrl Pts',(3.21427179388177,11.3370532324212,6.30731152566782));
#628=CARTESIAN_POINT('Ctrl Pts',(3.51703124266699,9.54125068444582,4.42487127254941));
#629=CARTESIAN_POINT('Ctrl Pts',(3.34540116243034,9.54125068444582,4.42458062027359));
#630=CARTESIAN_POINT('Ctrl Pts',(3.17383981847053,9.54125068444582,4.42414162297964));
#631=CARTESIAN_POINT('Ctrl Pts',(3.00220973823388,9.54125068444582,4.42385097070382));
#632=CARTESIAN_POINT('Ctrl Pts',(3.63935783538506,7.12484428894999,3.56497692640489));
#633=CARTESIAN_POINT('Ctrl Pts',(3.47164783528369,7.12484428894999,3.53728001767647));
#634=CARTESIAN_POINT('Ctrl Pts',(3.30389648274074,7.12484428894999,3.50975883365491));
#635=CARTESIAN_POINT('Ctrl Pts',(3.13618648263938,7.12484428894999,3.48206192492649));
#636=CARTESIAN_POINT('Ctrl Pts',(3.61612319199146,4.82480262884502,3.69105535793669));
#637=CARTESIAN_POINT('Ctrl Pts',(3.44765820579641,4.82480262884502,3.66746555170863));
#638=CARTESIAN_POINT('Ctrl Pts',(3.2792040022605,4.82480262884502,3.64373763235605));
#639=CARTESIAN_POINT('Ctrl Pts',(3.11073901606545,4.82480262884502,3.62014782612799));
#640=CARTESIAN_POINT('Ctrl Pts',(3.5222976547954,2.48124136142602,4.62819064301138));
#641=CARTESIAN_POINT('Ctrl Pts',(3.35083883578324,2.48124136142602,4.63426374518368));
#642=CARTESIAN_POINT('Ctrl Pts',(3.17943653243429,2.48124136142602,4.64046098856129));
#643=CARTESIAN_POINT('Ctrl Pts',(3.00797771342213,2.48124136142602,4.6465340907336));
#644=CARTESIAN_POINT('Ctrl Pts',(3.72586631468082,0.933718196583747,6.26454629191915));
#645=CARTESIAN_POINT('Ctrl Pts',(3.56088078169363,0.933718196583747,6.32260492085372));
#646=CARTESIAN_POINT('Ctrl Pts',(3.39591939771241,0.933718196583747,6.38067450584087));
#647=CARTESIAN_POINT('Ctrl Pts',(3.23093386472522,0.933718196583747,6.43873313477544));
#648=CARTESIAN_POINT('Ctrl Pts',(4.80689167139396,0.290166812369864,7.97884587063399));
#649=CARTESIAN_POINT('Ctrl Pts',(4.67626122657074,0.290166812369864,8.09137196969123));
#650=CARTESIAN_POINT('Ctrl Pts',(4.54554446213901,0.290166812369864,8.20377324097731));
#651=CARTESIAN_POINT('Ctrl Pts',(4.4149140173158,0.290166812369864,8.31629934003455));
#652=CARTESIAN_POINT('Ctrl Pts',(5.9940620817115,0.289573869742469,9.00758053288073));
#653=CARTESIAN_POINT('Ctrl Pts',(5.90107624843737,0.289573869742469,9.1526984868619));
#654=CARTESIAN_POINT('Ctrl Pts',(5.80813410950914,0.289573869742469,9.2978907780379));
#655=CARTESIAN_POINT('Ctrl Pts',(5.71514827623501,0.289573869742469,9.44300873201907));
#656=CARTESIAN_POINT('Ctrl Pts',(7.60491532726841,0.855054171402267,9.73334333176085));
#657=CARTESIAN_POINT('Ctrl Pts',(7.56307933714213,0.855054171402267,9.90154055784517));
#658=CARTESIAN_POINT('Ctrl Pts',(7.52125210673315,0.855054171402267,10.0696945713749));
#659=CARTESIAN_POINT('Ctrl Pts',(7.47941611660687,0.855054171402267,10.2378917974592));
#660=CARTESIAN_POINT('Ctrl Pts',(9.30508953932626,2.2464080767771,9.85102909186913));
#661=CARTESIAN_POINT('Ctrl Pts',(9.31724257694749,2.2464080767771,10.0229446545503));
#662=CARTESIAN_POINT('Ctrl Pts',(9.3293586445728,2.2464080767771,10.1948701625156));
#663=CARTESIAN_POINT('Ctrl Pts',(9.34151168219403,2.2464080767771,10.3667857251968));
#664=CARTESIAN_POINT('Ctrl Pts',(10.3953209892295,4.53582400231454,9.59032911449578));
#665=CARTESIAN_POINT('Ctrl Pts',(10.4420738324928,4.53582400231454,9.75398293029328));
#666=CARTESIAN_POINT('Ctrl Pts',(10.4888218554913,4.53582400231454,9.91760336275235));
#667=CARTESIAN_POINT('Ctrl Pts',(10.5355746987547,4.53582400231454,10.0812571785498));
#668=CARTESIAN_POINT('Ctrl Pts',(10.5243184216191,7.12543785315967,9.54451611731605));
#669=CARTESIAN_POINT('Ctrl Pts',(10.5751745458388,7.12543785315967,9.70667027661439));
#670=CARTESIAN_POINT('Ctrl Pts',(10.6260014766761,7.12543785315967,9.86892687948324));
#671=CARTESIAN_POINT('Ctrl Pts',(10.6768576008957,7.12543785315967,10.0310810387816));
#672=CARTESIAN_POINT('Ctrl Pts',(9.69368195619719,9.54097358285078,9.78513299864353));
#673=CARTESIAN_POINT('Ctrl Pts',(9.71814122572156,9.54097358285078,9.95502328890463));
#674=CARTESIAN_POINT('Ctrl Pts',(9.74265363114734,9.54097358285078,10.1247235233077));
#675=CARTESIAN_POINT('Ctrl Pts',(9.76711290067171,9.54097358285078,10.2946138135688));
#676=CARTESIAN_POINT('Ctrl Pts',(7.96179907986424,11.3372067805667,9.83631189688964));
#677=CARTESIAN_POINT('Ctrl Pts',(7.93132723460093,11.3372067805667,10.0076839703382));
#678=CARTESIAN_POINT('Ctrl Pts',(7.90076064328465,11.3372067805667,10.1792948191517));
#679=CARTESIAN_POINT('Ctrl Pts',(7.87028879802134,11.3372067805667,10.3506668926003));
#680=CARTESIAN_POINT('Ctrl Pts',(6.53787001580773,11.9017409980597,9.29107579521354));
#681=CARTESIAN_POINT('Ctrl Pts',(6.46209606411,11.9017409980597,9.44536076804774));
#682=CARTESIAN_POINT('Ctrl Pts',(6.38652139384766,11.9017409980597,9.59921857031129));
#683=CARTESIAN_POINT('Ctrl Pts',(6.31074744214993,11.9017409980597,9.75350354314549));
#684=CARTESIAN_POINT('Ctrl Pts',(5.90495925645703,11.9999999976375,8.85933003722847));
#685=CARTESIAN_POINT('Ctrl Pts',(5.80915932684567,11.9999999976375,8.99976640533325));
#686=CARTESIAN_POINT('Ctrl Pts',(5.71335939723432,11.9999999976375,9.14020277343802));
#687=CARTESIAN_POINT('Ctrl Pts',(5.61755946762297,11.9999999976375,9.28063914154279));
#688=CARTESIAN_POINT('',(4.58970765732963,12.0000000000253,8.38827651873119));
#689=CARTESIAN_POINT('',(5.61755946762297,11.9999999976375,9.2806391415428));
#690=CARTESIAN_POINT('Origin',(8.92265703921467,-0.239999999952751,4.43558444192807));
#691=CARTESIAN_POINT('',(11.8159758871386,-0.239999999952751,-0.0704926817182134));
#692=CARTESIAN_POINT('',(11.8159758871386,-0.23999999995276,8.94166156557436));
#693=CARTESIAN_POINT('Ctrl Pts',(11.8159758871386,-0.239999999952751,-0.0704926817182133));
#694=CARTESIAN_POINT('Ctrl Pts',(11.8159758871386,0.637401948299828,-0.070492681718213));
#695=CARTESIAN_POINT('Ctrl Pts',(12.1329357736899,2.39143009390789,0.112277247801318));
#696=CARTESIAN_POINT('Ctrl Pts',(13.2915236093815,4.50245805347205,1.14051930217851));
#697=CARTESIAN_POINT('Ctrl Pts',(14.3182826266579,5.67358791220035,3.16812749803223));
#698=CARTESIAN_POINT('Ctrl Pts',(14.318117539735,5.67327179865534,5.70209556221169));
#699=CARTESIAN_POINT('Ctrl Pts',(13.291330529182,4.50272454374924,7.73146179789067));
#700=CARTESIAN_POINT('Ctrl Pts',(12.132977932278,2.39146705851276,8.7593507595712));
#701=CARTESIAN_POINT('Ctrl Pts',(11.8159758871386,0.637401948299817,8.94166156557436));
#702=CARTESIAN_POINT('Ctrl Pts',(11.8159758871386,-0.23999999995276,8.94166156557436));
#703=CARTESIAN_POINT('Origin',(8.92265703921467,-0.239999999952751,4.43558444192807));
#704=CARTESIAN_POINT('Ctrl Pts',(11.8159758871386,-0.239999999952751,-0.0704926817182133));
#705=CARTESIAN_POINT('Ctrl Pts',(11.9078272791361,-0.239999999952751,-0.213542749135556));
#706=CARTESIAN_POINT('Ctrl Pts',(11.9996786711337,-0.239999999952751,-0.356592816552898));
#707=CARTESIAN_POINT('Ctrl Pts',(12.0915300631313,-0.239999999952751,-0.49964288397024));
#708=CARTESIAN_POINT('Ctrl Pts',(11.8159758871386,0.637401948299828,-0.070492681718213));
#709=CARTESIAN_POINT('Ctrl Pts',(11.9077825196189,0.637401948299828,-0.213458597345213));
#710=CARTESIAN_POINT('Ctrl Pts',(11.999723430651,0.637401948299828,-0.35667696834324));
#711=CARTESIAN_POINT('Ctrl Pts',(12.0915300631313,0.637401948299828,-0.49964288397024));
#712=CARTESIAN_POINT('Ctrl Pts',(12.1329357736899,2.39143009390789,0.112277247801318));
#713=CARTESIAN_POINT('Ctrl Pts',(12.2348399736604,2.39143009390789,-0.0250352448003362));
#714=CARTESIAN_POINT('Ctrl Pts',(12.3367724055742,2.39143009390789,-0.162153801894814));
#715=CARTESIAN_POINT('Ctrl Pts',(12.4386766055447,2.39143009390789,-0.299466294496468));
#716=CARTESIAN_POINT('Ctrl Pts',(13.2915236093815,4.50245805347205,1.14051930217851));
#717=CARTESIAN_POINT('Ctrl Pts',(13.4302355634028,4.50245805347205,1.0359507820956));
#718=CARTESIAN_POINT('Ctrl Pts',(13.5688941858523,4.50245805347205,0.931272094666219));
#719=CARTESIAN_POINT('Ctrl Pts',(13.7076061398736,4.50245805347205,0.826703574583309));
#720=CARTESIAN_POINT('Ctrl Pts',(14.3182826266579,5.67358791220035,3.16812749803223));
#721=CARTESIAN_POINT('Ctrl Pts',(14.4895709764738,5.67358791220035,3.12787272046492));
#722=CARTESIAN_POINT('Ctrl Pts',(14.6608633804081,5.67358791220035,3.08767209046659));
#723=CARTESIAN_POINT('Ctrl Pts',(14.8321517302239,5.67358791220035,3.04741731289929));
#724=CARTESIAN_POINT('Ctrl Pts',(14.318117539735,5.67327179865534,5.70209556221169));
#725=CARTESIAN_POINT('Ctrl Pts',(14.4894170385679,5.67327179865534,5.74235193514785));
#726=CARTESIAN_POINT('Ctrl Pts',(14.6606714219041,5.67327179865534,5.7824592959692));
#727=CARTESIAN_POINT('Ctrl Pts',(14.831970920737,5.67327179865534,5.82271566890536));
#728=CARTESIAN_POINT('Ctrl Pts',(13.291330529182,4.50272454374924,7.73146179789067));
#729=CARTESIAN_POINT('Ctrl Pts',(13.430010442779,4.50272454374924,7.83602028366173));
#730=CARTESIAN_POINT('Ctrl Pts',(13.5687147574866,4.50272454374924,7.94079639363986));
#731=CARTESIAN_POINT('Ctrl Pts',(13.7073946710836,4.50272454374924,8.04535487941092));
#732=CARTESIAN_POINT('Ctrl Pts',(12.132977932278,2.39146705851276,8.7593507595712));
#733=CARTESIAN_POINT('Ctrl Pts',(12.234904594381,2.39146705851276,8.89667026951874));
#734=CARTESIAN_POINT('Ctrl Pts',(12.3367961171335,2.39146705851276,9.03381851797062));
#735=CARTESIAN_POINT('Ctrl Pts',(12.4387227792364,2.39146705851276,9.17113802791816));
#736=CARTESIAN_POINT('Ctrl Pts',(11.8159758871386,0.637401948299817,8.94166156557436));
#737=CARTESIAN_POINT('Ctrl Pts',(11.9077703952055,0.637401948299817,9.08462370342707));
#738=CARTESIAN_POINT('Ctrl Pts',(11.9997355550643,0.637401948299817,9.22784962997368));
#739=CARTESIAN_POINT('Ctrl Pts',(12.0915300631313,0.637401948299817,9.37081176782639));
#740=CARTESIAN_POINT('Ctrl Pts',(11.8159758871386,-0.23999999995276,8.94166156557436));
#741=CARTESIAN_POINT('Ctrl Pts',(11.9078272791361,-0.23999999995276,9.0847116329917));
#742=CARTESIAN_POINT('Ctrl Pts',(11.9996786711337,-0.23999999995276,9.22776170040905));
#743=CARTESIAN_POINT('Ctrl Pts',(12.0915300631313,-0.23999999995276,9.37081176782639));
#744=CARTESIAN_POINT('',(12.0915300631313,-0.239999999952751,-0.499642883970241));
#745=CARTESIAN_POINT('',(12.0915300631313,-0.23999999995276,9.37081176782639));
#746=CARTESIAN_POINT('Origin',(8.92265703921467,9.96000000004725,5.20058444192807));
#747=CARTESIAN_POINT('',(6.27261930363429,9.96000000004725,2.90558444192807));
#748=CARTESIAN_POINT('',(11.5726947747951,9.96000000004725,2.90558444192807));
#749=CARTESIAN_POINT('Origin',(8.92265703921467,9.96000000004725,4.43558444192807));
#750=CARTESIAN_POINT('',(7.59763817142448,9.96000000004725,2.90558444192807));
#751=CARTESIAN_POINT('Origin',(8.92265703921467,-0.239999999952751,4.43558444192807));
#752=CARTESIAN_POINT('',(11.5726947747951,-0.239999999952751,2.90558444192807));
#753=CARTESIAN_POINT('',(11.5726947747951,-0.239999999952751,2.90558444192807));
#754=CARTESIAN_POINT('',(6.27261930363429,-0.239999999952751,2.90558444192807));
#755=CARTESIAN_POINT('Origin',(8.92265703921467,-0.239999999952751,4.43558444192807));
#756=CARTESIAN_POINT('',(6.27261930363429,-0.239999999952751,2.90558444192807));
#757=CARTESIAN_POINT('Origin',(8.92265703921467,12.0000000000472,4.43558444192807));
#758=CARTESIAN_POINT('Origin',(6.27261930363429,-0.239999999952751,2.90558444192807));
#759=CARTESIAN_POINT('',(6.27261930363429,-0.239999999952751,2.90558444192807));
#760=CARTESIAN_POINT('Origin',(8.92265703921467,-0.239999999952751,4.43558444192807));
#761=UNCERTAINTY_MEASURE_WITH_UNIT(LENGTH_MEASURE(0.01),#765,
'DISTANCE_ACCURACY_VALUE',
'Maximum model space distance between geometric entities at asserted c
onnectivities');
#762=UNCERTAINTY_MEASURE_WITH_UNIT(LENGTH_MEASURE(0.01),#765,
'DISTANCE_ACCURACY_VALUE',
'Maximum model space distance between geometric entities at asserted c
onnectivities');
#763=(
GEOMETRIC_REPRESENTATION_CONTEXT(3)
GLOBAL_UNCERTAINTY_ASSIGNED_CONTEXT((#761))
GLOBAL_UNIT_ASSIGNED_CONTEXT((#765,#767,#768))
REPRESENTATION_CONTEXT('','3D')
);
#764=(
GEOMETRIC_REPRESENTATION_CONTEXT(3)
GLOBAL_UNCERTAINTY_ASSIGNED_CONTEXT((#762))
GLOBAL_UNIT_ASSIGNED_CONTEXT((#765,#767,#768))
REPRESENTATION_CONTEXT('','3D')
);
#765=(
LENGTH_UNIT()
NAMED_UNIT(*)
SI_UNIT(.MILLI.,.METRE.)
);
#766=(
LENGTH_UNIT()
NAMED_UNIT(*)
SI_UNIT($,.METRE.)
);
#767=(
NAMED_UNIT(*)
PLANE_ANGLE_UNIT()
SI_UNIT($,.RADIAN.)
);
#768=(
NAMED_UNIT(*)
SI_UNIT($,.STERADIAN.)
SOLID_ANGLE_UNIT()
);
#769=SHAPE_DEFINITION_REPRESENTATION(#770,#771);
#770=PRODUCT_DEFINITION_SHAPE('',$,#773);
#771=SHAPE_REPRESENTATION('',(#297),#763);
#772=PRODUCT_DEFINITION_CONTEXT('part definition',#777,'design');
#773=PRODUCT_DEFINITION('2026-09-24-19-05-23-611','Rotary_Encoder_Knob',
#774,#772);
#774=PRODUCT_DEFINITION_FORMATION('',$,#779);
#775=PRODUCT_RELATED_PRODUCT_CATEGORY('Rotary_Encoder_Knob',
'Rotary_Encoder_Knob',(#779));
#776=APPLICATION_PROTOCOL_DEFINITION('international standard',
'automotive_design',2009,#777);
#777=APPLICATION_CONTEXT(
'Core Data for Automotive Mechanical Design Process');
#778=PRODUCT_CONTEXT('part definition',#777,'mechanical');
#779=PRODUCT('2026-09-24-19-05-23-611','Rotary_Encoder_Knob',$,(#778));
#780=PRESENTATION_STYLE_ASSIGNMENT((#781));
#781=SURFACE_STYLE_USAGE(.BOTH.,#782);
#782=SURFACE_SIDE_STYLE('',(#783));
#783=SURFACE_STYLE_FILL_AREA(#784);
#784=FILL_AREA_STYLE('Steel - Satin',(#785));
#785=FILL_AREA_STYLE_COLOUR('Steel - Satin',#786);
#786=COLOUR_RGB('Steel - Satin',0.627450980392157,0.627450980392157,0.627450980392157);
ENDSEC;
END-ISO-10303-21;
